<svg xmlns="http://www.w3.org/2000/svg" width="22.567" height="22.567" viewBox="0 0 22.567 22.567">
  <g id="info" transform="translate(-0.149 -0.15)">
    <g id="Group_18371" data-name="Group 18371" transform="translate(0)">
      <g id="Group_18370" data-name="Group 18370">
        <path id="Subtraction_11" data-name="Subtraction 11" d="M4696.782-3550.373a1.941,1.941,0,0,1-1.176-.4,1.216,1.216,0,0,1-.462-.958,3.5,3.5,0,0,1,.036-.5,5.579,5.579,0,0,1,.115-.58l.618-2.12c.058-.2.105-.4.143-.585a2.58,2.58,0,0,0,.06-.544.9.9,0,0,0-.206-.671l-.014-.016-.018-.013a1.147,1.147,0,0,0-.635-.191c-.036,0-.071,0-.117.006a1.9,1.9,0,0,0-.525.079l-.173.054.09-.344c.367-.144.73-.272,1.079-.38a3.426,3.426,0,0,1,1-.165h.007c.039,0,.079,0,.121,0a1.894,1.894,0,0,1,1.147.387,1.212,1.212,0,0,1,.428.969c0,.028,0,.074-.009.119v.01c-.008.082-.021.206-.022.353a3.041,3.041,0,0,1-.118.6l-.613,2.11a5.826,5.826,0,0,0-.138.592,3.1,3.1,0,0,0-.065.54.841.841,0,0,0,.233.687l.014.015.017.009a1.264,1.264,0,0,0,.644.177c.033,0,.069,0,.106,0l.1,0a2.111,2.111,0,0,0,.473-.054c.061-.015.111-.029.159-.044l-.078.305c-.475.18-.834.311-1.1.4a3.025,3.025,0,0,1-.926.145h-.076Q4696.84-3550.373,4696.782-3550.373Z" transform="translate(-4685.38 3567.392)" fill="#fff"/>
        <path id="Subtraction_12" data-name="Subtraction 12" d="M4695.8-3554.7a1.512,1.512,0,0,1-1.071-.457,1.2,1.2,0,0,1-.129-.144,1.464,1.464,0,0,1-.3-1,1.435,1.435,0,0,1,.43-.95,1.44,1.44,0,0,1,1.03-.445h.077a1.432,1.432,0,0,1,1.029.449,1.517,1.517,0,0,1,.122.136,1.484,1.484,0,0,1,.3,1.007,1.448,1.448,0,0,1-.428.954A1.509,1.509,0,0,1,4695.8-3554.7Z" transform="translate(-4683.604 3563.566)" fill="#fff"/>
        <path id="Subtraction_10" data-name="Subtraction 10" d="M4705.583-3535.133a11.3,11.3,0,0,1-11.284-11.283,11.3,11.3,0,0,1,11.284-11.283,11.3,11.3,0,0,1,11.283,11.283A11.3,11.3,0,0,1,4705.583-3535.133Zm0-21.828a10.556,10.556,0,0,0-10.543,10.545,10.555,10.555,0,0,0,10.543,10.543,10.556,10.556,0,0,0,10.544-10.543A10.556,10.556,0,0,0,4705.583-3556.961Z" transform="translate(-4694.15 3557.85)" fill="#fff"/>
      </g>
    </g>
  </g>
</svg>