<svg width="31" height="36" viewBox="0 0 31 36" fill="none" xmlns="http://www.w3.org/2000/svg">
<g clip-path="url(#clip0_67_362)">
<path d="M28.0092 25.7485C27.8471 28.52 27.6851 31.1799 27.5402 33.8398C27.4421 35.6489 27.0882 35.9959 25.2677 35.9959C24.2082 35.9959 23.1509 36.0041 22.0914 35.9938C20.8998 35.9835 20.4329 35.5415 20.3668 34.4098C20.2197 31.8511 20.0385 29.2923 19.9362 26.7336C19.9042 25.9261 19.5972 25.6081 18.7787 25.5131C16.8089 25.2839 16.7428 25.1703 16.9603 23.2744C17.0839 22.1902 17.1628 21.0936 17.3824 20.0259C17.9196 17.43 20.0151 16.0856 22.699 16.4697C23.4557 16.5792 24.2594 16.5771 25.0162 16.4718C27.7789 16.0835 29.851 17.4094 30.4053 20.0755C30.6696 21.3435 30.757 22.6466 30.968 23.925C31.1173 24.8295 30.7165 25.2797 29.8361 25.4284C29.2498 25.5275 28.6636 25.6329 28.0092 25.7485Z" fill="white"/>
<path d="M20.6482 14.7658C17.5635 15.7323 15.8475 17.7459 15.5959 20.9014C15.5128 21.9567 15.3145 23.0038 15.2442 24.0591C15.1376 25.6389 15.8752 26.6344 17.4612 26.9297C18.1327 27.0536 18.3438 27.3262 18.3715 27.923C18.4376 29.2551 18.5058 30.5871 18.6358 31.915C18.7062 32.6316 18.3779 32.9744 17.7149 32.9909C16.2333 33.0281 14.7475 33.0653 13.2702 32.9889C12.215 32.9352 11.9357 32.1649 11.8909 31.2459C11.7609 28.5818 11.5989 25.9198 11.4454 23.2578C11.4369 23.0926 11.3878 22.9294 11.3516 22.7333C10.6673 22.6176 10.0107 22.5247 9.36267 22.3925C8.62934 22.2417 8.29252 21.8184 8.40338 21.0584C8.58884 19.7739 8.69329 18.4769 8.91073 17.1965C9.24755 15.2264 10.42 13.7229 12.4239 13.4193C14.4149 13.1178 16.504 13.2665 18.5335 13.4193C19.2881 13.4772 19.9959 14.1091 20.7249 14.4788C20.6993 14.5738 20.6738 14.6688 20.6482 14.7658Z" fill="white"/>
<path d="M9.94677 24.1521C10.0256 25.732 10.0683 27.3015 10.1983 28.8669C10.2623 29.6414 9.89561 29.9676 9.19853 29.9842C7.78731 30.0193 6.37395 30.0358 4.96486 29.9821C4.0546 29.9491 3.60054 29.3956 3.54511 28.5055C3.38096 25.8456 3.17632 23.1877 3.03562 20.5257C3.00151 19.869 2.85229 19.4869 2.08912 19.5324C1.8525 19.5468 1.60734 19.4436 1.36645 19.3961C0.0639517 19.142 -0.0916664 18.9644 0.036239 17.682C0.151354 16.5275 0.266469 15.369 0.471117 14.2269C0.805803 12.36 1.91005 11.0487 3.77108 10.4415C4.29975 10.268 4.92649 10.3527 5.50846 10.3568C6.41445 10.3651 7.37374 10.6005 8.21792 10.3899C9.87856 9.97476 11.0681 10.6005 12.3493 11.6434C11.957 11.7942 11.682 11.8933 11.4156 12.0048C8.93632 13.0374 7.51444 14.8341 7.2032 17.4465C7.08169 18.4647 6.93887 19.4787 6.81522 20.4947C6.56581 22.5227 7.27142 23.4892 9.31791 23.9436C9.51616 23.9849 9.70802 24.0716 9.94677 24.1521Z" fill="white"/>
<path d="M19.2647 10.5302C19.2626 8.02312 21.3048 6.02404 23.8714 6.02197C26.421 6.01991 28.5144 8.04377 28.5208 10.5158C28.5293 12.9816 26.4317 15.022 23.8842 15.0261C21.3219 15.0323 19.269 13.0353 19.2647 10.5302Z" fill="white"/>
<path d="M9.28593 8.34948C6.90476 9.51217 4.21875 8.76458 2.99086 6.65192C1.77789 4.56403 2.49842 1.92475 4.62805 0.656736C6.69372 -0.574104 9.45434 -0.0206389 10.8379 1.88964C11.2535 2.46582 11.4454 2.90157 10.7888 3.5521C9.46074 4.87381 9.09408 6.57344 9.28593 8.34948Z" fill="white"/>
<path d="M15.451 11.9428C13.2083 11.9593 11.2876 10.4207 10.8719 8.29567C10.4712 6.25322 11.7033 4.13229 13.7434 3.34753C15.7963 2.55863 18.1263 3.28764 19.3244 5.05336C19.7017 5.61095 19.772 6.0054 19.2178 6.53821C18.1498 7.5646 17.6978 8.89663 17.6126 10.334C17.5379 11.6041 17.3781 11.8003 16.0841 11.9386C15.8752 11.9613 15.662 11.9428 15.451 11.9428Z" fill="white"/>
</g>
<defs>
<clipPath id="clip0_67_362">
<rect width="31" height="36" fill="white"/>
</clipPath>
</defs>
</svg>
