<svg width="51" height="51" viewBox="0 0 51 51" fill="none" xmlns="http://www.w3.org/2000/svg">
<path d="M7 40C3.13401 40 -1.36992e-07 36.866 -3.0598e-07 33L-6.33815e-07 25.5C-1.24941e-06 11.4167 11.4167 1.94475e-06 25.5 1.32915e-06V1.32915e-06C39.5833 7.13551e-07 51 11.4167 51 25.5L51 33C51 36.866 47.866 40 44 40L7 40Z" fill="#B6E3FF"/>
<g clip-path="url(#clip0_4_333)">
<path d="M37.0092 40.7485C36.8471 43.52 36.6851 46.1799 36.5402 48.8398C36.4421 50.6489 36.0882 50.9959 34.2677 50.9959C33.2082 50.9959 32.1509 51.0041 31.0914 50.9938C29.8998 50.9835 29.4329 50.5415 29.3668 49.4098C29.2197 46.8511 29.0385 44.2923 28.9362 41.7336C28.9042 40.9261 28.5972 40.6081 27.7787 40.5131C25.8089 40.2838 25.7428 40.1703 25.9603 38.2744C26.0839 37.1902 26.1628 36.0936 26.3824 35.0259C26.9196 32.43 29.0151 31.0856 31.699 31.4697C32.4557 31.5792 33.2594 31.5771 34.0162 31.4718C36.7789 31.0835 38.851 32.4094 39.4053 35.0755C39.6696 36.3435 39.757 37.6466 39.968 38.925C40.1173 39.8295 39.7165 40.2797 38.8361 40.4284C38.2498 40.5275 37.6636 40.6329 37.0092 40.7485Z" fill="#4BABE7"/>
<path d="M29.6482 29.7659C26.5635 30.7324 24.8475 32.746 24.5959 35.9016C24.5128 36.9569 24.3145 38.0039 24.2442 39.0592C24.1376 40.6391 24.8752 41.6345 26.4612 41.9298C27.1327 42.0537 27.3438 42.3263 27.3715 42.9231C27.4376 44.2552 27.5058 45.5872 27.6358 46.9151C27.7062 47.6317 27.3779 47.9745 26.7149 47.991C25.2333 48.0282 23.7475 48.0654 22.2702 47.989C21.215 47.9353 20.9357 47.165 20.8909 46.246C20.7609 43.5819 20.5989 40.9199 20.4454 38.2579C20.4369 38.0927 20.3878 37.9296 20.3516 37.7334C19.6673 37.6177 19.0107 37.5248 18.3627 37.3926C17.6293 37.2419 17.2925 36.8185 17.4034 36.0585C17.5888 34.774 17.6933 33.4771 17.9107 32.1966C18.2476 30.2265 19.42 28.723 21.4239 28.4195C23.4149 28.1179 25.504 28.2666 27.5335 28.4195C28.2881 28.4773 28.9959 29.1092 29.7249 29.4789C29.6993 29.5739 29.6738 29.6689 29.6482 29.7659Z" fill="#4BABE7"/>
<path d="M18.9468 39.1521C19.0256 40.732 19.0683 42.3015 19.1983 43.8669C19.2623 44.6413 18.8956 44.9676 18.1985 44.9842C16.7873 45.0193 15.374 45.0358 13.9649 44.9821C13.0546 44.9491 12.6005 44.3956 12.5451 43.5055C12.381 40.8456 12.1763 38.1877 12.0356 35.5257C12.0015 34.869 11.8523 34.4869 11.0891 34.5324C10.8525 34.5468 10.6073 34.4435 10.3665 34.396C9.06395 34.142 8.90833 33.9644 9.03624 32.682C9.15135 31.5275 9.26647 30.369 9.47112 29.2269C9.8058 27.36 10.9101 26.0486 12.7711 25.4415C13.2998 25.268 13.9265 25.3527 14.5085 25.3568C15.4145 25.3651 16.3737 25.6005 17.2179 25.3899C18.8786 24.9748 20.0681 25.6005 21.3493 26.6434C20.957 26.7942 20.682 26.8933 20.4156 27.0048C17.9363 28.0374 16.5144 29.8341 16.2032 32.4465C16.0817 33.4647 15.9389 34.4787 15.8152 35.4947C15.5658 37.5227 16.2714 38.4892 18.3179 38.9435C18.5162 38.9849 18.708 39.0716 18.9468 39.1521Z" fill="#4BABE7"/>
<path d="M28.2647 25.5303C28.2626 23.0232 30.3048 21.0241 32.8714 21.022C35.421 21.02 37.5144 23.0438 37.5208 25.5158C37.5293 27.9816 35.4317 30.022 32.8842 30.0262C30.3219 30.0324 28.269 28.0353 28.2647 25.5303Z" fill="#4BABE7"/>
<path d="M18.2859 23.3495C15.9048 24.5122 13.2187 23.7646 11.9909 21.6519C10.7779 19.5641 11.4984 16.9248 13.628 15.6568C15.6937 14.4259 18.4543 14.9794 19.8379 16.8897C20.2535 17.4658 20.4454 17.9016 19.7888 18.5521C18.4607 19.8738 18.0941 21.5735 18.2859 23.3495Z" fill="#4BABE7"/>
<path d="M24.451 26.9429C22.2083 26.9594 20.2876 25.4208 19.8719 23.2958C19.4712 21.2533 20.7033 19.1324 22.7434 18.3476C24.7963 17.5587 27.1263 18.2877 28.3244 20.0535C28.7017 20.6111 28.772 21.0055 28.2178 21.5383C27.1498 22.5647 26.6978 23.8967 26.6126 25.3341C26.5379 26.6042 26.3781 26.8004 25.0841 26.9387C24.8752 26.9615 24.662 26.9429 24.451 26.9429Z" fill="#4BABE7"/>
</g>
<defs>
<clipPath id="clip0_4_333">
<rect width="31" height="36" fill="white" transform="translate(9 15)"/>
</clipPath>
</defs>
</svg>
