<svg xmlns="http://www.w3.org/2000/svg" width="21.113" height="19.051" viewBox="0 0 21.113 19.051">
  <g id="calendar" transform="translate(0 -25)">
    <path id="Path_37197" data-name="Path 37197" d="M98.938,249h-1.32a.619.619,0,0,0,0,1.237h1.32a.619.619,0,0,0,0-1.237Z" transform="translate(-93 -214.763)" fill="#677294"/>
    <path id="Path_37198" data-name="Path 37198" d="M98.938,313h-1.32a.619.619,0,0,0,0,1.237h1.32a.619.619,0,0,0,0-1.237Z" transform="translate(-93 -276.124)" fill="#677294"/>
    <path id="Path_37199" data-name="Path 37199" d="M98.938,377h-1.32a.619.619,0,1,0,0,1.237h1.32a.619.619,0,1,0,0-1.237Z" transform="translate(-93 -337.485)" fill="#677294"/>
    <path id="Path_37200" data-name="Path 37200" d="M226.938,249h-1.32a.619.619,0,0,0,0,1.237h1.32a.619.619,0,1,0,0-1.237Z" transform="translate(-215.722 -214.763)" fill="#677294"/>
    <path id="Path_37201" data-name="Path 37201" d="M226.938,313h-1.32a.619.619,0,0,0,0,1.237h1.32a.619.619,0,1,0,0-1.237Z" transform="translate(-215.722 -276.124)" fill="#677294"/>
    <path id="Path_37202" data-name="Path 37202" d="M226.938,377h-1.32a.619.619,0,1,0,0,1.237h1.32a.619.619,0,1,0,0-1.237Z" transform="translate(-215.722 -337.485)" fill="#677294"/>
    <path id="Path_37203" data-name="Path 37203" d="M354.938,249h-1.32a.619.619,0,0,0,0,1.237h1.32a.619.619,0,0,0,0-1.237Z" transform="translate(-338.443 -214.763)" fill="#677294"/>
    <path id="Path_37204" data-name="Path 37204" d="M354.938,313h-1.32a.619.619,0,0,0,0,1.237h1.32a.619.619,0,0,0,0-1.237Z" transform="translate(-338.443 -276.124)" fill="#677294"/>
    <path id="Path_37205" data-name="Path 37205" d="M354.938,377h-1.32a.619.619,0,0,0,0,1.237h1.32a.619.619,0,0,0,0-1.237Z" transform="translate(-338.443 -337.485)" fill="#677294"/>
    <path id="Path_37206" data-name="Path 37206" d="M19.258,26.649H17.773V25.619a.619.619,0,0,0-1.237,0v1.031H11.175V25.619a.619.619,0,0,0-1.237,0v1.031H4.577V25.619a.619.619,0,0,0-1.237,0v1.031H1.856A1.858,1.858,0,0,0,0,28.505V42.2a1.858,1.858,0,0,0,1.856,1.856h17.4A1.858,1.858,0,0,0,21.113,42.2V28.505A1.858,1.858,0,0,0,19.258,26.649ZM1.237,28.505a.619.619,0,0,1,.619-.619H3.34v1.031a.619.619,0,1,0,1.237,0V27.887H9.938v1.031a.619.619,0,1,0,1.237,0V27.887h5.361v1.031a.619.619,0,0,0,1.237,0V27.887h1.485a.619.619,0,0,1,.619.619v2.433H1.237ZM19.258,42.814H1.856a.619.619,0,0,1-.619-.619V32.175H19.876V42.2A.619.619,0,0,1,19.258,42.814Z" transform="translate(0 0)" fill="#677294"/>
  </g>
</svg>