<svg width="82" height="82" viewBox="0 0 82 82" fill="none" xmlns="http://www.w3.org/2000/svg">
<g filter="url(#filter0_d_605_3106)">
<g filter="url(#filter1_b_605_3106)">
<path d="M41 68C57.5685 68 71 54.5685 71 38C71 21.4315 57.5685 8 41 8C24.4315 8 11 21.4315 11 38C11 54.5685 24.4315 68 41 68Z" fill="white" fill-opacity="0.12"/>
</g>
<path d="M41 68C57.5685 68 71 54.5685 71 38C71 21.4315 57.5685 8 41 8C24.4315 8 11 21.4315 11 38C11 54.5685 24.4315 68 41 68Z" stroke="white"/>
</g>
<path d="M50.641 29.964L48.677 28L40.82 35.856L32.964 28L31 29.964L38.856 37.82L31 45.677L32.964 47.641L40.82 39.784L48.676 47.64L50.64 45.676L42.784 37.82L50.641 29.964Z" fill="white"/>
<defs>
<filter id="filter0_d_605_3106" x="0.5" y="0.5" width="81" height="81" filterUnits="userSpaceOnUse" color-interpolation-filters="sRGB">
<feFlood flood-opacity="0" result="BackgroundImageFix"/>
<feColorMatrix in="SourceAlpha" type="matrix" values="0 0 0 0 0 0 0 0 0 0 0 0 0 0 0 0 0 0 127 0" result="hardAlpha"/>
<feOffset dy="3"/>
<feGaussianBlur stdDeviation="5"/>
<feColorMatrix type="matrix" values="0 0 0 0 0 0 0 0 0 0 0 0 0 0 0 0 0 0 0.212 0"/>
<feBlend mode="normal" in2="BackgroundImageFix" result="effect1_dropShadow_605_3106"/>
<feBlend mode="normal" in="SourceGraphic" in2="effect1_dropShadow_605_3106" result="shape"/>
</filter>
<filter id="filter1_b_605_3106" x="-43" y="-46" width="168" height="168" filterUnits="userSpaceOnUse" color-interpolation-filters="sRGB">
<feFlood flood-opacity="0" result="BackgroundImageFix"/>
<feGaussianBlur in="BackgroundImage" stdDeviation="27"/>
<feComposite in2="SourceAlpha" operator="in" result="effect1_backgroundBlur_605_3106"/>
<feBlend mode="normal" in="SourceGraphic" in2="effect1_backgroundBlur_605_3106" result="shape"/>
</filter>
</defs>
</svg>
