<svg xmlns="http://www.w3.org/2000/svg" width="42" height="42" viewBox="0 0 42 42">
  <path id="Subtraction_13" data-name="Subtraction 13" d="M18751.5-5759.5a21.026,21.026,0,0,1-21-21,21.026,21.026,0,0,1,21-21,21.026,21.026,0,0,1,21,21A21.026,21.026,0,0,1,18751.5-5759.5Zm0-40.1a19.119,19.119,0,0,0-19.1,19.1,19.116,19.116,0,0,0,19.1,19.094,19.114,19.114,0,0,0,19.092-19.094A19.117,19.117,0,0,0,18751.5-5799.6Zm6.855,26.91a.93.93,0,0,1-.67-.276l-6.186-6.186-6.187,6.186a.934.934,0,0,1-.676.276.937.937,0,0,1-.67-.276.951.951,0,0,1,0-1.348l6.186-6.186-6.186-6.186a.95.95,0,0,1,0-1.347.936.936,0,0,1,.67-.277.929.929,0,0,1,.676.277l6.188,6.186,6.186-6.186a.93.93,0,0,1,.67-.277.935.935,0,0,1,.678.277.923.923,0,0,1,.277.669.936.936,0,0,1-.277.678l-6.187,6.186,6.188,6.186a.928.928,0,0,1,.277.67.936.936,0,0,1-.277.678A.935.935,0,0,1,18758.357-5772.69Z" transform="translate(-18730.502 5801.499)" fill="red"/>
</svg>
