<svg width="22" height="22" viewBox="0 0 22 22" fill="none" xmlns="http://www.w3.org/2000/svg">
<g clip-path="url(#clip0_4_44)">
<path d="M20 0H2C0.89543 0 0 0.89543 0 2V20C0 21.1046 0.89543 22 2 22H20C21.1046 22 22 21.1046 22 20V2C22 0.89543 21.1046 0 20 0Z" fill="#F6E9E9"/>
<path d="M20 0.149994H2.00002C0.978298 0.149994 0.150024 0.978267 0.150024 1.99999V20C0.150024 21.0217 0.978298 21.85 2.00002 21.85H20C21.0218 21.85 21.85 21.0217 21.85 20V1.99999C21.85 0.978267 21.0218 0.149994 20 0.149994Z" fill="#F6E9E9" stroke="#FFCACA" stroke-width="0.3"/>
<path d="M9.91905 9.411C9.84801 9.411 9.77766 9.42499 9.71202 9.45218C9.64638 9.47936 9.58674 9.51921 9.53651 9.56945C9.48627 9.61969 9.44642 9.67933 9.41923 9.74496C9.39205 9.8106 9.37805 9.88095 9.37805 9.952V14.281C9.37805 14.4245 9.43505 14.5621 9.53651 14.6635C9.63796 14.765 9.77557 14.822 9.91905 14.822C10.0625 14.822 10.2001 14.765 10.3016 14.6635C10.4031 14.5621 10.4601 14.4245 10.4601 14.281V9.952C10.4601 9.88095 10.4461 9.8106 10.4189 9.74496C10.3917 9.67933 10.3518 9.61969 10.3016 9.56945C10.2514 9.51921 10.1917 9.47936 10.1261 9.45218C10.0604 9.42499 9.9901 9.411 9.91905 9.411V9.411Z" fill="#FF0000" stroke="#FFF2F2" stroke-width="0.5"/>
<path d="M12.0831 9.411C12.0121 9.411 11.9417 9.42499 11.8761 9.45218C11.8104 9.47936 11.7508 9.51921 11.7006 9.56945C11.6503 9.61969 11.6105 9.67933 11.5833 9.74496C11.5561 9.8106 11.5421 9.88095 11.5421 9.952V14.281C11.5421 14.4245 11.5991 14.5621 11.7006 14.6635C11.802 14.765 11.9396 14.822 12.0831 14.822C12.2266 14.822 12.3642 14.765 12.4657 14.6635C12.5671 14.5621 12.6241 14.4245 12.6241 14.281V9.952C12.6241 9.88095 12.6101 9.8106 12.5829 9.74496C12.5557 9.67933 12.5159 9.61969 12.4657 9.56945C12.4154 9.51921 12.3558 9.47936 12.2901 9.45218C12.2245 9.42499 12.1542 9.411 12.0831 9.411V9.411Z" fill="#FF0000" stroke="#FFF2F2" stroke-width="0.5"/>
<path d="M12.6241 4H9.37806C9.09117 4.00027 8.81612 4.11435 8.61326 4.3172C8.4104 4.52006 8.29632 4.79512 8.29606 5.082V6.164H5.04906C4.90557 6.164 4.76797 6.221 4.66651 6.32246C4.56505 6.42391 4.50806 6.56152 4.50806 6.705C4.50806 6.84848 4.56505 6.98609 4.66651 7.08755C4.76797 7.189 4.90557 7.246 5.04906 7.246H6.13106V16.446C6.13159 16.8763 6.30275 17.2888 6.60701 17.5931C6.91126 17.8973 7.32377 18.0685 7.75406 18.069H14.2471C14.6773 18.0685 15.0898 17.8973 15.3941 17.5931C15.6984 17.2888 15.8695 16.8763 15.8701 16.446V7.246H16.9521C17.0231 7.246 17.0935 7.23201 17.1591 7.20482C17.2247 7.17763 17.2844 7.13778 17.3346 7.08755C17.3848 7.03731 17.4247 6.97767 17.4519 6.91203C17.4791 6.84639 17.4931 6.77605 17.4931 6.705C17.4931 6.63396 17.4791 6.56361 17.4519 6.49797C17.4247 6.43233 17.3848 6.37269 17.3346 6.32246C17.2844 6.27222 17.2247 6.23237 17.1591 6.20518C17.0935 6.17799 17.0231 6.164 16.9521 6.164H13.7081V5.082C13.7079 4.93978 13.6798 4.79898 13.6252 4.66763C13.5707 4.53629 13.4908 4.41697 13.3901 4.3165C13.2895 4.21602 13.17 4.13636 13.0386 4.08206C12.9071 4.02775 12.7663 3.99987 12.6241 4V4ZM14.7881 16.445C14.7881 16.516 14.7741 16.5864 14.7469 16.652C14.7197 16.7177 14.6798 16.7773 14.6296 16.8275C14.5794 16.8778 14.5197 16.9176 14.4541 16.9448C14.3885 16.972 14.3181 16.986 14.2471 16.986H7.75406C7.61057 16.986 7.47297 16.929 7.37151 16.8275C7.27005 16.7261 7.21306 16.5885 7.21306 16.445V7.245H14.7881V16.445ZM9.37806 6.164V5.082H12.6241V6.164H9.37806Z" fill="#FF0000" stroke="#FFF2F2" stroke-width="0.5"/>
</g>
<defs>
<clipPath id="clip0_4_44">
<rect width="22" height="22" fill="white"/>
</clipPath>
</defs>
</svg>