<svg width="27" height="27" viewBox="0 0 27 27" fill="none" xmlns="http://www.w3.org/2000/svg">
<circle cx="13.5" cy="13.5" r="13.5" fill="white"/>
<path d="M13.738 10.879C13.0799 10.879 12.4367 11.0742 11.8896 11.4397C11.3424 11.8053 10.916 12.3249 10.6642 12.9329C10.4124 13.5408 10.3465 14.2097 10.4749 14.8551C10.6033 15.5005 10.9201 16.0933 11.3854 16.5586C11.8507 17.0239 12.4435 17.3407 13.0889 17.4691C13.7343 17.5975 14.4032 17.5316 15.0111 17.2798C15.6191 17.028 16.1387 16.6015 16.5042 16.0544C16.8698 15.5073 17.065 14.8641 17.065 14.206C17.0639 13.324 16.713 12.4784 16.0893 11.8547C15.4656 11.231 14.62 10.8801 13.738 10.879ZM13.738 16.691C13.2465 16.691 12.766 16.5453 12.3574 16.2723C11.9487 15.9992 11.6302 15.6111 11.4421 15.157C11.254 14.7029 11.2048 14.2033 11.3007 13.7212C11.3966 13.2392 11.6333 12.7964 11.9808 12.4489C12.3283 12.1014 12.7711 11.8647 13.2532 11.7688C13.7352 11.6729 14.2348 11.7221 14.6889 11.9102C15.143 12.0983 15.5311 12.4168 15.8042 12.8255C16.0772 13.2341 16.223 13.7146 16.223 14.206C16.2222 14.8649 15.9601 15.4965 15.4942 15.9623C15.0284 16.4282 14.3968 16.6903 13.738 16.691ZM19.265 9.71105H16.748L16.2 8.27105C16.1692 8.19035 16.1143 8.12095 16.0427 8.07255C15.9711 8.02405 15.8864 7.99875 15.8 8.00005H11.673C11.5877 8.00015 11.5045 8.02615 11.4343 8.07455C11.3642 8.12285 11.3103 8.19145 11.28 8.27105L10.729 9.71105H8.211C7.89 9.71135 7.5823 9.83885 7.3553 10.0657C7.1283 10.2925 7.0005 10.6001 7 10.921V18.256C7.0002 18.5771 7.1279 18.885 7.3549 19.1121C7.582 19.3391 7.8899 19.4668 8.211 19.467H19.266C19.587 19.4668 19.8949 19.3391 20.122 19.1121C20.349 18.885 20.4767 18.5771 20.477 18.256V10.921C20.4764 10.6001 20.3486 10.2925 20.1216 10.0657C19.8946 9.83885 19.5869 9.71135 19.266 9.71105H19.265ZM19.633 18.257C19.6327 18.3546 19.5938 18.448 19.5249 18.517C19.4559 18.5859 19.3625 18.6248 19.265 18.625H8.211C8.1134 18.6248 8.02 18.5859 7.951 18.517C7.8821 18.448 7.8432 18.3546 7.843 18.257V10.921C7.8432 10.8235 7.8821 10.7301 7.951 10.6611C8.02 10.5922 8.1134 10.5533 8.211 10.553H11.018C11.1032 10.553 11.1864 10.527 11.2566 10.4786C11.3267 10.4302 11.3806 10.3617 11.411 10.282L11.962 8.84205H15.514L16.065 10.282C16.0953 10.3617 16.1492 10.4302 16.2193 10.4786C16.2895 10.527 16.3727 10.553 16.458 10.553H19.265C19.3625 10.5533 19.4559 10.5922 19.5249 10.6611C19.5938 10.7301 19.6327 10.8235 19.633 10.921V18.257Z" fill="black" stroke="white" stroke-width="0.3"/>
</svg>