<svg id="dish" xmlns="http://www.w3.org/2000/svg" width="50.707" height="50.707" viewBox="0 0 50.707 50.707">
  <g id="Group_18402" data-name="Group 18402" transform="translate(27.045 12.672)">
    <g id="Group_18401" data-name="Group 18401">
      <path id="Path_37187" data-name="Path 37187" d="M264.874,124.373l-.543-1.786a3.879,3.879,0,0,0-7.346,0l-.543,1.786a10.031,10.031,0,0,0-.28,4.648,4.372,4.372,0,0,0,2.251,3.047l-.608,13.584a2.676,2.676,0,0,0,.676,2.081,2.952,2.952,0,0,0,4.171.187q.1-.089.187-.187a2.64,2.64,0,0,0,.676-2.024l-.611-13.642a4.371,4.371,0,0,0,2.248-3.045A10.03,10.03,0,0,0,264.874,124.373Zm-1.385,4.354a2.68,2.68,0,0,1-1.754,2.019.845.845,0,0,0-.547.829l.642,14.266a.978.978,0,0,1-.254.766,1.306,1.306,0,0,1-1.837,0,1.014,1.014,0,0,1-.248-.821l.637-14.211a.845.845,0,0,0-.547-.829,2.68,2.68,0,0,1-1.754-2.019,8.334,8.334,0,0,1,.232-3.859l.543-1.787a2.191,2.191,0,0,1,4.111,0l.543,1.787A8.345,8.345,0,0,1,263.489,128.727Z" transform="translate(-256.012 -119.955)" fill="#b3b8c9"/>
    </g>
  </g>
  <g id="Group_18404" data-name="Group 18404" transform="translate(14.367 12.677)">
    <g id="Group_18403" data-name="Group 18403">
      <path id="Path_37188" data-name="Path 37188" d="M144.451,120a.845.845,0,0,0-.845.845V128.1l-2.288,2.288a.845.845,0,0,0-.248.64l.739,14.79a1.151,1.151,0,0,1-.319.861,1.19,1.19,0,0,1-1.683.007l-.007-.007a1.151,1.151,0,0,1-.319-.861l.745-14.79a.845.845,0,0,0-.247-.64L137.69,128.1v-7.256a.845.845,0,1,0-1.69,0v7.606a.845.845,0,0,0,.248.6l2.27,2.271-.721,14.417a2.855,2.855,0,1,0,5.7.278q.007-.139,0-.278l-.721-14.417,2.27-2.271a.845.845,0,0,0,.248-.6v-7.606A.845.845,0,0,0,144.451,120Z" transform="translate(-136 -120)" fill="#b3b8c9"/>
    </g>
  </g>
  <g id="Group_18406" data-name="Group 18406" transform="translate(16.902 12.677)">
    <g id="Group_18405" data-name="Group 18405">
      <path id="Path_37189" data-name="Path 37189" d="M160.845,120a.845.845,0,0,0-.845.845v6.761a.845.845,0,0,0,1.69,0v-6.761A.845.845,0,0,0,160.845,120Z" transform="translate(-160 -120)" fill="#b3b8c9"/>
    </g>
  </g>
  <g id="Group_18408" data-name="Group 18408" transform="translate(19.438 12.677)">
    <g id="Group_18407" data-name="Group 18407">
      <path id="Path_37190" data-name="Path 37190" d="M184.845,120a.845.845,0,0,0-.845.845v6.761a.845.845,0,0,0,1.69,0v-6.761A.845.845,0,0,0,184.845,120Z" transform="translate(-184 -120)" fill="#b3b8c9"/>
    </g>
  </g>
  <g id="Group_18410" data-name="Group 18410">
    <g id="Group_18409" data-name="Group 18409">
      <path id="Path_37191" data-name="Path 37191" d="M25.354,0A25.354,25.354,0,1,0,50.707,25.354,25.354,25.354,0,0,0,25.354,0Zm0,49.017A23.663,23.663,0,1,1,49.017,25.354,23.663,23.663,0,0,1,25.354,49.017Z" fill="#b3b8c9"/>
    </g>
  </g>
  <g id="Group_18412" data-name="Group 18412" transform="translate(22.619 40.455)">
    <g id="Group_18411" data-name="Group 18411">
      <path id="Path_37192" data-name="Path 37192" d="M219.591,383.712a.845.845,0,0,0-.923-.759l-.033,0h0a15.524,15.524,0,0,1-3.582,0,.845.845,0,1,0-.2,1.679,17.117,17.117,0,0,0,3.972,0A.845.845,0,0,0,219.591,383.712Z" transform="translate(-214.113 -382.949)" fill="#b3b8c9"/>
    </g>
  </g>
  <g id="Group_18414" data-name="Group 18414" transform="translate(35.843 14.161)">
    <g id="Group_18413" data-name="Group 18413">
      <path id="Path_37193" data-name="Path 37193" d="M341.735,134.355a.845.845,0,0,0-1.191-.1l0,0a.845.845,0,0,0-.1,1.191,15.212,15.212,0,0,1-.9,20.576.845.845,0,0,0,1.193,1.2A16.9,16.9,0,0,0,341.735,134.355Z" transform="translate(-339.295 -134.053)" fill="#b3b8c9"/>
    </g>
  </g>
  <g id="Group_18417" data-name="Group 18417" transform="translate(18.844 8.454)">
    <g id="Group_18416" data-name="Group 18416">
      <g id="Group_18415" data-name="Group 18415">
        <path id="Path_37194" data-name="Path 37194" d="M186.356,105.743h0Z" transform="translate(-185.51 -103.026)" fill="#b3b8c9"/>
        <path id="Path_37195" data-name="Path 37195" d="M188.878,80.5a17.052,17.052,0,0,0-9.948.611.844.844,0,1,0,.592,1.581,15.353,15.353,0,0,1,8.958-.549.845.845,0,0,0,.4-1.643Z" transform="translate(-178.382 -80.027)" fill="#b3b8c9"/>
      </g>
    </g>
  </g>
  <g id="Group_18419" data-name="Group 18419" transform="translate(8.45 15.052)">
    <g id="Group_18418" data-name="Group 18418">
      <path id="Path_37196" data-name="Path 37196" d="M86.116,163.522a15.21,15.21,0,0,1-1.528-19.681.845.845,0,0,0-1.351-1.016l-.015.02a16.9,16.9,0,0,0,1.7,21.873.846.846,0,1,0,1.2-1.2Z" transform="translate(-79.989 -142.488)" fill="#b3b8c9"/>
    </g>
  </g>
</svg>