<svg width="174" height="69" viewBox="0 0 174 69" fill="none" xmlns="http://www.w3.org/2000/svg">
<rect width="69" height="69" rx="23" fill="white"/>
<path d="M28.0275 36.3641L41.1771 49.5093C41.7541 50.0848 42.6889 50.0848 43.2673 49.5093C43.8443 48.9338 43.8443 47.9989 43.2673 47.4234L31.1608 35.3212L43.2659 23.219C43.8429 22.6434 43.8429 21.7086 43.2659 21.1316C42.6889 20.5561 41.7526 20.5561 41.1756 21.1316L28.026 34.2767C27.4579 34.8463 27.4579 35.7958 28.0275 36.3641Z" fill="#677294"/>
<path d="M88.8028 53.5C87.892 53.5 87.1882 53.2654 86.6914 52.7962C86.2222 52.2994 85.9876 51.5956 85.9876 50.6848V27.1282C85.9876 26.2174 86.2222 25.5274 86.6914 25.0582C87.1882 24.5614 87.892 24.313 88.8028 24.313H98.7388C100.781 24.313 102.52 24.6166 103.955 25.2238C105.39 25.831 106.481 26.7004 107.226 27.832C107.999 28.9636 108.385 30.316 108.385 31.8892C108.385 33.6556 107.874 35.146 106.853 36.3604C105.832 37.5748 104.438 38.389 102.672 38.803V38.182C104.714 38.4856 106.301 39.2584 107.433 40.5004C108.564 41.7424 109.13 43.357 109.13 45.3442C109.13 47.9386 108.247 49.9534 106.481 51.3886C104.742 52.7962 102.313 53.5 99.1942 53.5H88.8028ZM91.0798 49.4842H98.5318C100.409 49.4842 101.789 49.1254 102.672 48.4078C103.555 47.6626 103.997 46.5586 103.997 45.0958C103.997 43.6054 103.555 42.5014 102.672 41.7838C101.789 41.0662 100.409 40.7074 98.5318 40.7074H91.0798V49.4842ZM91.0798 36.6916H97.828C99.6496 36.6916 101.002 36.3466 101.885 35.6566C102.796 34.939 103.251 33.8902 103.251 32.5102C103.251 31.1302 102.796 30.0952 101.885 29.4052C101.002 28.6876 99.6496 28.3288 97.828 28.3288H91.0798V36.6916ZM119.969 53.914C118.506 53.914 117.195 53.638 116.036 53.086C114.905 52.5064 114.008 51.7336 113.345 50.7676C112.71 49.8016 112.393 48.7114 112.393 47.497C112.393 46.0066 112.779 44.8336 113.552 43.978C114.325 43.0948 115.581 42.46 117.32 42.0736C119.058 41.6872 121.391 41.494 124.316 41.494H126.386V44.4748H124.358C122.646 44.4748 121.28 44.5576 120.259 44.7232C119.238 44.8888 118.506 45.1786 118.065 45.5926C117.651 45.979 117.444 46.531 117.444 47.2486C117.444 48.1594 117.761 48.9046 118.396 49.4842C119.031 50.0638 119.914 50.3536 121.046 50.3536C121.956 50.3536 122.757 50.1466 123.447 49.7326C124.164 49.291 124.73 48.6976 125.144 47.9524C125.558 47.2072 125.765 46.3516 125.765 45.3856V40.6246C125.765 39.2446 125.462 38.251 124.854 37.6438C124.247 37.0366 123.226 36.733 121.791 36.733C120.99 36.733 120.121 36.8296 119.183 37.0228C118.272 37.216 117.306 37.5472 116.285 38.0164C115.76 38.2648 115.291 38.3338 114.877 38.2234C114.491 38.113 114.187 37.8922 113.966 37.561C113.745 37.2022 113.635 36.8158 113.635 36.4018C113.635 35.9878 113.745 35.5876 113.966 35.2012C114.187 34.7872 114.56 34.4836 115.084 34.2904C116.354 33.766 117.568 33.3934 118.727 33.1726C119.914 32.9518 120.99 32.8414 121.956 32.8414C123.944 32.8414 125.572 33.145 126.842 33.7522C128.139 34.3594 129.105 35.284 129.74 36.526C130.374 37.7404 130.692 39.3136 130.692 41.2456V51.1816C130.692 52.0372 130.485 52.6996 130.071 53.1688C129.657 53.6104 129.063 53.8312 128.291 53.8312C127.518 53.8312 126.911 53.6104 126.469 53.1688C126.055 52.6996 125.848 52.0372 125.848 51.1816V49.1944H126.179C125.986 50.1604 125.6 51.0022 125.02 51.7198C124.468 52.4098 123.764 52.948 122.909 53.3344C122.053 53.7208 121.073 53.914 119.969 53.914ZM144.611 53.914C142.486 53.914 140.636 53.4862 139.063 52.6306C137.49 51.7474 136.276 50.5054 135.42 48.9046C134.564 47.3038 134.137 45.427 134.137 43.2742C134.137 41.6458 134.371 40.1968 134.84 38.9272C135.337 37.63 136.041 36.5398 136.952 35.6566C137.863 34.7458 138.967 34.0558 140.264 33.5866C141.561 33.0898 143.01 32.8414 144.611 32.8414C145.522 32.8414 146.501 32.9656 147.55 33.214C148.627 33.4624 149.634 33.8764 150.572 34.456C151.014 34.732 151.304 35.0632 151.442 35.4496C151.58 35.836 151.607 36.2362 151.525 36.6502C151.442 37.0366 151.262 37.3816 150.986 37.6852C150.738 37.9612 150.421 38.1406 150.034 38.2234C149.648 38.2786 149.22 38.182 148.751 37.9336C148.144 37.5748 147.523 37.3126 146.888 37.147C146.253 36.9538 145.646 36.8572 145.066 36.8572C144.155 36.8572 143.355 37.009 142.665 37.3126C141.975 37.5886 141.382 38.0026 140.885 38.5546C140.416 39.079 140.057 39.7414 139.808 40.5418C139.56 41.3422 139.436 42.2668 139.436 43.3156C139.436 45.358 139.919 46.9726 140.885 48.1594C141.878 49.3186 143.272 49.8982 145.066 49.8982C145.646 49.8982 146.239 49.8154 146.846 49.6498C147.481 49.4842 148.116 49.222 148.751 48.8632C149.22 48.6148 149.634 48.532 149.993 48.6148C150.379 48.6976 150.697 48.8908 150.945 49.1944C151.193 49.4704 151.345 49.8154 151.4 50.2294C151.456 50.6158 151.4 51.0022 151.235 51.3886C151.097 51.775 150.821 52.0924 150.407 52.3408C149.496 52.8928 148.53 53.293 147.509 53.5414C146.488 53.7898 145.522 53.914 144.611 53.914ZM156.659 53.8312C155.831 53.8312 155.196 53.6104 154.754 53.1688C154.313 52.6996 154.092 52.0372 154.092 51.1816V26.59C154.092 25.7344 154.313 25.0858 154.754 24.6442C155.196 24.2026 155.831 23.9818 156.659 23.9818C157.487 23.9818 158.121 24.2026 158.563 24.6442C159.032 25.0858 159.267 25.7344 159.267 26.59V41.8666H159.35L166.181 34.663C166.733 34.111 167.216 33.6832 167.63 33.3796C168.044 33.076 168.609 32.9242 169.327 32.9242C170.045 32.9242 170.583 33.1174 170.942 33.5038C171.328 33.8626 171.521 34.3042 171.521 34.8286C171.521 35.353 171.273 35.8774 170.776 36.4018L163.572 44.0194V41.8666L171.48 50.395C171.977 50.9194 172.197 51.4576 172.142 52.0096C172.115 52.534 171.894 52.9756 171.48 53.3344C171.066 53.6656 170.541 53.8312 169.907 53.8312C169.134 53.8312 168.513 53.6794 168.044 53.3758C167.602 53.0722 167.105 52.6168 166.553 52.0096L159.35 44.4748H159.267V51.1816C159.267 52.948 158.397 53.8312 156.659 53.8312Z" fill="white"/>
</svg>
