<svg xmlns="http://www.w3.org/2000/svg" width="22.567" height="22.567" viewBox="0 0 22.567 22.567">
  <g id="Group_18373" data-name="Group 18373" transform="translate(-31 -306)">
    <path id="Vector" d="M9,14.25a.75.75,0,1,1,.75-.75.75.75,0,0,1-.75.75Zm1.187-4.768a.753.753,0,0,0-.437.682V10.5a.75.75,0,0,1-1.5,0v-.337A2.26,2.26,0,0,1,9.559,8.119a2.451,2.451,0,0,0,1.316-1.744,1.875,1.875,0,1,0-3.75,0,.75.75,0,1,1-1.5,0,3.375,3.375,0,0,1,6.75,0A3.908,3.908,0,0,1,10.187,9.481Z" transform="translate(33.375 309)" fill="#fff"/>
    <g id="info" transform="translate(30.851 305.85)">
      <g id="Group_18371" data-name="Group 18371" transform="translate(0)">
        <g id="Group_18370" data-name="Group 18370">
          <path id="Subtraction_9" data-name="Subtraction 9" d="M4705.583-3597.2a11.3,11.3,0,0,1-11.284-11.283,11.3,11.3,0,0,1,11.284-11.283,11.3,11.3,0,0,1,11.283,11.283A11.3,11.3,0,0,1,4705.583-3597.2Zm0-21.827a10.556,10.556,0,0,0-10.543,10.543,10.556,10.556,0,0,0,10.543,10.543,10.556,10.556,0,0,0,10.544-10.543A10.556,10.556,0,0,0,4705.583-3619.027Z" transform="translate(-4694.15 3619.917)" fill="#fff"/>
        </g>
      </g>
    </g>
  </g>
</svg>