<svg width="36" height="36" viewBox="0 0 36 36" fill="none" xmlns="http://www.w3.org/2000/svg">
<path d="M18.4781 13.6969C19.7362 13.6969 20.7562 12.6769 20.7562 11.4187C20.7562 10.1606 19.7362 9.14062 18.4781 9.14062C17.2199 9.14062 16.2 10.1606 16.2 11.4187C16.2 12.6769 17.2199 13.6969 18.4781 13.6969Z" fill="white"/>
<path d="M15.075 18.8439L14.6812 18.4502L11.4187 15.1877L11.025 14.7939L9.4781 16.3408L10.6875 17.5502L9.3656 18.9002L10.9687 20.5314L12.3469 19.2096L13.5281 20.3908L15.075 18.8439Z" fill="white"/>
<path d="M18.2813 14.8499C16.5657 14.7374 15.1313 13.3593 15.0188 11.5874L12.2063 14.3999L15.4688 17.6624L18.2813 14.8499Z" fill="white"/>
<path d="M29.925 21.15C29.925 16.2844 26.8875 12.15 22.6406 10.4906L25.9031 7.22813L25.0875 6.4125L27.3656 4.13437L25.7906 2.53125L23.5125 4.80938L22.6406 3.9375L18.6469 7.95937C20.475 8.07187 21.9094 9.5625 21.9094 11.3906C21.9094 12.2063 21.6281 12.9938 21.0938 13.5563C24.2437 14.6531 26.4656 17.6344 26.4656 21.1219C26.4656 25.5375 22.8656 29.1375 18.45 29.1375C15.975 29.1375 13.8094 28.0406 12.3187 26.2688H15.075V22.8656H4.78125V26.2969H8.26875C8.775 27.3938 9.53438 28.2937 10.3219 29.1656H7.00312V33.75H29.925V29.1656H26.6625C28.6594 27.1125 29.925 24.2437 29.925 21.15Z" fill="white"/>
</svg>
