<svg xmlns="http://www.w3.org/2000/svg" width="20.59" height="20.582" viewBox="0 0 20.59 20.582">
  <g id="home" transform="translate(0.153 0.011)">
    <path id="Path_37166" data-name="Path 37166" d="M20.047,7.893,16.79,5.181V3a.634.634,0,1,0-1.267,0V4.123L11.353.651a1.9,1.9,0,0,0-2.433,0L.226,7.893a.634.634,0,0,0,.811.976L9.731,1.623a.634.634,0,0,1,.811,0l7.2,6v10.9a.634.634,0,0,1-.634.634H13.939v-6.97a1.9,1.9,0,0,0-1.9-1.9h-3.8a1.9,1.9,0,0,0-1.9,1.9v6.97H3.167a.634.634,0,0,1-.634-.634v-7.6a.634.634,0,0,0-1.267,0v7.6a1.9,1.9,0,0,0,1.9,1.9h13.94a1.9,1.9,0,0,0,1.9-1.9V8.679l.228.19a.634.634,0,1,0,.811-.976ZM7.6,19.153v-6.97a.634.634,0,0,1,.634-.634h3.8a.634.634,0,0,1,.634.634v6.97Z" transform="translate(0 0)" fill="#858ea9" stroke="#fff" stroke-width="0.3"/>
    <circle id="Ellipse_642" data-name="Ellipse 642" cx="0.634" cy="0.634" r="0.634" transform="translate(8.869 14.718)" fill="#858ea9" stroke="#fff" stroke-width="0.3"/>
  </g>
</svg>