<svg width="214" height="214" viewBox="0 0 214 214" fill="none" xmlns="http://www.w3.org/2000/svg">
<circle cx="107" cy="107" r="107" fill="#C6E3EF" fill-opacity="0.76"/>
<path d="M160 85.4313V154.424H67.2284C65.6745 154.424 64.4176 153.165 64.4176 151.613V75.9267C64.4176 74.3729 65.6745 73.116 67.2284 73.116H101.315C102.058 73.116 102.773 73.4105 103.301 73.9383L111.16 81.7982C111.688 82.326 112.403 82.6205 113.149 82.6205H157.189C158.74 82.6208 160 83.8801 160 85.4313Z" fill="#F9F6F6"/>
<path d="M67.6137 99.3226C67.6137 101.647 66.3224 103.67 64.4176 104.711V93.9343C66.3224 94.9754 67.6137 96.9981 67.6137 99.3226Z" fill="#2699F9"/>
<path d="M101.03 86.5116C104.423 86.5116 107.173 83.7615 107.173 80.369C107.173 76.9765 104.423 74.2263 101.03 74.2263C97.6378 74.2263 94.8877 76.9765 94.8877 80.369C94.8877 83.7615 97.6378 86.5116 101.03 86.5116Z" fill="#2699F9"/>
<path d="M160 85.4311V154.424H150.667V85.4311C150.667 83.8797 149.41 82.6204 147.856 82.6204H157.189C158.74 82.6206 160 83.8799 160 85.4311Z" fill="white"/>
<path d="M110.66 121.552C114.959 121.552 118.444 118.068 118.444 113.769C118.444 109.47 114.959 105.985 110.66 105.985C106.361 105.985 102.877 109.47 102.877 113.769C102.877 118.068 106.361 121.552 110.66 121.552Z" fill="#BCEA73"/>
<path d="M118.442 113.768C118.442 118.068 114.956 121.554 110.66 121.554C109.219 121.554 107.867 121.163 106.711 120.476C109.767 119.772 112.043 117.037 112.043 113.768C112.043 110.502 109.77 107.763 106.715 107.059C107.871 106.376 109.219 105.985 110.66 105.985C114.956 105.985 118.442 109.471 118.442 113.768Z" fill="#99D53B"/>
<path d="M131.335 119.179L160 154.425H65.7534C64.9075 154.425 64.1069 154.044 63.5732 153.388L38.6354 122.725C37.1418 120.889 38.4486 118.142 40.8157 118.142H129.154C130 118.142 130.801 118.523 131.335 119.179Z" fill="#2699F9"/>
<path d="M160 154.424H147.913L119.249 119.179C118.714 118.523 117.913 118.14 117.069 118.14H129.154C130 118.14 130.801 118.523 131.333 119.179L160 154.424Z" fill="#2699F9"/>
<path d="M74.298 118.693C73.2812 118.693 72.457 117.868 72.457 116.852V114.397C72.457 113.38 73.2812 112.556 74.298 112.556C75.3147 112.556 76.1389 113.38 76.1389 114.397V116.852C76.1389 117.868 75.3147 118.693 74.298 118.693Z" fill="#D3E9F3"/>
<path d="M74.298 109.312C73.2812 109.312 72.457 108.487 72.457 107.471V102.853C72.457 101.837 73.2812 101.012 74.298 101.012C75.3147 101.012 76.1389 101.837 76.1389 102.853V107.471C76.1389 108.487 75.3147 109.312 74.298 109.312ZM74.298 97.7679C73.2812 97.7679 72.457 96.9437 72.457 95.927V91.3096C72.457 90.2928 73.2812 89.4686 74.298 89.4686C75.3147 89.4686 76.1389 90.2928 76.1389 91.3096V95.927C76.1389 96.9435 75.3147 97.7679 74.298 97.7679ZM74.298 86.2242C73.2812 86.2242 72.457 85.4 72.457 84.3832V79.7656C72.457 78.7488 73.2812 77.9246 74.298 77.9246C75.3147 77.9246 76.1389 78.7488 76.1389 79.7656V84.3832C76.1389 85.4 75.3147 86.2242 74.298 86.2242ZM74.298 74.6804C73.2812 74.6804 72.457 73.8562 72.457 72.8395V68.2218C72.457 67.2051 73.2812 66.3809 74.298 66.3809C75.3147 66.3809 76.1389 67.2051 76.1389 68.2218V72.8392C76.1389 73.856 75.3147 74.6804 74.298 74.6804Z" fill="#D3E9F3"/>
<path d="M74.2993 63.1367C73.2826 63.1367 72.4584 62.3125 72.4584 61.2957V58.841C72.4584 57.8242 73.2826 57 74.2993 57H76.7541C77.7708 57 78.5951 57.8242 78.5951 58.841C78.5951 59.8577 77.7708 60.6819 76.7541 60.6819H76.1405V61.2955C76.1403 62.3125 75.3161 63.1367 74.2993 63.1367Z" fill="#D3E9F3"/>
<path d="M137.3 60.6819H132.456C131.439 60.6819 130.615 59.8577 130.615 58.841C130.615 57.8242 131.439 57 132.456 57H137.3C138.316 57 139.141 57.8242 139.141 58.841C139.141 59.8577 138.317 60.6819 137.3 60.6819ZM125.19 60.6819H120.347C119.33 60.6819 118.506 59.8577 118.506 58.841C118.506 57.8242 119.33 57 120.347 57H125.19C126.207 57 127.031 57.8242 127.031 58.841C127.031 59.8577 126.207 60.6819 125.19 60.6819ZM113.081 60.6819H108.237C107.221 60.6819 106.396 59.8577 106.396 58.841C106.396 57.8242 107.221 57 108.237 57H113.081C114.098 57 114.922 57.8242 114.922 58.841C114.922 59.8577 114.098 60.6819 113.081 60.6819ZM100.971 60.6819H96.1276C95.1108 60.6819 94.2866 59.8577 94.2866 58.841C94.2866 57.8242 95.1108 57 96.1276 57H100.971C101.988 57 102.812 57.8242 102.812 58.841C102.812 59.8577 101.988 60.6819 100.971 60.6819ZM88.8619 60.6819H84.0181C83.0014 60.6819 82.1772 59.8577 82.1772 58.841C82.1772 57.8242 83.0014 57 84.0181 57H88.8619C89.8787 57 90.7029 57.8242 90.7029 58.841C90.7029 59.8577 89.8787 60.6819 88.8619 60.6819Z" fill="#D3E9F3"/>
<path d="M147.02 63.1367C146.003 63.1367 145.179 62.3125 145.179 61.2957V60.6819H144.565C143.549 60.6819 142.724 59.8577 142.724 58.841C142.724 57.8242 143.549 57 144.565 57H147.02C148.037 57 148.861 57.8242 148.861 58.841V61.2957C148.861 62.3125 148.037 63.1367 147.02 63.1367Z" fill="#D3E9F3"/>
<path d="M147.02 126.287C146.004 126.287 145.179 125.463 145.179 124.447V119.394C145.179 118.378 146.004 117.554 147.02 117.554C148.037 117.554 148.861 118.378 148.861 119.394V124.447C148.861 125.463 148.037 126.287 147.02 126.287ZM147.02 113.657C146.004 113.657 145.179 112.833 145.179 111.816V106.764C145.179 105.748 146.004 104.923 147.02 104.923C148.037 104.923 148.861 105.748 148.861 106.764V111.816C148.861 112.833 148.037 113.657 147.02 113.657ZM147.02 101.027C146.004 101.027 145.179 100.203 145.179 99.1864V94.1341C145.179 93.1173 146.004 92.2931 147.02 92.2931C148.037 92.2931 148.861 93.1173 148.861 94.1341V99.1861C148.861 100.203 148.037 101.027 147.02 101.027ZM147.02 88.397C146.004 88.397 145.179 87.5728 145.179 86.556V81.504C145.179 80.4873 146.004 79.663 147.02 79.663C148.037 79.663 148.861 80.4873 148.861 81.504V86.556C148.861 87.5728 148.037 88.397 147.02 88.397ZM147.02 75.7669C146.004 75.7669 145.179 74.9427 145.179 73.9259V68.8739C145.179 67.8572 146.004 67.033 147.02 67.033C148.037 67.033 148.861 67.8572 148.861 68.8739V73.9259C148.861 74.9425 148.037 75.7669 147.02 75.7669Z" fill="#D3E9F3"/>
<path d="M147.02 136.32C146.004 136.32 145.179 135.496 145.179 134.479V132.025C145.179 131.008 146.004 130.184 147.02 130.184C148.037 130.184 148.861 131.008 148.861 132.025V134.479C148.861 135.496 148.037 136.32 147.02 136.32Z" fill="#D3E9F3"/>
<path d="M101.03 80.369C104.423 80.369 107.173 77.6189 107.173 74.2264C107.173 70.8339 104.423 68.0837 101.03 68.0837C97.6378 68.0837 94.8877 70.8339 94.8877 74.2264C94.8877 77.6189 97.6378 80.369 101.03 80.369Z" fill="#A8E7EF"/>
<path d="M107.172 74.2257C107.172 77.6193 104.421 80.3702 101.03 80.3702C99.8937 80.3702 98.8269 80.0614 97.9147 79.5198C100.326 78.9641 102.123 76.8055 102.123 74.2257C102.123 71.6487 100.329 69.4875 97.9176 68.9315C98.83 68.3926 99.8937 68.0837 101.03 68.0837C104.421 68.084 107.172 70.8347 107.172 74.2257Z" fill="#70D9E6"/>
<path d="M61.4717 99.8903C64.8642 99.8903 67.6144 97.1401 67.6144 93.7476C67.6144 90.3551 64.8642 87.605 61.4717 87.605C58.0793 87.605 55.3291 90.3551 55.3291 93.7476C55.3291 97.1401 58.0793 99.8903 61.4717 99.8903Z" fill="#64B9FC"/>
<path d="M67.6136 93.7469C67.6136 97.1405 64.8626 99.8915 61.4719 99.8915C60.3351 99.8915 59.2683 99.5827 58.3561 99.041C60.7673 98.4854 62.5639 96.3268 62.5639 93.7469C62.5639 91.1699 60.7702 89.0087 58.359 88.4528C59.2714 87.9138 60.3351 87.605 61.4719 87.605C64.8626 87.6052 67.6136 90.3559 67.6136 93.7469Z" fill="#31A7FB"/>
<path d="M121.047 94.962L122.356 93.6534C123.075 92.9345 123.075 91.7688 122.356 91.0497C121.637 90.3308 120.471 90.3308 119.752 91.0497L118.443 92.3583L117.135 91.0497C116.416 90.3308 115.25 90.3308 114.531 91.0497C113.812 91.7686 113.812 92.9342 114.531 93.6534L115.84 94.962L114.531 96.2706C113.812 96.9895 113.812 98.1552 114.531 98.8743C114.891 99.2339 115.362 99.4136 115.833 99.4136C116.304 99.4136 116.775 99.2337 117.135 98.8743L118.443 97.5657L119.752 98.8743C120.111 99.2339 120.582 99.4136 121.054 99.4136C121.525 99.4136 121.996 99.2337 122.355 98.8743C123.074 98.1554 123.074 96.9898 122.355 96.2706L121.047 94.962Z" fill="#A8E7EF"/>
<path d="M61.6237 62.533L62.9324 61.2244C63.6515 60.5055 63.6515 59.3398 62.9324 58.6207C62.2135 57.9018 61.0478 57.9018 60.3287 58.6207L59.02 59.9294L57.7114 58.6207C56.9925 57.9018 55.8268 57.9018 55.1077 58.6207C54.3886 59.3396 54.3886 60.5053 55.1077 61.2244L56.4163 62.533L55.1079 63.8417C54.3888 64.5606 54.3888 65.7263 55.1079 66.4454C55.4675 66.8049 55.9386 66.9846 56.4097 66.9846C56.8808 66.9846 57.3521 66.8047 57.7114 66.4454L59.02 65.1367L60.3287 66.4454C60.6882 66.8049 61.1593 66.9846 61.6304 66.9846C62.1015 66.9846 62.5728 66.8047 62.9321 66.4454C63.6513 65.7265 63.6513 64.5608 62.9321 63.8417L61.6237 62.533Z" fill="#BCEA73"/>
<path d="M138.656 146.158H113.859C113.093 146.158 112.37 145.8 111.906 145.19L105.551 136.84C104.936 136.032 105.512 134.869 106.528 134.869H131.325C132.091 134.869 132.814 135.228 133.278 135.838L139.633 144.188C140.248 144.995 139.672 146.158 138.656 146.158Z" fill="#F8F3F1"/>
<path d="M138.656 146.156H130.678C131.694 146.156 132.271 144.995 131.655 144.185L125.299 135.837C124.836 135.226 124.114 134.867 123.348 134.867H131.323C132.092 134.867 132.813 135.226 133.277 135.837L139.633 144.185C140.246 144.996 139.672 146.156 138.656 146.156Z" fill="#EFE2DD"/>
<path d="M99.0001 147.998H87.7361C86.7194 147.998 85.8951 147.174 85.8951 146.157C85.8951 145.14 86.7194 144.316 87.7361 144.316H99.0001C100.017 144.316 100.841 145.14 100.841 146.157C100.841 147.174 100.017 147.998 99.0001 147.998Z" fill="#F8F3F1"/>
<path d="M94.8894 141.891H90.1083C89.0916 141.891 88.2673 141.067 88.2673 140.05C88.2673 139.034 89.0916 138.209 90.1083 138.209H94.8894C95.9061 138.209 96.7304 139.034 96.7304 140.05C96.7306 141.067 95.9064 141.891 94.8894 141.891Z" fill="#F8F3F1"/>
</svg>
