<svg width="56" height="51" viewBox="0 0 56 51" fill="none" xmlns="http://www.w3.org/2000/svg">
<g clip-path="url(#clip0_106_26)">
<path d="M10 40C6.13401 40 3 36.866 3 33L3 25.5C3 11.4167 14.4167 -1.86995e-06 28.5 -2.48555e-06V-2.48555e-06C42.5833 -3.10115e-06 54 11.4167 54 25.5L54 33C54 36.866 50.866 40 47 40L10 40Z" fill="#B6E3FF"/>
<path fill-rule="evenodd" clip-rule="evenodd" d="M25.027 15.875C27.3162 15.5856 29.6497 15.5439 32.027 15.75C32.8512 15.8009 33.6012 16.0093 34.277 16.375C31.4642 15.9555 28.631 15.7889 25.777 15.875C25.527 15.875 25.277 15.875 25.027 15.875Z" fill="#C498A5"/>
<path fill-rule="evenodd" clip-rule="evenodd" d="M25.027 15.875C25.277 15.875 25.527 15.875 25.777 15.875C24.4121 16.2377 22.9955 16.4877 21.527 16.625C22.6175 16.164 23.7841 15.914 25.027 15.875Z" fill="#BD5B60"/>
<path fill-rule="evenodd" clip-rule="evenodd" d="M34.277 16.375C35.0837 16.419 35.8337 16.5857 36.527 16.875C36.1692 16.9702 35.961 17.2202 35.902 17.625C35.457 17.0515 34.9152 16.6348 34.277 16.375Z" fill="#C43535"/>
<path fill-rule="evenodd" clip-rule="evenodd" d="M36.777 16.875C37.3765 16.8149 37.8765 16.9815 38.277 17.375C37.7055 17.3513 37.2055 17.1846 36.777 16.875Z" fill="#BE7079"/>
<path fill-rule="evenodd" clip-rule="evenodd" d="M20.2769 16.875C19.7733 17.231 19.19 17.3976 18.5269 17.375C19.0305 17.0191 19.6139 16.8524 20.2769 16.875Z" fill="#BA4851"/>
<path fill-rule="evenodd" clip-rule="evenodd" d="M25.7769 15.875C28.6309 15.7889 31.4642 15.9555 34.2769 16.375C34.9152 16.6348 35.4569 17.0515 35.9019 17.625C35.9609 17.2202 36.1692 16.9702 36.5269 16.875C36.6102 16.875 36.6937 16.875 36.7769 16.875C37.2054 17.1846 37.7054 17.3513 38.2769 17.375C41.0324 18.2946 43.6159 19.5446 46.0269 21.125C46.3797 21.7285 46.8797 22.1452 47.5269 22.375C48.0469 22.8933 48.4634 23.4767 48.7769 24.125C48.8352 24.5155 49.0019 24.8488 49.2769 25.125C49.1102 25.2083 48.9437 25.2918 48.7769 25.375C48.4882 25.3555 48.1549 25.272 47.7769 25.125C48.0247 24.8337 48.2747 24.542 48.5269 24.25C48.3187 23.8039 48.0687 23.8039 47.7769 24.25C47.1994 24.3742 46.6162 24.4158 46.0269 24.375C46.1729 23.6788 45.9229 23.2621 45.2769 23.125C44.1937 23.7083 43.3602 24.5417 42.7769 25.625C42.4444 25.292 42.0277 25.0838 41.5269 25C41.3389 24.8323 41.2554 24.624 41.2769 24.375C41.1117 24.0706 40.9449 23.7373 40.7769 23.375C40.5554 23.5813 40.4722 23.8313 40.5269 24.125C39.6434 24.1599 38.9767 23.8265 38.5269 23.125C38.8602 21.9583 38.8602 20.7917 38.5269 19.625C37.9967 19.5813 37.4967 19.6647 37.0269 19.875C36.5269 20.0417 36.0269 20.2083 35.5269 20.375C35.6457 19.7295 35.4789 19.2295 35.0269 18.875C35.0547 18.7207 35.1379 18.5957 35.2769 18.5C34.3602 18.3333 33.4437 18.3333 32.5269 18.5C32.2587 18.8282 32.0919 19.2032 32.0269 19.625C32.0629 20.2212 32.1464 20.8045 32.2769 21.375C32.2769 21.7083 32.2769 22.0417 32.2769 22.375C32.6937 22.375 33.1102 22.375 33.5269 22.375C33.7597 22.7583 33.9264 23.175 34.0269 23.625C33.6867 24.682 33.4367 25.7653 33.2769 26.875C33.1102 26.0058 32.9434 25.1723 32.7769 24.375C32.7769 23.875 32.7769 23.375 32.7769 22.875C30.8972 22.7938 29.0639 22.8771 27.2769 23.125C27.2769 23.2083 27.2769 23.2917 27.2769 23.375C27.0269 23.4583 26.8602 23.625 26.7769 23.875C26.2134 24.1038 25.7134 24.4371 25.2769 24.875C25.1102 25.625 24.9436 26.375 24.7769 27.125C24.72 26.1525 24.8034 25.194 25.0269 24.25C25.388 23.7414 25.888 23.5331 26.5269 23.625C26.8309 22.9825 26.9977 22.3575 27.0269 21.75C26.5337 21.6261 26.0337 21.5845 25.5269 21.625C25.484 21.3771 25.5674 21.2104 25.7769 21.125C26.1102 21.4583 26.4437 21.4583 26.7769 21.125C27.0104 20.8581 27.0939 20.5248 27.0269 20.125C27.3602 20.125 27.6937 20.125 28.0269 20.125C28.0269 20.5417 28.0269 20.9583 28.0269 21.375C28.4267 21.442 28.7599 21.3586 29.0269 21.125C29.0269 20.125 29.0269 19.125 29.0269 18.125C27.9272 17.9522 26.8022 17.7855 25.6519 17.625C25.6082 18.5528 25.4832 19.4694 25.2769 20.375C25.0856 20.097 24.8356 19.9304 24.5269 19.875C24.5269 19.7917 24.5269 19.7083 24.5269 19.625C23.9243 17.5919 22.841 17.3419 21.2769 18.875C21.6993 19.6625 21.6159 20.3291 21.0269 20.875C20.5787 20.3935 20.3287 19.8102 20.2769 19.125C18.9635 18.9423 18.4218 19.5256 18.6519 20.875C18.1683 19.9443 17.46 19.6943 16.5269 20.125C16.3407 20.6679 16.299 21.2512 16.4019 21.875C16.2342 21.6869 16.0259 21.6036 15.7769 21.625C15.2557 20.9401 14.839 20.9818 14.5269 21.75C15.1686 22.4088 15.502 23.2005 15.5269 24.125C15.1575 24.1905 14.8241 24.1072 14.5269 23.875C14.1211 23.3022 13.6627 22.8022 13.1519 22.375C12.832 22.4034 12.6236 22.57 12.5269 22.875C12.89 23.2349 13.14 23.6516 13.2769 24.125C13.4889 24.9235 13.1556 25.0903 12.2769 24.625C12.2622 24.0694 11.9706 23.8194 11.4019 23.875C10.6819 24.0526 10.1402 24.4693 9.77692 25.125C9.26397 25.2633 9.18062 25.5133 9.52692 25.875C9.53677 26.1458 9.62012 26.3958 9.77692 26.625C9.36962 26.593 9.03629 26.843 8.77692 27.375C8.42682 26.8045 8.59349 26.4295 9.27692 26.25C8.86024 26.1668 8.44359 26.0833 8.02692 26C7.91937 25.77 7.83604 25.5618 7.77692 25.375C7.59079 26.088 7.17412 26.588 6.52692 26.875C6.52692 26.7083 6.52692 26.5418 6.52692 26.375C6.87849 26.2568 7.04517 26.0068 7.02692 25.625C7.40592 24.8667 7.90592 24.2001 8.52692 23.625C8.94359 23.375 9.27692 23.0417 9.52692 22.625C12.0216 20.055 15.0216 18.305 18.5269 17.375C19.19 17.3976 19.7733 17.231 20.2769 16.875C20.6316 16.6372 21.0482 16.5539 21.5269 16.625C22.9954 16.4877 24.412 16.2377 25.7769 15.875Z" fill="#CF1613"/>
<path fill-rule="evenodd" clip-rule="evenodd" d="M29.027 18.125C28.777 18.125 28.527 18.125 28.277 18.125C28.277 18.4583 28.277 18.7917 28.277 19.125C27.777 19.125 27.277 19.125 26.777 19.125C26.777 18.7917 26.777 18.4583 26.777 18.125C26.527 18.125 26.277 18.125 26.027 18.125C25.7811 19.0746 25.6978 20.0746 25.777 21.125C25.5674 21.2104 25.4841 21.3771 25.527 21.625C25.4437 21.625 25.3603 21.625 25.277 21.625C25.3447 21.1551 25.178 20.8217 24.777 20.625C24.7628 20.3477 24.6794 20.0977 24.527 19.875C24.8357 19.9303 25.0857 20.097 25.277 20.375C25.4833 19.4694 25.6083 18.5527 25.652 17.625C26.8022 17.7855 27.9272 17.9522 29.027 18.125Z" fill="#D0470B"/>
<path fill-rule="evenodd" clip-rule="evenodd" d="M35.0269 18.875C34.2757 18.5691 33.5257 18.5691 32.7769 18.875C32.4437 19.2917 32.4437 19.7083 32.7769 20.125C33.1667 20.2684 33.5417 20.4351 33.9019 20.625C34.0892 20.9088 34.0477 21.1588 33.7769 21.375C33.3842 20.8963 32.8842 20.6463 32.2769 20.625C32.2769 20.875 32.2769 21.125 32.2769 21.375C32.1464 20.8045 32.0629 20.2212 32.0269 19.625C32.0919 19.2032 32.2587 18.8282 32.5269 18.5C33.4437 18.3333 34.3602 18.3333 35.2769 18.5C35.1379 18.5957 35.0547 18.7207 35.0269 18.875Z" fill="#C83D04"/>
<path fill-rule="evenodd" clip-rule="evenodd" d="M26.027 18.125C26.277 18.125 26.527 18.125 26.777 18.125C26.777 18.4583 26.777 18.7917 26.777 19.125C27.277 19.125 27.777 19.125 28.277 19.125C28.277 18.7917 28.277 18.4583 28.277 18.125C28.527 18.125 28.777 18.125 29.027 18.125C29.027 19.125 29.027 20.125 29.027 21.125C28.777 21.125 28.527 21.125 28.277 21.125C28.277 20.7083 28.277 20.2917 28.277 19.875C27.777 19.875 27.277 19.875 26.777 19.875C26.777 20.2917 26.777 20.7083 26.777 21.125C26.527 21.125 26.277 21.125 26.027 21.125C26.027 20.125 26.027 19.125 26.027 18.125Z" fill="#FDEA14"/>
<path fill-rule="evenodd" clip-rule="evenodd" d="M24.527 19.625C24.527 19.7083 24.527 19.7917 24.527 19.875C24.6795 20.0978 24.7628 20.3478 24.777 20.625C24.8098 20.8441 24.7264 21.0108 24.527 21.125C23.9089 20.8084 23.3256 20.8084 22.777 21.125C22.777 21.375 22.777 21.625 22.777 21.875C22.4437 21.875 22.1104 21.875 21.777 21.875C21.7864 20.6822 21.9531 19.5155 22.277 18.375C22.803 18.3003 23.303 18.3836 23.777 18.625C24.0322 18.9754 24.2822 19.3087 24.527 19.625Z" fill="#FBDD1B"/>
<path fill-rule="evenodd" clip-rule="evenodd" d="M35.027 19.125C35.253 19.3022 35.3362 19.5522 35.277 19.875C34.9542 19.8157 34.7042 19.899 34.527 20.125C34.102 19.996 33.7687 19.746 33.527 19.375C33.652 19.2917 33.777 19.2083 33.902 19.125C34.152 19.2917 34.402 19.4583 34.652 19.625C34.9095 19.541 35.0345 19.3743 35.027 19.125Z" fill="#D67919"/>
<path fill-rule="evenodd" clip-rule="evenodd" d="M23.027 19.375C23.521 19.6068 23.6043 19.9401 23.277 20.375C23.0448 20.0778 22.9615 19.7444 23.027 19.375Z" fill="#A55301"/>
<path fill-rule="evenodd" clip-rule="evenodd" d="M35.027 18.875C35.027 18.9583 35.027 19.0417 35.027 19.125C35.0345 19.3743 34.9095 19.541 34.652 19.625C34.402 19.4583 34.152 19.2917 33.902 19.125C33.777 19.2083 33.652 19.2917 33.527 19.375C33.7687 19.746 34.102 19.996 34.527 20.125C35.419 20.4923 35.5025 21.0339 34.777 21.75C33.8647 21.9907 33.0315 21.8657 32.277 21.375C32.277 21.125 32.277 20.875 32.277 20.625C32.8842 20.6462 33.3842 20.8962 33.777 21.375C34.0477 21.1587 34.0892 20.9087 33.902 20.625C33.5417 20.435 33.1667 20.2684 32.777 20.125C32.4437 19.7083 32.4437 19.2917 32.777 18.875C33.5257 18.5691 34.2757 18.5691 35.027 18.875Z" fill="#FBD91F"/>
<path fill-rule="evenodd" clip-rule="evenodd" d="M26.027 18.125C26.027 19.125 26.027 20.125 26.027 21.125C26.277 21.125 26.527 21.125 26.777 21.125C26.4437 21.4583 26.1102 21.4583 25.777 21.125C25.6978 20.0746 25.7811 19.0746 26.027 18.125Z" fill="#EFA318"/>
<path fill-rule="evenodd" clip-rule="evenodd" d="M24.777 20.625C25.178 20.8218 25.3447 21.1551 25.277 21.625C24.481 21.3393 23.6477 21.1727 22.777 21.125C23.3256 20.8084 23.9089 20.8084 24.527 21.125C24.7264 21.0108 24.8097 20.8441 24.777 20.625Z" fill="#F8C01E"/>
<path fill-rule="evenodd" clip-rule="evenodd" d="M29.027 21.125C28.76 21.3586 28.4268 21.442 28.027 21.375C28.027 20.9583 28.027 20.5417 28.027 20.125C27.6938 20.125 27.3603 20.125 27.027 20.125C27.094 20.5247 27.0105 20.8581 26.777 21.125C26.777 20.7083 26.777 20.2917 26.777 19.875C27.277 19.875 27.777 19.875 28.277 19.875C28.277 20.2917 28.277 20.7083 28.277 21.125C28.527 21.125 28.777 21.125 29.027 21.125Z" fill="#E89125"/>
<path fill-rule="evenodd" clip-rule="evenodd" d="M46.027 21.125C46.6743 21.3548 47.1743 21.7715 47.527 22.375C46.8798 22.1451 46.3798 21.7285 46.027 21.125Z" fill="#C49DAC"/>
<path fill-rule="evenodd" clip-rule="evenodd" d="M40.777 20.625C41.044 20.3914 41.3772 20.3081 41.777 20.375C41.777 20.7083 41.777 21.0417 41.777 21.375C42.2557 21.3039 42.6722 21.3872 43.027 21.625C42.5517 21.6083 42.0935 21.6916 41.652 21.875C41.527 21.7917 41.402 21.7083 41.277 21.625C41.4635 21.316 41.5467 20.9826 41.527 20.625C41.277 20.625 41.027 20.625 40.777 20.625Z" fill="#D15F0C"/>
<path fill-rule="evenodd" clip-rule="evenodd" d="M38.527 19.625C38.6085 20.721 38.525 21.8043 38.277 22.875C38.1167 22.5016 37.8667 22.2516 37.527 22.125C37.0517 22.1083 36.5935 22.1916 36.152 22.375C35.832 22.3466 35.6237 22.18 35.527 21.875C36.0292 21.2009 36.5292 20.5342 37.027 19.875C37.4967 19.6646 37.9967 19.5813 38.527 19.625Z" fill="#FCE018"/>
<path fill-rule="evenodd" clip-rule="evenodd" d="M37.527 20.375C37.966 20.638 38.1327 21.0547 38.027 21.625C37.777 21.625 37.527 21.625 37.277 21.625C37.3092 21.196 37.3925 20.7793 37.527 20.375Z" fill="#DE9607"/>
<path fill-rule="evenodd" clip-rule="evenodd" d="M40.777 20.625C41.027 20.625 41.277 20.625 41.527 20.625C41.5467 20.9826 41.4635 21.316 41.277 21.625C41.402 21.7083 41.527 21.7917 41.652 21.875C42.0935 21.6916 42.5517 21.6083 43.027 21.625C43.601 21.701 43.6842 21.951 43.277 22.375C42.9437 22.375 42.6102 22.375 42.277 22.375C42.4157 23.2531 42.249 24.0031 41.777 24.625C41.6102 24.5417 41.4437 24.4583 41.277 24.375C41.277 23.9583 41.277 23.5417 41.277 23.125C40.8772 23.0581 40.544 23.1414 40.277 23.375C40.0277 23.3825 39.861 23.2575 39.777 23C39.8992 22.7154 39.9825 22.4237 40.027 22.125C40.1457 21.5541 40.3957 21.0541 40.777 20.625Z" fill="#FBE116"/>
<path fill-rule="evenodd" clip-rule="evenodd" d="M35.027 19.125C35.027 19.0417 35.027 18.9583 35.027 18.875C35.479 19.2295 35.6457 19.7295 35.527 20.375C36.027 20.2083 36.527 20.0417 37.027 19.875C36.5292 20.5342 36.0292 21.2009 35.527 21.875C35.6237 22.18 35.832 22.3466 36.152 22.375C36.5935 22.1916 37.0517 22.1083 37.527 22.125C37.6795 22.3478 37.7627 22.5978 37.777 22.875C36.3692 22.647 34.9525 22.4803 33.527 22.375C33.1102 22.375 32.6937 22.375 32.277 22.375C32.277 22.0417 32.277 21.7083 32.277 21.375C33.0315 21.8658 33.8647 21.9908 34.777 21.75C35.5025 21.034 35.419 20.4923 34.527 20.125C34.7042 19.899 34.9542 19.8157 35.277 19.875C35.3362 19.5523 35.253 19.3023 35.027 19.125Z" fill="#C72E05"/>
<path fill-rule="evenodd" clip-rule="evenodd" d="M21.027 20.875C21.027 21.2083 21.027 21.5417 21.027 21.875C20.4973 21.8831 20.1639 21.6331 20.027 21.125C20.0366 20.8109 19.9116 20.5609 19.652 20.375C19.5276 21.0365 19.486 21.7032 19.527 22.375C19.277 22.375 19.027 22.375 18.777 22.375C18.777 22.2083 18.6937 22.125 18.527 22.125C18.384 21.7567 18.1756 21.4233 17.902 21.125C17.7523 21.6337 17.8773 22.0504 18.277 22.375C18.277 22.625 18.277 22.875 18.277 23.125C18.027 23.125 17.777 23.125 17.527 23.125C17.147 22.1517 16.8137 21.1517 16.527 20.125C17.4601 19.6943 18.1684 19.9443 18.652 20.875C18.4219 19.5256 18.9635 18.9422 20.277 19.125C20.3288 19.8101 20.5788 20.3935 21.027 20.875Z" fill="#F9D81B"/>
<path fill-rule="evenodd" clip-rule="evenodd" d="M24.527 19.625C24.2822 19.3087 24.0322 18.9753 23.777 18.625C23.303 18.3836 22.803 18.3003 22.277 18.375C21.9531 19.5155 21.7864 20.6821 21.777 21.875C22.1103 21.875 22.4437 21.875 22.777 21.875C21.3905 22.3687 19.9738 22.827 18.527 23.25C17.5761 23.664 16.6594 24.1224 15.777 24.625C16.3213 24.4086 16.5713 23.992 16.527 23.375C16.3956 22.7427 16.1456 22.1594 15.777 21.625C16.026 21.6035 16.2343 21.6869 16.402 21.875C16.2991 21.2512 16.3408 20.6679 16.527 20.125C16.8137 21.1517 17.147 22.1517 17.527 23.125C17.777 23.125 18.027 23.125 18.277 23.125C18.277 22.875 18.277 22.625 18.277 22.375C18.277 22.2083 18.3603 22.125 18.527 22.125C18.6937 22.125 18.777 22.2083 18.777 22.375C19.0439 22.6086 19.3772 22.6919 19.777 22.625C19.7033 22.0661 19.7866 21.5661 20.027 21.125C20.1639 21.6331 20.4973 21.8831 21.027 21.875C21.027 21.5417 21.027 21.2083 21.027 20.875C21.616 20.3291 21.6994 19.6625 21.277 18.875C22.841 17.3419 23.9244 17.5919 24.527 19.625Z" fill="#C93207"/>
<path fill-rule="evenodd" clip-rule="evenodd" d="M20.027 21.125C19.7866 21.5662 19.7033 22.0662 19.777 22.625C19.3772 22.692 19.0439 22.6086 18.777 22.375C19.027 22.375 19.277 22.375 19.527 22.375C19.486 21.7032 19.5276 21.0365 19.652 20.375C19.9116 20.5609 20.0366 20.811 20.027 21.125Z" fill="#E9A81B"/>
<path fill-rule="evenodd" clip-rule="evenodd" d="M18.5269 22.125C18.3602 22.125 18.2769 22.2083 18.2769 22.375C17.8773 22.0504 17.7523 21.6337 17.9019 21.125C18.1756 21.4233 18.3839 21.7567 18.5269 22.125Z" fill="#C9710C"/>
<path fill-rule="evenodd" clip-rule="evenodd" d="M9.52704 22.625C9.27704 23.0417 8.94371 23.375 8.52704 23.625C8.61036 23.0417 8.94371 22.7083 9.52704 22.625Z" fill="#BD636A"/>
<path fill-rule="evenodd" clip-rule="evenodd" d="M38.527 19.625C38.8602 20.7917 38.8602 21.9583 38.527 23.125C38.2042 23.1843 37.9542 23.101 37.777 22.875C37.7627 22.5977 37.6795 22.3477 37.527 22.125C37.8667 22.2516 38.1167 22.5016 38.277 22.875C38.525 21.8043 38.6085 20.721 38.527 19.625Z" fill="#F0A61E"/>
<path fill-rule="evenodd" clip-rule="evenodd" d="M43.277 22.375C43.0997 22.601 42.8497 22.6843 42.527 22.625C42.527 23.375 42.527 24.125 42.527 24.875C42.2042 24.9343 41.9542 24.851 41.777 24.625C42.249 24.0031 42.4157 23.2531 42.277 22.375C42.6102 22.375 42.9437 22.375 43.277 22.375Z" fill="#DA6F0C"/>
<path fill-rule="evenodd" clip-rule="evenodd" d="M40.027 22.125C39.9825 22.4237 39.8992 22.7154 39.777 23C39.861 23.2575 40.0277 23.3825 40.277 23.375C39.8787 23.7168 39.5455 23.6335 39.277 23.125C39.4107 22.6847 39.6607 22.3514 40.027 22.125Z" fill="#F4B121"/>
<path fill-rule="evenodd" clip-rule="evenodd" d="M45.277 23.125C45.505 23.4345 45.5468 23.7679 45.402 24.125C44.8603 24.6667 44.3188 25.2082 43.777 25.75C43.42 25.8947 43.0865 25.853 42.777 25.625C43.3603 24.5417 44.1938 23.7083 45.277 23.125Z" fill="#FCDA1A"/>
<path fill-rule="evenodd" clip-rule="evenodd" d="M15.777 21.625C16.1456 22.1594 16.3956 22.7427 16.527 23.375C16.5713 23.992 16.3213 24.4086 15.777 24.625C14.8079 25.0645 13.9746 24.8979 13.277 24.125C13.1401 23.6516 12.8901 23.2349 12.527 22.875C12.6237 22.57 12.832 22.4034 13.152 22.375C13.6628 22.8022 14.1211 23.3022 14.527 23.875C14.8242 24.1072 15.1575 24.1905 15.527 24.125C15.502 23.2005 15.1687 22.4088 14.527 21.75C14.8391 20.9817 15.2557 20.9401 15.777 21.625Z" fill="#FBDA1B"/>
<path fill-rule="evenodd" clip-rule="evenodd" d="M12.277 24.625C12.6466 25.091 13.1466 25.4242 13.777 25.625C13.7461 25.7767 13.6628 25.86 13.527 25.875C13.1641 25.6745 12.7475 25.5495 12.277 25.5C12.1296 25.1227 11.9629 24.7476 11.777 24.375C11.5777 24.4892 11.4943 24.6559 11.527 24.875C11.1937 24.875 10.8604 24.875 10.527 24.875C10.527 25.125 10.527 25.375 10.527 25.625C10.3465 25.3622 10.0965 25.1955 9.77704 25.125C10.1404 24.4692 10.682 24.0526 11.402 23.875C11.9707 23.8194 12.2624 24.0694 12.277 24.625Z" fill="#F8CA21"/>
<path fill-rule="evenodd" clip-rule="evenodd" d="M11.527 24.875C11.4785 25.478 11.1451 25.728 10.527 25.625C10.527 25.375 10.527 25.125 10.527 24.875C10.8603 24.875 11.1937 24.875 11.527 24.875Z" fill="#C45B01"/>
<path fill-rule="evenodd" clip-rule="evenodd" d="M13.527 25.875C12.8794 26.032 12.2128 26.1152 11.527 26.125C11.6991 26.4637 11.9491 26.7137 12.277 26.875C12.2216 27.519 11.8883 27.7275 11.277 27.5C10.7262 26.907 10.1429 26.3652 9.52703 25.875C9.18073 25.5132 9.26408 25.2632 9.77703 25.125C10.0965 25.1955 10.3465 25.3622 10.527 25.625C11.1452 25.728 11.4785 25.478 11.527 24.875C11.4943 24.6559 11.5777 24.4892 11.777 24.375C11.9629 24.7476 12.1296 25.1227 12.277 25.5C12.7475 25.5495 13.1641 25.6745 13.527 25.875Z" fill="#FCE21B"/>
<path fill-rule="evenodd" clip-rule="evenodd" d="M13.277 24.125C13.9746 24.8979 14.808 25.0645 15.777 24.625C15.6267 25.604 15.1267 25.979 14.277 25.75C13.7417 26.4082 13.0751 26.7832 12.277 26.875C11.9491 26.7138 11.6991 26.4638 11.527 26.125C12.2128 26.1152 12.8794 26.032 13.527 25.875C13.6628 25.86 13.7461 25.7767 13.777 25.625C13.1466 25.4243 12.6466 25.091 12.277 24.625C13.1557 25.0902 13.489 24.9235 13.277 24.125Z" fill="#C93605"/>
<path fill-rule="evenodd" clip-rule="evenodd" d="M48.777 24.125C49.8437 25.1738 50.5937 26.4238 51.027 27.875C50.4697 27.346 49.9697 26.7628 49.527 26.125C49.2947 25.8277 49.2115 25.4945 49.277 25.125C49.002 24.8488 48.8352 24.5155 48.777 24.125Z" fill="#C63938"/>
<path fill-rule="evenodd" clip-rule="evenodd" d="M7.02705 25.625C7.0453 26.0067 6.87862 26.2568 6.52705 26.375C6.5088 25.9933 6.67547 25.7432 7.02705 25.625Z" fill="#BC8490"/>
<path fill-rule="evenodd" clip-rule="evenodd" d="M45.277 23.125C45.923 23.2621 46.173 23.6787 46.027 24.375C46.6163 24.4158 47.1995 24.3742 47.777 24.25C48.0688 23.8039 48.3188 23.8039 48.527 24.25C48.2748 24.542 48.0248 24.8337 47.777 25.125C48.155 25.272 48.4883 25.3555 48.777 25.375C48.5265 25.7528 48.3598 26.1695 48.277 26.625C47.85 25.9395 47.3083 25.3562 46.652 24.875C46.2565 25.0738 46.2148 25.3655 46.527 25.75C46.0795 26.1835 45.5795 26.5585 45.027 26.875C44.7948 27.1723 44.7115 27.5055 44.777 27.875C45.027 27.875 45.277 27.875 45.527 27.875C44.8948 28.2262 44.478 28.018 44.277 27.25C44.357 26.8368 44.607 26.5868 45.027 26.5C44.9438 26.4167 44.8603 26.3333 44.777 26.25C45.1003 26.1275 45.4338 26.0857 45.777 26.125C45.7413 25.6845 45.8248 25.2677 46.027 24.875C45.902 24.7917 45.777 24.7083 45.652 24.625C44.8605 25.0813 44.319 25.623 44.027 26.25C43.3365 26.5193 42.92 26.311 42.777 25.625C43.0865 25.853 43.42 25.8947 43.777 25.75C44.3188 25.2082 44.8603 24.6667 45.402 24.125C45.5468 23.7679 45.505 23.4345 45.277 23.125Z" fill="#C82B08"/>
<path fill-rule="evenodd" clip-rule="evenodd" d="M48.2769 26.625C48.3317 26.9187 48.2484 27.1688 48.0269 27.375C47.7649 27.1542 47.4732 26.9875 47.1519 26.875C46.5472 27.1415 46.0054 27.475 45.5269 27.875C45.2769 27.875 45.0269 27.875 44.7769 27.875C44.7114 27.5055 44.7947 27.1723 45.0269 26.875C45.5794 26.5585 46.0794 26.1835 46.5269 25.75C46.2147 25.3655 46.2564 25.0738 46.6519 24.875C47.3082 25.3562 47.8499 25.9395 48.2769 26.625Z" fill="#FCDF18"/>
<path fill-rule="evenodd" clip-rule="evenodd" d="M6.27705 27.375C6.29968 28.038 6.133 28.6213 5.77705 29.125C5.75443 28.462 5.9211 27.8788 6.27705 27.375Z" fill="#BA454B"/>
<path fill-rule="evenodd" clip-rule="evenodd" d="M51.0269 28.125C51.4117 28.9663 51.5784 29.8828 51.5269 30.875C51.5262 31.5888 51.4429 32.2555 51.2769 32.875C51.3152 31.2828 51.2319 29.6993 51.0269 28.125Z" fill="#C394A1"/>
<path fill-rule="evenodd" clip-rule="evenodd" d="M5.52698 32.625C5.95305 33.4847 6.28638 34.4013 6.52698 35.375C5.90455 34.5935 5.57123 33.677 5.52698 32.625Z" fill="#C0808E"/>
<path fill-rule="evenodd" clip-rule="evenodd" d="M22.777 21.125C23.6477 21.1726 24.481 21.3393 25.277 21.625C25.3603 21.625 25.4437 21.625 25.527 21.625C26.0338 21.5845 26.5338 21.6261 27.027 21.75C26.9978 22.3575 26.831 22.9825 26.527 23.625C25.8881 23.533 25.3881 23.7414 25.027 24.25C24.8035 25.194 24.7201 26.1525 24.777 27.125C23.1705 26.97 21.6705 27.1367 20.277 27.625C19.9088 28.0987 19.4921 28.5152 19.027 28.875C18.778 28.8535 18.5697 28.937 18.402 29.125C18.1972 30.6702 18.2389 32.1702 18.527 33.625C20.648 33.8732 22.8147 33.9565 25.027 33.875C25.2742 35.2437 25.3576 36.6605 25.277 38.125C26.9823 38.4137 28.7323 38.4552 30.527 38.25C30.9123 37.9072 31.2458 37.5322 31.527 37.125C31.9008 37.0027 32.2343 36.8362 32.527 36.625C32.7718 35.8437 32.8553 35.0105 32.777 34.125C34.3625 34.1665 35.9458 34.125 37.527 34C38.027 33.6667 38.527 33.3332 39.027 33C39.215 32.8322 39.2985 32.624 39.277 32.375C39.358 30.6615 39.2748 28.9947 39.027 27.375C36.9895 27.1267 34.9063 27.0435 32.777 27.125C32.777 26.2082 32.777 25.2917 32.777 24.375C32.9435 25.1722 33.1103 26.0057 33.277 26.875C33.4368 25.7652 33.6868 24.6819 34.027 23.625C33.9265 23.1749 33.7598 22.7583 33.527 22.375C34.9525 22.4803 36.3693 22.6469 37.777 22.875C37.9543 23.101 38.2043 23.1843 38.527 23.125C38.9768 23.8265 39.6435 24.1599 40.527 24.125C40.4723 23.8312 40.5555 23.5812 40.777 23.375C40.945 23.7373 41.1118 24.0706 41.277 24.375C41.2555 24.624 41.339 24.8323 41.527 25C42.0278 25.0837 42.4445 25.292 42.777 25.625C42.92 26.311 43.3365 26.5192 44.027 26.25C44.319 25.623 44.8605 25.0812 45.652 24.625C45.777 24.7083 45.902 24.7917 46.027 24.875C45.8248 25.2677 45.7413 25.6845 45.777 26.125C45.4338 26.0857 45.1003 26.1275 44.777 26.25C44.8603 26.3332 44.9438 26.4167 45.027 26.5C44.607 26.5867 44.357 26.8367 44.277 27.25C44.478 28.018 44.8948 28.2262 45.527 27.875C46.0055 27.475 46.5473 27.1415 47.152 26.875C47.4733 26.9875 47.765 27.1542 48.027 27.375C48.2485 27.1687 48.3318 26.9187 48.277 26.625C48.3598 26.1695 48.5265 25.7527 48.777 25.375C48.9438 25.2917 49.1103 25.2082 49.277 25.125C49.2115 25.4945 49.2948 25.8277 49.527 26.125C49.9698 26.7627 50.4698 27.346 51.027 27.875C51.027 27.9582 51.027 28.0417 51.027 28.125C51.232 29.6992 51.3153 31.2827 51.277 32.875C51.277 33.0417 51.277 33.2082 51.277 33.375C50.749 34.394 50.3323 35.4772 50.027 36.625C49.3558 37.2975 48.7725 38.0475 48.277 38.875C47.9438 39.125 47.6103 39.375 47.277 39.625C46.9338 39.5857 46.6003 39.6275 46.277 39.75C46.3913 39.8535 46.4748 39.9785 46.527 40.125C46.2393 40.4327 45.9478 40.4327 45.652 40.125C45.5688 40.2917 45.4853 40.4582 45.402 40.625C45.114 40.0877 44.739 39.6295 44.277 39.25C44.9595 39.068 45.6263 39.1095 46.277 39.375C47.2315 38.6165 47.4815 37.6582 47.027 36.5C47.1278 36.1317 47.2945 35.7985 47.527 35.5C47.1183 35.365 46.785 35.49 46.527 35.875C46.0185 35.6102 45.5185 35.3602 45.027 35.125C44.8643 34.2925 44.531 34.2092 44.027 34.875C43.497 34.532 43.247 34.6987 43.277 35.375C43.014 35.3377 42.764 35.3792 42.527 35.5C42.7363 35.7527 42.8195 36.0445 42.777 36.375C42.4338 36.3357 42.1003 36.3775 41.777 36.5C42.3885 36.8707 42.305 37.1622 41.527 37.375C41.3055 37.5812 41.2223 37.8312 41.277 38.125C40.7813 38.0392 40.4478 38.206 40.277 38.625C40.1278 38.6837 40.0445 38.8087 40.027 39C40.31 39.4412 40.56 39.8995 40.777 40.375C40.9115 40.7792 40.9948 41.196 41.027 41.625C40.0238 41.415 39.357 40.79 39.027 39.75C38.67 39.6052 38.3365 39.647 38.027 39.875C37.7018 40.221 37.7018 40.596 38.027 41C37.651 41.3727 37.4428 41.831 37.402 42.375C37.1578 41.7245 36.866 41.0995 36.527 40.5C36.3188 40.4582 36.1103 40.4167 35.902 40.375C35.558 40.421 35.3498 40.5877 35.277 40.875C35.0965 40.9795 34.9715 41.146 34.902 41.375C34.0253 40.7505 33.1503 40.7505 32.277 41.375C32.1103 41.375 32.027 41.4582 32.027 41.625C31.7413 42.494 31.6995 43.4105 31.902 44.375C31.9955 44.604 32.1205 44.8125 32.277 45C32.7703 45.1237 33.2703 45.1655 33.777 45.125C33.777 44.7082 33.777 44.2917 33.777 43.875C34.027 43.875 34.277 43.875 34.527 43.875C34.527 44.2082 34.527 44.5417 34.527 44.875C35.1988 44.834 35.8655 44.8757 36.527 45C34.7258 45.6107 32.8925 45.7357 31.027 45.375C30.749 45.1837 30.5823 44.9337 30.527 44.625C30.5138 43.965 30.347 43.34 30.027 42.75C30.113 42.4087 30.2798 42.117 30.527 41.875C30.1103 41.7082 29.6938 41.5417 29.277 41.375C29.5248 41.0837 29.7748 40.792 30.027 40.5C29.9438 40.375 29.8603 40.25 29.777 40.125C29.312 40.7682 28.687 41.185 27.902 41.375C27.6658 41.2737 27.499 41.107 27.402 40.875C27.0095 41.0895 26.5928 41.2562 26.152 41.375C25.4399 41.0542 24.7316 41.0542 24.027 41.375C22.3849 40.7157 20.7183 40.2157 19.027 39.875C18.5043 39.1175 17.7543 38.784 16.777 38.875C16.8061 38.0225 16.3894 37.689 15.527 37.875C15.1823 37.2382 14.7656 37.2382 14.277 37.875C14.2009 36.6805 13.7009 35.7222 12.777 35C11.748 34.9187 10.748 34.7102 9.77701 34.375C9.21099 35.84 9.21099 37.2565 9.77701 38.625C9.59976 38.851 9.34976 38.9342 9.02701 38.875C9.02701 38.5417 9.02701 38.2082 9.02701 37.875C8.59799 37.8427 8.18131 37.7595 7.77701 37.625C7.48786 37.0805 7.15454 36.5805 6.77701 36.125C6.62456 35.9022 6.54124 35.6522 6.52701 35.375C6.28641 34.4012 5.95309 33.4847 5.52701 32.625C5.45841 31.4342 5.54176 30.2675 5.77701 29.125C6.13296 28.6212 6.29964 28.038 6.27701 27.375C6.23411 27.127 6.31746 26.9605 6.52701 26.875C7.17421 26.588 7.59089 26.088 7.77701 25.375C7.83614 25.5617 7.91946 25.77 8.02701 26C8.44369 26.0832 8.86034 26.1667 9.27701 26.25C8.59359 26.4295 8.42691 26.8045 8.77701 27.375C9.03639 26.843 9.36971 26.593 9.77701 26.625C9.62021 26.3957 9.53686 26.1457 9.52701 25.875C10.1429 26.3652 10.7262 26.907 11.277 27.5C11.8882 27.7275 12.2216 27.519 12.277 26.875C13.075 26.7832 13.7417 26.4082 14.277 25.75C15.1267 25.979 15.6267 25.604 15.777 24.625C16.6595 24.1224 17.5761 23.664 18.527 23.25C19.9738 22.827 21.3905 22.3687 22.777 21.875C22.777 21.625 22.777 21.375 22.777 21.125Z" fill="#D20F13"/>
<path fill-rule="evenodd" clip-rule="evenodd" d="M39.0269 32.375C39.1102 32.375 39.1937 32.375 39.2769 32.375C39.2984 32.624 39.2149 32.8322 39.0269 33C38.5269 33.3332 38.0269 33.6667 37.5269 34C35.9457 34.125 34.3624 34.1665 32.7769 34.125C32.8552 35.0105 32.7717 35.8437 32.5269 36.625C32.5269 35.7082 32.5269 34.7917 32.5269 33.875C32.5269 33.7917 32.5269 33.7082 32.5269 33.625C34.1124 33.6665 35.6957 33.625 37.2769 33.5C37.6752 33.2627 38.0084 32.9712 38.2769 32.625C38.5997 32.6842 38.8497 32.601 39.0269 32.375Z" fill="#A32C1D"/>
<path fill-rule="evenodd" clip-rule="evenodd" d="M18.777 29.375C18.777 30.7917 18.777 32.2083 18.777 33.625C20.9062 33.5435 22.9895 33.6268 25.027 33.875C22.8147 33.9565 20.648 33.8732 18.527 33.625C18.4465 32.1605 18.5298 30.7437 18.777 29.375Z" fill="#613D1F"/>
<path fill-rule="evenodd" clip-rule="evenodd" d="M38.2769 32.625C38.0084 32.9712 37.6752 33.2627 37.2769 33.5C35.6957 33.625 34.1124 33.6665 32.5269 33.625C32.5269 33.2918 32.5269 32.9582 32.5269 32.625C34.4437 32.625 36.3602 32.625 38.2769 32.625Z" fill="#1D5C2C"/>
<path fill-rule="evenodd" clip-rule="evenodd" d="M39.027 32.375C38.8497 32.601 38.5997 32.6842 38.277 32.625C36.3602 32.625 34.4437 32.625 32.527 32.625C32.527 32.9582 32.527 33.2917 32.527 33.625C32.527 33.7082 32.527 33.7917 32.527 33.875C32.4437 33.875 32.3602 33.875 32.277 33.875C32.277 33.375 32.277 32.875 32.277 32.375C34.527 32.375 36.777 32.375 39.027 32.375Z" fill="#7DA89F"/>
<path fill-rule="evenodd" clip-rule="evenodd" d="M19.027 28.875C18.9437 29.0418 18.8603 29.2083 18.777 29.375C18.5298 30.7438 18.4464 32.1605 18.527 33.625C18.2389 32.1703 18.1972 30.6703 18.402 29.125C18.5697 28.937 18.778 28.8535 19.027 28.875Z" fill="#962B1E"/>
<path fill-rule="evenodd" clip-rule="evenodd" d="M25.277 24.875C25.277 25.7082 25.277 26.5418 25.277 27.375C23.777 27.375 22.277 27.375 20.777 27.375C20.6103 27.4583 20.4437 27.5417 20.277 27.625C21.6704 27.1368 23.1704 26.97 24.777 27.125C24.9437 26.375 25.1103 25.625 25.277 24.875Z" fill="#AD2F30"/>
<path fill-rule="evenodd" clip-rule="evenodd" d="M26.777 23.875C26.4537 24.324 26.0787 24.7406 25.652 25.125C25.5275 25.8705 25.4858 26.6205 25.527 27.375C25.4437 27.375 25.3603 27.375 25.277 27.375C25.277 26.5418 25.277 25.7083 25.277 24.875C25.7135 24.4371 26.2135 24.1038 26.777 23.875Z" fill="#3F4D23"/>
<path fill-rule="evenodd" clip-rule="evenodd" d="M27.2771 23.375C27.2771 24.7083 27.2771 26.0418 27.2771 27.375C26.6938 27.375 26.1103 27.375 25.5271 27.375C25.4859 26.6205 25.5276 25.8705 25.6521 25.125C26.0788 24.7406 26.4538 24.324 26.7771 23.875C26.8603 23.625 27.0271 23.4583 27.2771 23.375Z" fill="#1B612F"/>
<path fill-rule="evenodd" clip-rule="evenodd" d="M27.277 23.375C27.277 23.2917 27.277 23.2083 27.277 23.125C29.027 23.125 30.777 23.125 32.527 23.125C32.527 24.5417 32.527 25.9583 32.527 27.375C32.28 26.09 32.1967 24.7565 32.277 23.375C30.6102 23.375 28.9437 23.375 27.277 23.375Z" fill="#BC7E89"/>
<path fill-rule="evenodd" clip-rule="evenodd" d="M27.277 23.125C29.064 22.8771 30.8972 22.7937 32.777 22.875C32.777 23.375 32.777 23.875 32.777 24.375C32.777 25.2917 32.777 26.2082 32.777 27.125C34.9062 27.0435 36.9895 27.1267 39.027 27.375C36.8602 27.375 34.6937 27.375 32.527 27.375C32.527 25.9582 32.527 24.5417 32.527 23.125C30.777 23.125 29.027 23.125 27.277 23.125Z" fill="#BA272D"/>
<path fill-rule="evenodd" clip-rule="evenodd" d="M27.277 23.375C28.9437 23.375 30.6102 23.375 32.277 23.375C32.1967 24.7566 32.28 26.09 32.527 27.375C34.6937 27.375 36.8602 27.375 39.027 27.375C39.2747 28.9948 39.358 30.6615 39.277 32.375C39.1937 32.375 39.1102 32.375 39.027 32.375C36.777 32.375 34.527 32.375 32.277 32.375C32.277 32.875 32.277 33.375 32.277 33.875C32.3557 34.8428 32.2725 35.7595 32.027 36.625C30.5745 36.3775 29.0745 36.2943 27.527 36.375C27.6072 35.0763 27.5237 33.8263 27.277 32.625C25.1103 32.625 22.9437 32.625 20.777 32.625C20.777 30.875 20.777 29.125 20.777 27.375C22.277 27.375 23.777 27.375 25.277 27.375C25.3603 27.375 25.4437 27.375 25.527 27.375C26.1102 27.375 26.6937 27.375 27.277 27.375C27.277 26.0418 27.277 24.7083 27.277 23.375Z" fill="#B6E0FA"/>
<path fill-rule="evenodd" clip-rule="evenodd" d="M32.277 33.875C32.3602 33.875 32.4437 33.875 32.527 33.875C32.527 34.7918 32.527 35.7082 32.527 36.625C32.2342 36.8363 31.9007 37.0028 31.527 37.125C31.527 36.9583 31.527 36.7917 31.527 36.625C31.6937 36.625 31.8602 36.625 32.027 36.625C32.2725 35.7595 32.3557 34.8428 32.277 33.875Z" fill="#B05A5B"/>
<path fill-rule="evenodd" clip-rule="evenodd" d="M20.777 27.375C20.777 29.125 20.777 30.875 20.777 32.625C22.9437 32.625 25.1103 32.625 27.277 32.625C27.277 33.9583 27.277 35.2917 27.277 36.625C28.6937 36.625 30.1102 36.625 31.527 36.625C31.527 36.7917 31.527 36.9583 31.527 37.125C31.016 37.2578 30.5992 37.5495 30.277 38C28.6125 38.125 26.9457 38.1665 25.277 38.125C25.3575 36.6605 25.2742 35.2437 25.027 33.875C22.9895 33.6268 20.9062 33.5435 18.777 33.625C18.777 32.2083 18.777 30.7917 18.777 29.375C18.8603 29.2083 18.9437 29.0417 19.027 28.875C19.4921 28.5152 19.9087 28.0987 20.277 27.625C20.4437 27.5417 20.6103 27.4583 20.777 27.375Z" fill="#1D5F2E"/>
<path fill-rule="evenodd" clip-rule="evenodd" d="M27.277 32.625C27.5237 33.8262 27.6072 35.0762 27.527 36.375C29.0745 36.2942 30.5745 36.3775 32.027 36.625C31.8602 36.625 31.6937 36.625 31.527 36.625C30.1102 36.625 28.6937 36.625 27.277 36.625C27.277 35.2917 27.277 33.9583 27.277 32.625Z" fill="#88B2AF"/>
<path fill-rule="evenodd" clip-rule="evenodd" d="M51.277 33.375C51.1477 34.3055 50.9395 35.222 50.652 36.125C50.5477 36.439 50.3395 36.6058 50.027 36.625C50.3322 35.4772 50.749 34.394 51.277 33.375Z" fill="#C3B9CB"/>
<path fill-rule="evenodd" clip-rule="evenodd" d="M6.77698 36.125C7.1545 36.5805 7.48783 37.0805 7.77698 37.625C7.77698 37.7083 7.77698 37.7918 7.77698 37.875C7.16648 37.4698 6.83315 36.8865 6.77698 36.125Z" fill="#C498A5"/>
<path fill-rule="evenodd" clip-rule="evenodd" d="M31.527 37.125C31.2457 37.5322 30.9122 37.9072 30.527 38.25C28.7322 38.4552 26.9822 38.4137 25.277 38.125C26.9457 38.1665 28.6125 38.125 30.277 38C30.5992 37.5495 31.016 37.2578 31.527 37.125Z" fill="#85321E"/>
<path fill-rule="evenodd" clip-rule="evenodd" d="M48.277 38.875C48.2188 39.2655 48.052 39.5988 47.777 39.875C47.6103 39.9583 47.4438 40.0418 47.277 40.125C47.277 39.9583 47.277 39.7918 47.277 39.625C47.6103 39.375 47.9438 39.125 48.277 38.875Z" fill="#C9A1AD"/>
<path fill-rule="evenodd" clip-rule="evenodd" d="M15.5269 37.875C14.2506 38.2217 13.1673 38.8885 12.2769 39.875C12.7671 40.2783 13.3504 40.5283 14.0269 40.625C14.2591 40.9223 14.3424 41.2555 14.2769 41.625C13.8899 41.5447 13.7232 41.2948 13.7769 40.875C12.9334 40.8442 12.1834 40.7192 11.5269 40.5C11.747 40.161 11.8303 39.786 11.7769 39.375C11.2811 39.4607 10.9478 39.294 10.7769 38.875C10.4123 38.8918 10.0789 38.8085 9.77694 38.625C9.21091 37.2565 9.21091 35.84 9.77694 34.375C10.7479 34.7102 11.7479 34.9188 12.7769 35C13.7008 35.7222 14.2008 36.6805 14.2769 37.875C14.7655 37.2383 15.1822 37.2383 15.5269 37.875Z" fill="#C82F07"/>
<path fill-rule="evenodd" clip-rule="evenodd" d="M10.777 38.875C9.13414 37.6902 9.13414 36.482 10.777 35.25C12.3879 35.07 13.3046 35.7782 13.527 37.375C12.7669 37.3985 12.3502 37.0235 12.277 36.25C11.1894 36.0887 10.6477 36.547 10.652 37.625C11.2418 38.2595 11.6168 38.0927 11.777 37.125C12.9416 37.6495 13.0249 38.2745 12.027 39C11.5858 39.16 11.1691 39.1182 10.777 38.875Z" fill="#FCDC19"/>
<path opacity="0.971" fill-rule="evenodd" clip-rule="evenodd" d="M45.027 35.125C45.5185 35.3602 46.0185 35.6102 46.527 35.875C46.785 35.49 47.1183 35.365 47.527 35.5C47.2945 35.7985 47.1278 36.1317 47.027 36.5C47.4815 37.6582 47.2315 38.6165 46.277 39.375C45.6263 39.1095 44.9595 39.068 44.277 39.25C44.739 39.6295 45.114 40.0877 45.402 40.625C45.4853 40.4582 45.5688 40.2917 45.652 40.125C45.9478 40.4327 46.2393 40.4327 46.527 40.125C46.4748 39.9785 46.3913 39.8535 46.277 39.75C46.6003 39.6275 46.9338 39.5857 47.277 39.625C47.277 39.7917 47.277 39.9582 47.277 40.125C44.276 42.5417 40.9425 44.2917 37.277 45.375C36.545 45.3912 35.8783 45.558 35.277 45.875C33.9563 45.774 32.7063 45.9405 31.527 46.375C28.5518 46.7197 25.5517 46.6365 22.527 46.125C22.1266 45.7315 21.6266 45.5647 21.027 45.625C20.9437 45.625 20.8604 45.625 20.777 45.625C20.3766 45.2315 19.8766 45.0647 19.277 45.125C19.1937 45.125 19.1104 45.125 19.027 45.125C17.1415 44.224 15.2248 43.3907 13.277 42.625C11.8843 41.8885 10.6343 40.972 9.52704 39.875C8.93646 39.202 8.35314 38.5352 7.77704 37.875C7.77704 37.7917 7.77704 37.7082 7.77704 37.625C8.18134 37.7595 8.59801 37.8427 9.02704 37.875C9.02704 38.2082 9.02704 38.5417 9.02704 38.875C9.34979 38.9342 9.59979 38.851 9.77704 38.625C10.079 38.8085 10.4124 38.8917 10.777 38.875C10.9479 39.294 11.2812 39.4607 11.777 39.375C11.8304 39.786 11.7471 40.161 11.527 40.5C12.1835 40.7192 12.9335 40.8442 13.777 40.875C13.7233 41.2947 13.89 41.5447 14.277 41.625C14.3604 41.625 14.4437 41.625 14.527 41.625C14.9681 42.0302 15.4681 42.3635 16.027 42.625C16.527 42.7917 17.027 42.9582 17.527 43.125C18.4668 43.5977 19.1751 43.3477 19.652 42.375C19.6986 43.009 19.8236 43.5922 20.027 44.125C20.1104 44.125 20.1937 44.125 20.277 44.125C20.7096 44.478 21.0846 44.3945 21.402 43.875C21.7354 45.375 22.402 45.5417 23.402 44.375C23.4977 44.514 23.6227 44.5972 23.777 44.625C23.9437 44.7917 24.1104 44.9582 24.277 45.125C25.0259 45.1925 25.7759 45.1925 26.527 45.125C27.5915 45.5155 28.5915 45.432 29.527 44.875C29.8603 44.7917 30.1938 44.7082 30.527 44.625C30.5823 44.9337 30.749 45.1837 31.027 45.375C32.8925 45.7357 34.7258 45.6107 36.527 45C35.8655 44.8757 35.1988 44.834 34.527 44.875C34.527 44.5417 34.527 44.2082 34.527 43.875C35.048 43.4312 35.3398 42.848 35.402 42.125C35.46 42.4342 35.585 42.6842 35.777 42.875C35.934 43.418 36.2675 43.8345 36.777 44.125C37.3085 43.8035 37.8918 43.5952 38.527 43.5C38.7363 43.2472 38.8195 42.9555 38.777 42.625C38.4123 42.6082 38.079 42.6915 37.777 42.875C37.527 42.875 37.277 42.875 37.027 42.875C36.7748 42.2377 36.5665 41.5712 36.402 40.875C36.0485 40.6467 35.6735 40.6467 35.277 40.875C35.3498 40.5877 35.558 40.421 35.902 40.375C36.1103 40.4167 36.3188 40.4582 36.527 40.5C36.866 41.0995 37.1578 41.7245 37.402 42.375C37.4428 41.831 37.651 41.3727 38.027 41C37.7018 40.596 37.7018 40.221 38.027 39.875C38.388 40.886 38.9715 41.761 39.777 42.5C40.4448 42.7082 41.028 42.5832 41.527 42.125C42.188 41.647 42.3545 41.0637 42.027 40.375C41.6753 39.923 41.3835 39.423 41.152 38.875C40.8993 38.6657 40.6075 38.5825 40.277 38.625C40.4478 38.206 40.7813 38.0392 41.277 38.125C41.2223 37.8312 41.3055 37.5812 41.527 37.375C42.305 37.1622 42.3885 36.8707 41.777 36.5C42.1003 36.3775 42.4338 36.3357 42.777 36.375C42.8195 36.0445 42.7363 35.7527 42.527 35.5C42.764 35.3792 43.014 35.3377 43.277 35.375C43.247 34.6987 43.497 34.532 44.027 34.875C44.531 34.2092 44.8643 34.2925 45.027 35.125Z" fill="#CB1C15"/>
<path fill-rule="evenodd" clip-rule="evenodd" d="M41.027 41.625C41.3602 41.625 41.527 41.7918 41.527 42.125C41.028 42.5833 40.4447 42.7083 39.777 42.5C38.9715 41.761 38.388 40.886 38.027 39.875C38.3365 39.647 38.67 39.6053 39.027 39.75C39.357 40.79 40.0237 41.415 41.027 41.625Z" fill="#FCD919"/>
<path fill-rule="evenodd" clip-rule="evenodd" d="M40.277 38.625C40.6075 38.5825 40.8992 38.6657 41.152 38.875C41.3835 39.423 41.6752 39.923 42.027 40.375C42.0925 40.7445 42.0092 41.0777 41.777 41.375C41.442 41.0332 41.1087 40.7 40.777 40.375C40.56 39.8995 40.31 39.4412 40.027 39C40.0445 38.8087 40.1277 38.6837 40.277 38.625Z" fill="#FDE417"/>
<path fill-rule="evenodd" clip-rule="evenodd" d="M17.777 39.375C18.1644 39.6102 18.581 39.7767 19.027 39.875C20.0007 40.9585 19.9173 42.0002 18.777 43C18.3685 43.1235 17.9518 43.165 17.527 43.125C17.027 42.9583 16.527 42.7917 16.027 42.625C15.951 42.4625 15.8677 42.2958 15.777 42.125C16.197 41.285 16.6136 40.4517 17.027 39.625C17.2497 39.4725 17.4997 39.3893 17.777 39.375Z" fill="#FCDD18"/>
<path fill-rule="evenodd" clip-rule="evenodd" d="M42.027 37.625C42.5095 37.6928 42.843 37.9428 43.027 38.375C43.489 38.879 43.9058 39.4208 44.277 40C44.109 40.5975 43.7758 40.7225 43.277 40.375C42.6333 39.6703 42.05 38.9203 41.527 38.125C41.6158 37.8695 41.7825 37.7028 42.027 37.625Z" fill="#FDDF1C"/>
<path fill-rule="evenodd" clip-rule="evenodd" d="M15.527 37.875C15.7974 38.1485 15.9641 38.4818 16.027 38.875C15.8142 39.8102 15.5642 40.727 15.277 41.625C15.027 41.625 14.777 41.625 14.527 41.625C14.4437 41.625 14.3603 41.625 14.277 41.625C14.3425 41.2555 14.2592 40.9223 14.027 40.625C13.3505 40.5283 12.7671 40.2783 12.277 39.875C13.1674 38.8885 14.2507 38.2217 15.527 37.875Z" fill="#FBDA19"/>
<path fill-rule="evenodd" clip-rule="evenodd" d="M14.527 39.125C15.1549 39.304 15.1549 39.554 14.527 39.875C14.2614 39.6437 14.2614 39.3937 14.527 39.125Z" fill="#B45803"/>
<path fill-rule="evenodd" clip-rule="evenodd" d="M15.527 37.875C16.3894 37.689 16.806 38.0225 16.777 38.875C17.7543 38.784 18.5043 39.1175 19.027 39.875C18.581 39.7767 18.1644 39.6102 17.777 39.375C17.4152 39.0287 17.1652 39.112 17.027 39.625C16.6136 40.4517 16.197 41.285 15.777 42.125C15.8677 42.2957 15.951 42.4625 16.027 42.625C15.468 42.3635 14.968 42.0302 14.527 41.625C14.777 41.625 15.027 41.625 15.277 41.625C15.5642 40.727 15.8142 39.8102 16.027 38.875C15.9641 38.4817 15.7974 38.1485 15.527 37.875Z" fill="#CB3407"/>
<path fill-rule="evenodd" clip-rule="evenodd" d="M17.777 39.375C17.4997 39.3893 17.2497 39.4725 17.027 39.625C17.1652 39.112 17.4152 39.0288 17.777 39.375Z" fill="#EC8F21"/>
<path fill-rule="evenodd" clip-rule="evenodd" d="M42.777 37.125C42.777 37.4583 42.9437 37.625 43.277 37.625C43.1245 37.8478 43.0412 38.0978 43.027 38.375C42.843 37.9428 42.5095 37.6928 42.027 37.625C42.2245 37.3998 42.4745 37.233 42.777 37.125Z" fill="#D37E12"/>
<path fill-rule="evenodd" clip-rule="evenodd" d="M45.027 35.125C45.0548 35.2792 45.138 35.4042 45.277 35.5C44.8493 35.7832 44.7243 36.1582 44.902 36.625C45.4793 36.9937 46.021 37.4105 46.527 37.875C46.3818 38.431 46.0485 38.6392 45.527 38.5C45.0558 37.9445 44.5143 37.486 43.902 37.125C43.5768 37.1597 43.3685 37.3262 43.277 37.625C42.9438 37.625 42.777 37.4582 42.777 37.125C43.2238 36.0937 43.9738 35.427 45.027 35.125Z" fill="#FCDE1A"/>
<path opacity="0.059" fill-rule="evenodd" clip-rule="evenodd" d="M9.02704 39.875C9.19371 39.875 9.36036 39.875 9.52704 39.875C10.6343 40.972 11.8843 41.8885 13.277 42.625C14.9634 43.925 16.8801 44.7585 19.027 45.125C19.1104 45.125 19.1937 45.125 19.277 45.125C19.6774 45.5185 20.1774 45.6853 20.777 45.625C20.8604 45.625 20.9437 45.625 21.027 45.625C21.4274 46.0185 21.9274 46.1853 22.527 46.125C25.5517 46.6365 28.5518 46.7198 31.527 46.375C32.8395 46.4245 34.0895 46.2578 35.277 45.875C36.0258 45.9265 36.6925 45.76 37.277 45.375C40.9425 44.2918 44.276 42.5418 47.277 40.125C47.4438 40.0418 47.6103 39.9583 47.777 39.875C47.8603 39.875 47.9438 39.875 48.027 39.875C44.2695 43.4815 39.7695 45.69 34.527 46.5C26.6698 47.841 19.2531 46.591 12.277 42.75C11.0817 41.9048 9.99831 40.9465 9.02704 39.875Z" fill="#FEE6E5"/>
<path opacity="0.522" fill-rule="evenodd" clip-rule="evenodd" d="M35.277 45.875C34.0895 46.2577 32.8395 46.4245 31.527 46.375C32.7062 45.9405 33.9562 45.774 35.277 45.875Z" fill="#D16261"/>
<path opacity="0.365" fill-rule="evenodd" clip-rule="evenodd" d="M21.027 45.625C21.6266 45.5648 22.1266 45.7315 22.527 46.125C21.9274 46.1853 21.4274 46.0185 21.027 45.625Z" fill="#E37E7B"/>
<path opacity="0.176" fill-rule="evenodd" clip-rule="evenodd" d="M37.277 45.375C36.6925 45.76 36.0258 45.9265 35.277 45.875C35.8783 45.558 36.545 45.3913 37.277 45.375Z" fill="#EE9E9F"/>
<path opacity="0.541" fill-rule="evenodd" clip-rule="evenodd" d="M19.2769 45.125C19.8765 45.0648 20.3765 45.2315 20.7769 45.625C20.1773 45.6853 19.6773 45.5185 19.2769 45.125Z" fill="#CC5754"/>
<path fill-rule="evenodd" clip-rule="evenodd" d="M27.2769 44.375C27.6607 44.697 28.0772 44.697 28.5269 44.375C28.3602 44.2083 28.1937 44.0417 28.0269 43.875C28.5009 43.6335 29.0009 43.5503 29.5269 43.625C29.5269 44.0418 29.5269 44.4582 29.5269 44.875C28.5914 45.432 27.5914 45.5155 26.5269 45.125C26.3434 44.823 26.2602 44.4897 26.2769 44.125C26.1647 43.5058 26.3312 43.0058 26.7769 42.625C26.9439 43.2423 27.1107 43.8255 27.2769 44.375Z" fill="#FBD917"/>
<path fill-rule="evenodd" clip-rule="evenodd" d="M19.027 39.875C20.7182 40.2158 22.3849 40.7157 24.027 41.375C24.7315 41.0543 25.4399 41.0543 26.152 41.375C26.5927 41.2563 27.0095 41.0895 27.402 40.875C27.499 41.107 27.6657 41.2737 27.902 41.375C28.687 41.185 29.312 40.7682 29.777 40.125C29.8602 40.25 29.9437 40.375 30.027 40.5C29.7747 40.792 29.5247 41.0838 29.277 41.375C29.6937 41.5417 30.1102 41.7083 30.527 41.875C30.2797 42.117 30.113 42.4087 30.027 42.75C30.347 43.34 30.5137 43.965 30.527 44.625C30.1937 44.7083 29.8602 44.7917 29.527 44.875C29.527 44.4582 29.527 44.0418 29.527 43.625C29.001 43.5503 28.501 43.6335 28.027 43.875C28.1937 44.0417 28.3602 44.2083 28.527 44.375C28.0772 44.697 27.6607 44.697 27.277 44.375C27.213 43.802 27.2962 43.2602 27.527 42.75C28.2017 42.8595 28.8682 42.818 29.527 42.625C29.3795 42.3002 29.1295 42.092 28.777 42C26.7447 41.4955 25.9112 42.204 26.277 44.125C26.2602 44.4897 26.3435 44.823 26.527 45.125C25.7758 45.1925 25.0258 45.1925 24.277 45.125C24.6103 45.125 24.9437 45.125 25.277 45.125C25.2018 44.1883 25.3684 43.3133 25.777 42.5C25.7961 41.811 25.4628 41.5192 24.777 41.625C24.7302 42.141 24.6052 42.641 24.402 43.125C24.0159 42.633 23.7243 42.0913 23.527 41.5C23.1185 41.3765 22.7018 41.335 22.277 41.375C22.2171 42.4605 22.1338 43.544 22.027 44.625C22.8108 44.613 23.2275 44.1963 23.277 43.375C23.7063 43.667 23.873 44.0838 23.777 44.625C23.6226 44.5972 23.4976 44.514 23.402 44.375C22.402 45.5417 21.7353 45.375 21.402 43.875C21.0846 44.3945 20.7096 44.478 20.277 44.125C20.5894 44.1058 20.7978 43.939 20.902 43.625C21.2258 42.6963 21.5175 41.7795 21.777 40.875C21.4075 40.8095 21.0742 40.8927 20.777 41.125C20.3206 42.0767 20.0706 43.0768 20.027 44.125C19.8235 43.5922 19.6985 43.009 19.652 42.375C19.1751 43.3478 18.4668 43.5978 17.527 43.125C17.9518 43.165 18.3685 43.1235 18.777 43C19.9173 42.0002 20.0007 40.9585 19.027 39.875Z" fill="#C93207"/>
<path fill-rule="evenodd" clip-rule="evenodd" d="M24.277 45.125C24.1103 44.9582 23.9437 44.7917 23.777 44.625C23.873 44.0837 23.7063 43.667 23.277 43.375C23.2275 44.1962 22.8108 44.613 22.027 44.625C22.1338 43.544 22.2171 42.4605 22.277 41.375C22.7018 41.335 23.1185 41.3765 23.527 41.5C23.7243 42.0912 24.0159 42.633 24.402 43.125C24.6052 42.641 24.7302 42.141 24.777 41.625C25.4628 41.5192 25.7961 41.811 25.777 42.5C25.3684 43.3132 25.2018 44.1882 25.277 45.125C24.9437 45.125 24.6103 45.125 24.277 45.125Z" fill="#FBDC1A"/>
<path fill-rule="evenodd" clip-rule="evenodd" d="M20.277 44.125C20.1937 44.125 20.1103 44.125 20.027 44.125C20.0706 43.0768 20.3206 42.0768 20.777 41.125C21.0742 40.8928 21.4075 40.8095 21.777 40.875C21.5175 41.7795 21.2258 42.6963 20.902 43.625C20.7978 43.939 20.5894 44.1058 20.277 44.125Z" fill="#FDE11A"/>
<path fill-rule="evenodd" clip-rule="evenodd" d="M32.2769 41.375C33.0314 41.3337 33.7814 41.3755 34.5269 41.5C35.3084 42.6862 34.9752 43.3947 33.5269 43.625C33.5269 44.0417 33.5269 44.4582 33.5269 44.875C33.1272 44.942 32.7939 44.8585 32.5269 44.625C32.5494 43.962 32.3829 43.3787 32.0269 42.875C32.0269 42.4582 32.0269 42.0417 32.0269 41.625C32.0269 41.4582 32.1102 41.375 32.2769 41.375Z" fill="#FCE216"/>
<path fill-rule="evenodd" clip-rule="evenodd" d="M37.777 42.875C38.079 42.6915 38.4122 42.6083 38.777 42.625C38.8195 42.9555 38.7362 43.2473 38.527 43.5C37.8917 43.5953 37.3085 43.8035 36.777 44.125C36.2675 43.8345 35.934 43.418 35.777 42.875C35.8105 42.427 35.7272 42.0105 35.527 41.625C35.6072 41.238 35.8572 41.0713 36.277 41.125C36.3255 41.8325 36.4922 42.499 36.777 43.125C37.1767 43.192 37.51 43.1085 37.777 42.875Z" fill="#FDE316"/>
<path opacity="0.925" fill-rule="evenodd" clip-rule="evenodd" d="M13.277 42.625C15.2248 43.3908 17.1414 44.224 19.027 45.125C16.88 44.7585 14.9633 43.925 13.277 42.625Z" fill="#CD514D"/>
<path fill-rule="evenodd" clip-rule="evenodd" d="M35.277 40.875C35.2177 41.1978 35.301 41.4478 35.527 41.625C35.7272 42.0105 35.8105 42.427 35.777 42.875C35.585 42.6843 35.46 42.4343 35.402 42.125C35.3397 42.848 35.048 43.4313 34.527 43.875C34.277 43.875 34.027 43.875 33.777 43.875C33.777 44.2918 33.777 44.7083 33.777 45.125C33.2702 45.1655 32.7702 45.1238 32.277 45C32.1205 44.8125 31.9955 44.604 31.902 44.375C31.6995 43.4105 31.7412 42.494 32.027 41.625C32.027 42.0418 32.027 42.4583 32.027 42.875C32.0045 43.538 32.171 44.1213 32.527 44.625C32.794 44.8585 33.1272 44.942 33.527 44.875C33.527 44.4583 33.527 44.0418 33.527 43.625C34.9752 43.3948 35.3085 42.6863 34.527 41.5C33.7815 41.3755 33.0315 41.3338 32.277 41.375C33.1502 40.7505 34.0252 40.7505 34.902 41.375C34.9715 41.146 35.0965 40.9795 35.277 40.875Z" fill="#C73704"/>
<path fill-rule="evenodd" clip-rule="evenodd" d="M32.027 42.875C32.383 43.3788 32.5495 43.962 32.527 44.625C32.171 44.1213 32.0045 43.538 32.027 42.875Z" fill="#E57B14"/>
<path fill-rule="evenodd" clip-rule="evenodd" d="M33.027 42.125C33.3965 42.0595 33.7297 42.1428 34.027 42.375C33.822 42.7778 33.4885 42.9445 33.027 42.875C33.027 42.625 33.027 42.375 33.027 42.125Z" fill="#BE6002"/>
<path fill-rule="evenodd" clip-rule="evenodd" d="M37.777 42.875C37.51 43.1085 37.1768 43.192 36.777 43.125C36.4923 42.499 36.3255 41.8325 36.277 41.125C35.8573 41.0712 35.6073 41.238 35.527 41.625C35.301 41.4477 35.2178 41.1977 35.277 40.875C35.6735 40.6467 36.0485 40.6467 36.402 40.875C36.5665 41.5712 36.7748 42.2377 37.027 42.875C37.277 42.875 37.527 42.875 37.777 42.875Z" fill="#F3B420"/>
<path fill-rule="evenodd" clip-rule="evenodd" d="M27.277 44.375C27.1107 43.8255 26.944 43.2422 26.777 42.625C26.3312 43.0057 26.1647 43.5057 26.277 44.125C25.9112 42.204 26.7447 41.4955 28.777 42C29.1295 42.092 29.3795 42.3002 29.527 42.625C28.8682 42.818 28.2017 42.8595 27.527 42.75C27.2962 43.2602 27.213 43.802 27.277 44.375Z" fill="#F9C51E"/>
<path fill-rule="evenodd" clip-rule="evenodd" d="M17.777 40.375C18.273 40.371 18.523 40.621 18.527 41.125C18.4765 41.7307 18.1848 42.1472 17.652 42.375C17.332 42.3467 17.1237 42.18 17.027 41.875C17.2803 41.3682 17.5303 40.8682 17.777 40.375Z" fill="#C53B05"/>
<path fill-rule="evenodd" clip-rule="evenodd" d="M40.777 40.375C41.1087 40.7 41.442 41.0332 41.777 41.375C42.0092 41.0777 42.0925 40.7445 42.027 40.375C42.3545 41.0637 42.188 41.647 41.527 42.125C41.527 41.7917 41.3602 41.625 41.027 41.625C40.9947 41.196 40.9115 40.7792 40.777 40.375Z" fill="#F3BA18"/>
<path opacity="0.027" fill-rule="evenodd" clip-rule="evenodd" d="M28.777 50.875C28.3602 50.875 27.9437 50.875 27.527 50.875C27.4895 49.9598 27.8645 49.7098 28.652 50.125C28.7727 50.362 28.8142 50.612 28.777 50.875Z" fill="#9D9D9D"/>
</g>
<defs>
<clipPath id="clip0_106_26">
<rect width="55" height="51" fill="white" transform="translate(0.901978)"/>
</clipPath>
</defs>
</svg>
