<?xml version="1.0" encoding="iso-8859-1"?>
<!-- Uploaded to: SVG Repo, www.svgrepo.com, Generator: SVG Repo Mixer Tools -->
<svg height="800px" width="800px" version="1.1" id="Layer_1" xmlns="http://www.w3.org/2000/svg" xmlns:xlink="http://www.w3.org/1999/xlink" 
	 viewBox="0 0 512 512" xml:space="preserve">
<polygon style="fill:#C6C5CB;" points="510.958,89.6 510.958,396.8 355.766,486.4 201.276,397.205 200.574,89.6 355.766,0 "/>
<polygon style="fill:#D8D8DA;" points="1.042,179.2 1.042,409.6 178.404,512 289.255,448 289.255,217.6 200.574,166.4 200.574,89.6 
	222.745,76.8 200.574,64 "/>
<polygon style="fill:#E0E0E2;" points="200.574,89.6 355.766,179.2 510.958,89.6 355.766,0 "/>
<polygon style="fill:#898890;" points="244.915,89.6 355.766,25.6 466.617,89.6 355.766,153.6 "/>
<polygon style="fill:#D8D8DA;" points="200.574,89.6 200.574,396.8 355.766,486.4 355.766,179.2 "/>
<polygon style="fill:#C6C5CB;" points="289.255,217.6 289.255,448 178.404,512 178.404,281.6 "/>
<polygon style="fill:#E0E0E2;" points="321.924,102.391 333.601,109.133 345.278,102.391 356.955,109.133 345.278,115.875 
	356.955,122.616 391.987,102.391 380.309,95.649 368.632,102.391 356.955,95.649 368.632,88.907 356.955,82.166 "/>
<polygon style="fill:#ACABB1;" points="267.085,102.4 355.766,51.2 355.766,25.6 244.915,89.6 "/>
<polygon style="fill:#C6C5CB;" points="355.766,51.2 444.463,102.391 466.617,89.6 355.766,25.6 "/>
<polygon style="fill:#59A4FF;" points="67.553,243.371 178.404,307.371 178.404,512 67.553,448.17 "/>
<polygon style="fill:#2487FF;" points="178.404,307.371 267.085,256 267.087,460.774 178.404,512 "/>
<polygon style="fill:#FE0B37;" points="26.547,228.84 41.338,237.379 41.338,254.458 56.129,262.997 56.129,280.076 41.338,271.536 
	41.338,288.615 26.547,280.076 26.547,262.997 11.757,254.458 11.757,237.379 26.547,245.919 "/>
<path style="fill:#2487FF;" d="M156.816,321.137l21.588,12.474v-1.621l-21.588-12.474v-24.609l-1.403-0.81v24.609l-20.767-12
	v-24.598l-1.403-0.81v24.598l-20.767-12V269.31l-1.403-0.81v24.587l-20.767-12v-24.577l-1.403-0.81v24.576L67.553,267.94v1.621
	l21.351,12.337v23.937l-21.351-12.336v1.621l21.351,12.337v23.937l-21.351-12.337v1.621l21.351,12.337v23.937l-21.351-12.336v1.621
	l21.351,12.337v23.937l-21.351-12.336v1.621l21.351,12.337v23.937l-21.351-12.336v1.621l21.351,12.337v23.937l-21.351-12.337v1.621
	l21.351,12.337v25.226l1.403,0.808v-25.223l20.767,12v25.181l1.403,0.808v-25.178l20.767,12v25.136l1.403,0.808v-25.133l20.767,12
	v25.091l1.403,0.808V474.49l21.588,12.474v-1.621l-21.588-12.474v-23.937l21.588,12.474v-1.621l-21.588-12.474v-23.937
	l21.588,12.474v-1.621l-21.588-12.474v-23.945l21.588,12.474v-1.621l-21.588-12.474v-23.937l21.588,12.474v-1.621l-21.588-12.474
	v-23.937l21.588,12.474v-1.621l-21.588-12.474V321.137z M111.073,446.429l-20.767-12v-23.937l20.767,12V446.429z M111.073,420.871
	l-20.767-12v-23.937l20.767,12V420.871z M111.073,395.314l-20.767-12v-23.937l20.767,12V395.314z M111.073,369.757l-20.767-12
	V333.82l20.767,12V369.757z M111.073,344.199l-20.767-12.001v-23.937l20.767,12V344.199z M111.073,318.642l-20.767-12v-23.937
	l20.767,12V318.642z M133.243,459.239l-20.767-12v-23.937l20.767,12V459.239z M133.243,433.682l-20.767-12v-23.937l20.767,12
	V433.682z M133.243,408.124l-20.767-12v-23.937l20.767,12V408.124z M133.243,382.568l-20.767-12v-23.937l20.767,12V382.568z
	 M133.243,357.01l-20.767-12v-23.937l20.767,12V357.01z M133.243,331.453l-20.767-12v-23.937l20.767,12V331.453z M155.414,472.05
	l-20.767-12v-23.937l20.767,12L155.414,472.05L155.414,472.05z M155.414,446.492l-20.767-12v-23.937l20.767,12L155.414,446.492
	L155.414,446.492z M155.414,420.935l-20.767-12v-23.937l20.767,12L155.414,420.935L155.414,420.935z M155.414,395.378l-20.767-12
	v-23.937l20.767,12L155.414,395.378L155.414,395.378z M155.414,369.821l-20.767-12v-23.937l20.767,12L155.414,369.821
	L155.414,369.821z M155.414,344.263l-20.767-12v-23.937l20.767,12L155.414,344.263L155.414,344.263z"/>
<path style="fill:#016EF1;" d="M267.085,282.412v-1.621l-21.469,12.395v-24.75l-1.403,0.813v24.747l-20.767,11.989v-24.707
	l-1.403,0.813v24.704l-20.767,11.989v-24.662l-1.403,0.813v24.661l-21.469,12.395v1.621l21.469-12.395v23.98l-21.469,12.395v1.621
	l21.469-12.395v23.98l-21.469,12.395v1.621l21.469-12.395v23.98l-21.469,12.395v1.621l21.469-12.395v23.98l-21.469,12.395v1.621
	l21.469-12.395v23.98l-21.469,12.395v1.621l21.469-12.395v23.98l-21.469,12.395v1.621l21.469-12.395v24.783l1.403-0.811v-24.782
	l20.767-11.989v24.776l1.403-0.811v-24.776l20.767-11.989v24.77l1.403-0.811v-24.77l21.47-12.396v-1.621l-21.47,12.396v-23.98
	l21.47-12.395v-1.621l-21.47,12.395v-23.98l21.47-12.395v-1.621l-21.47,12.395v-23.98l21.47-12.395v-1.621l-21.47,12.395v-23.98
	l21.47-12.395v-1.621l-21.47,12.395v-23.98l21.469-12.395v-1.621l-21.469,12.395v-23.98L267.085,282.412z M222.043,460.396
	l-20.767,11.989v-23.98l20.767-11.989V460.396z M222.043,434.796l-20.767,11.989v-23.98l20.767-11.989V434.796z M222.043,409.195
	l-20.767,11.989v-23.98l20.767-11.989V409.195z M222.043,383.596l-20.767,11.989v-23.98l20.767-11.989V383.596z M222.043,357.995
	l-20.767,11.989v-23.98l20.767-11.989V357.995z M222.043,332.395l-20.767,11.989v-23.98l20.767-11.989V332.395z M244.213,447.596
	l-20.767,11.989v-23.98l20.767-11.989V447.596z M244.213,421.996l-20.767,11.989v-23.98l20.767-11.989V421.996z M244.213,396.396
	l-20.767,11.989v-23.98l20.767-11.989V396.396z M244.213,370.797l-20.767,11.989v-23.98l20.767-11.989V370.797z M244.213,345.196
	l-20.767,11.989v-23.98l20.767-11.989V345.196z M244.213,319.596l-20.767,11.989v-23.98l20.767-11.989V319.596z"/>
<g>
	<polygon style="fill:#59A4FF;" points="222.745,128 222.745,153.6 244.915,166.4 244.915,140.8 	"/>
	<polygon style="fill:#59A4FF;" points="267.085,153.6 267.085,179.2 289.255,192 289.255,166.4 	"/>
	<polygon style="fill:#59A4FF;" points="311.426,179.2 311.426,204.8 333.596,217.6 333.596,192 	"/>
	<polygon style="fill:#59A4FF;" points="311.426,230.4 311.426,256 333.596,268.8 333.596,243.2 	"/>
	<polygon style="fill:#59A4FF;" points="311.426,281.6 311.426,307.2 333.596,320 333.596,294.4 	"/>
	<polygon style="fill:#59A4FF;" points="311.426,332.799 311.426,358.4 333.596,371.2 333.596,345.6 	"/>
	<polygon style="fill:#59A4FF;" points="311.426,384 311.426,409.6 333.596,422.4 333.596,396.8 	"/>
</g>
<g>
	<polygon style="fill:#2487FF;" points="377.937,192 377.937,217.6 400.107,204.8 400.107,179.2 	"/>
	<polygon style="fill:#2487FF;" points="422.276,166.4 422.276,192 444.447,179.2 444.447,153.6 	"/>
	<polygon style="fill:#2487FF;" points="466.617,140.8 466.617,166.4 488.787,153.6 488.787,128 	"/>
	<polygon style="fill:#2487FF;" points="377.937,243.066 377.937,268.666 400.107,255.866 400.107,230.266 	"/>
	<polygon style="fill:#2487FF;" points="422.276,217.466 422.276,243.066 444.447,230.266 444.447,204.666 	"/>
	<polygon style="fill:#2487FF;" points="466.617,191.866 466.617,217.466 488.787,204.666 488.787,179.066 	"/>
	<polygon style="fill:#2487FF;" points="377.937,294.133 377.937,319.732 400.107,306.932 400.107,281.332 	"/>
	<polygon style="fill:#2487FF;" points="422.276,268.532 422.276,294.133 444.447,281.332 444.447,255.732 	"/>
	<polygon style="fill:#2487FF;" points="466.617,242.932 466.617,268.532 488.787,255.732 488.787,230.132 	"/>
	<polygon style="fill:#2487FF;" points="377.937,345.198 377.937,370.798 400.107,357.999 400.107,332.398 	"/>
	<polygon style="fill:#2487FF;" points="422.276,319.598 422.276,345.198 444.447,332.398 444.447,306.798 	"/>
	<polygon style="fill:#2487FF;" points="466.617,293.998 466.617,319.598 488.787,306.798 488.787,281.199 	"/>
	<polygon style="fill:#2487FF;" points="377.937,396.264 377.937,421.864 400.107,409.065 400.107,383.464 	"/>
	<polygon style="fill:#2487FF;" points="422.276,370.664 422.276,396.264 444.447,383.464 444.447,357.864 	"/>
	<polygon style="fill:#2487FF;" points="466.617,345.064 466.617,370.664 488.787,357.864 488.787,332.265 	"/>
</g>
<polygon style="fill:#E0E0E2;" points="1.042,179.2 200.574,64 222.745,76.8 200.574,89.6 200.574,166.4 289.255,217.6 
	178.404,281.6 "/>
<polygon style="fill:#898890;" points="45.383,179.2 178.404,256 267.087,204.869 200.574,166.4 200.574,89.6 "/>
<polygon style="fill:#ACABB1;" points="67.553,192 200.574,115.2 200.574,89.6 45.383,179.2 "/>
<polygon style="fill:#E0E0E2;" points="135.226,188.308 179.566,162.709 223.907,188.308 223.907,213.908 179.566,239.509 
	135.226,213.908 "/>
<polygon style="fill:#C6C5CB;" points="135.226,188.308 135.226,213.908 179.566,239.509 179.566,213.908 "/>
<polygon style="fill:#ACABB1;" points="179.566,239.509 223.907,213.908 223.907,188.308 179.566,213.908 "/>
</svg>