<svg xmlns="http://www.w3.org/2000/svg" enable-background="new 0 0 500 421" viewBox="0 0 500 421"><path fill="#cce9ff" d="M217.071 45.232c-6.118 3.091-11.851 6.52-17.049 10.173-18.172 12.762-32.79 31.34-50.647 44.141-16.862 12.087-37.454 15.026-56.749 17.044-33.633 3.522-103.78 37.295-91.115 99.893 4.608 22.781 20.858 38.253 29.178 58.881 8.85 21.945 7.921 49.315 22.012 68.339 6.199 8.365 14.756 13.89 23.541 18.075 58.465 27.841 124.12 26.548 186.115 23.478 48.93-2.422 127.519 10.38 170.498-20.881 21.338-15.522 10.242-57.952 25.007-80.74 12.408-19.15 29.295-31.725 37.59-55.696 14.115-40.789-6.005-93.868-41.237-108.348-22.015-9.047-45.337-13.193-67.098-23.129-22.484-10.27-31.148-25.652-48.293-43.857-30.997-32.907-83.753-26.593-121.753-7.373z"/><path fill="#2a94f4" d="m288.855 368.872-.013.139-.142.968-2.304 16.31-1.347.056.308-11.111.043-1.433 1.096-1.56 1.108-1.586 1.209-1.728zM267.799 371.245l-2.149 15.228-1.349.055-.905-10.25.042-1.602 1.214-.705 2.362-3.358.335-.479c.015.409.45.788.45 1.111z"/><path fill="#fcd2b1" d="M271.338 192.373c3.268 4.672 1.747 7.373 1.49 11.012-.342 4.827-3.48 3.566-6.072.739-2.92-3.154 1.993-6.52-.494-9.933-2.017-2.773-5.541 0-5.817-1.953-.138-.982 7.624-4.549 10.893.135z"/><path fill="#d3d3d3" d="M219.884 260.473h10.664v2.497h-10.664z"/><path fill="#d3d3d3" d="M240.318 224.508h7.28v7.963h-7.28z" transform="rotate(32.75 243.972 228.492)"/><path fill="#d3d3d3" d="M261.422 191.733h7.283v7.964h-7.283z" transform="rotate(32.807 265.059 195.704)"/><path fill="#d3d3d3" d="M264.042 189.292h5.188v7.963h-5.188z" transform="rotate(32.786 266.64 193.278)"/><path fill="#f7f7f7" d="M250.179 190.769h9.449v41.445h-9.449z" transform="rotate(32.77 254.889 211.48)"/><path fill="#d3d3d3" d="M257.956 211.111a3.053 3.053 0 1 1-6.107.001 3.053 3.053 0 0 1 6.107-.001z"/><path fill="#f7f7f7" d="m248.613 251.239-1.627-3.729c7.685-3.357 12.062-7.568 13.006-12.513 1.449-7.585-5.222-14.392-5.29-14.461l2.251-3.5c.351.351 8.883 9.055 7.035 18.724-1.21 6.345-6.384 11.553-15.375 15.479z"/><path fill="#f7f7f7" d="M239 245.559h10.82v5.087H239z" transform="rotate(27.638 244.387 248.078)"/><path fill="#d3d3d3" d="M235.446 242.264h10.82v1.102h-10.82z" transform="rotate(27.659 240.863 242.82)"/><path fill="#d3d3d3" d="M239.062 257.26h30.785v5.71h-30.785z"/><path fill="#f7f7f7" d="M258.652 257.26h-12.209l3.561-10.811 8.648-1.39z"/><path fill="#d3d3d3" d="M256.805 250.058a3.068 3.068 0 0 1-3.07 3.068 3.07 3.07 0 0 1-3.073-3.068 3.07 3.07 0 0 1 3.073-3.071 3.068 3.068 0 0 1 3.07 3.071z"/><path fill="#f1b99e" d="M249.951 325.793c-1.791-12.497-3.886-24.012-3.932-32.35-.008-2.8 7.81-6.654 12.5-.624 4.675 6.016 6.997 16.107 6.189 27.309-.845 11.731-2.485 31.327-1.707 36.927 1.365 9.933 4.455 8.66 3.965 14.26-.221 2.642-5.537 4.23-11.413 7.431-7.092 3.868-10.717 7.443-11.937 5.065-1.373-2.65 6.395-4.151 11.112-21.112 1.413-5.05-2.98-24.518-4.777-36.906z"/><path fill="#2a94f4" d="M267.799 371.245a.367.367 0 0 1-.042.168c-1.026 2.134-2.192 3.499-3.146 4.285-.872.702-1.574.941-1.883.858-1.055-.295-2.769.786-5.073 3.272-2.316 2.514-4.65 6.461-5.661 6.743-2.037.59-13.428 1.574-14.567-.704-.548-1.082 7.573-5.127 7.573-5.127h.027c.421.112 4.353 1.068 6.645-.465 2.402-1.6 6.125-8.807 8.596-11.7 2.079-2.472 3.879-4.199 4.453-4.733.126-.128.196-.186.196-.186s2.881 1.279 2.43 6.394v.083c.017.41.452.789.452 1.112z"/><path fill="#fcd2b1" d="M258.172 295.87c6.146 4.506 11.16 13.577 13.469 24.562 2.418 11.516 6.232 30.8 8.517 35.977 4.037 9.169 6.657 7.102 7.732 12.627.51 2.594-4.159 5.578-8.925 10.27-5.771 5.671-8.265 10.1-10.083 8.15-2.056-2.171 5.016-5.743 4.874-23.353-.039-5.222-9.622-22.747-14.739-34.161-5.161-11.522-12.62-23.539-10.757-31.67.874-3.812 3.738-6.895 9.912-2.402z"/><path fill="#2a94f4" d="m288.842 369.011-.142.969c-.941 3.416-2.669 5.283-3.343 5.255-.044 0-.056 0-.084-.014-1.069-.309-2.472 1.516-3.99 4.552-1.544 3.062-2.681 7.487-3.595 8.035-1.8 1.125-12.475 5.211-14.202 3.343-.816-.898 5.871-7.036 5.871-7.036h.014c.296 0 4.481-.126 6.28-2.263 1.869-2.204 3.471-10.154 5.029-13.609 1.335-2.937 2.571-5.059 2.978-5.762.014 0 0-.014 0-.014.1-.154.156-.225.156-.225s2.962.282 4.424 5.241c.212.73.477 1.067.576 1.446.013.026.013.052.028.082z"/><path fill="#f7f7f7" d="M160.192 253.161a2.384 2.384 0 0 0 2.376 2.377 2.383 2.383 0 0 0 2.372-2.377v-27.234h-4.749v27.234z"/><path fill="#cce9ff" d="M160.692 252.977a1.875 1.875 0 0 0 3.748 0v-13.461h-3.748v13.461z"/><path fill="#d3d3d3" d="M160.176 225.242a.334.334 0 0 0-.331.332v.02c0 .184.149.332.331.332h4.781a.334.334 0 0 0 .335-.332v-.02a.338.338 0 0 0-.335-.332h-4.781z"/><path fill="#f7f7f7" d="M171.054 253.161a2.383 2.383 0 0 0 2.374 2.377 2.383 2.383 0 0 0 2.374-2.377v-27.234h-4.748v27.234z"/><path fill="#0e538c" d="M171.552 252.977c0 1.033.845 1.872 1.876 1.872a1.877 1.877 0 0 0 1.875-1.872v-13.461h-3.751v13.461z"/><path fill="#d3d3d3" d="M171.037 225.242a.335.335 0 0 0-.331.332v.02c0 .184.149.332.331.332h4.781a.332.332 0 0 0 .332-.332v-.02a.336.336 0 0 0-.332-.332h-4.781z"/><path fill="#f7f7f7" d="M181.915 253.161a2.382 2.382 0 0 0 2.373 2.377 2.383 2.383 0 0 0 2.374-2.377v-27.234h-4.747v27.234z"/><path fill="#2a94f4" d="M182.414 252.977c0 1.033.844 1.872 1.874 1.872a1.876 1.876 0 0 0 1.875-1.872v-13.461h-3.749v13.461z"/><path fill="#d3d3d3" d="M181.898 225.242a.336.336 0 0 0-.332.332v.02c0 .184.15.332.332.332h4.783a.332.332 0 0 0 .331-.332v-.02a.336.336 0 0 0-.331-.332h-4.783z"/><path fill="#f7f7f7" d="M192.775 253.161a2.383 2.383 0 0 0 2.375 2.377 2.383 2.383 0 0 0 2.375-2.377v-27.234h-4.75v27.234z"/><path fill="#ffbe55" d="M193.276 252.977c0 1.033.844 1.872 1.874 1.872 1.03 0 1.874-.839 1.874-1.872v-13.461h-3.748v13.461z"/><path fill="#d3d3d3" d="M192.759 225.242a.335.335 0 0 0-.333.332v.02c0 .184.149.332.333.332h4.782a.332.332 0 0 0 .332-.332v-.02a.336.336 0 0 0-.332-.332h-4.782zM155.882 232.152h45.338v1.744h-45.338zM155.805 255.538h45.338v3.517h-45.338z"/><path fill="#d3d3d3" d="M201.128 229.656h2.88v33.007h-2.88zM152.925 229.656h2.88v33.007h-2.88z"/><path fill="#fcd2b1" d="M265.76 198.525c2.309 2.975 3.611 5.754 2.996 6.336-1.487 1.402-3.861-1.022-5.341-4.461-1.84-4.264-3.662-5.82-2.999-6.319.654-.522 3.05 1.462 5.344 4.444z"/><path fill="#d3d3d3" d="M324.886 212.623c-1.56 3.23-5.815 7.15-12.418 12.951-5.001 4.411-10.116 9.161-14.79 12.895-7.192 5.774-13.332 9.159-16.437 5.297-3.23-4.06 2.542-9.764 8.933-15.214 3.641-3.104 7.487-6.124 9.975-8.693 6.547-6.829 15.397-19.078 21.198-15.918.098.154.211.311.309.479.956 1.502 1.784 3.23 2.444 5.21.295.942.576 1.926.786 2.993z"/><path fill="#fcd2b1" d="M282.389 223.204c4.388 8.284 6.234 11.015 7.994 16.854 0 0-3.24 8.276-9.217 2.982-3.584-3.185-6.246-9.803-8.815-18.281-2.379-7.85-5.269-20.173-5.269-20.173l4.09-2.075c.001.001 6.825 12.42 11.217 20.693z"/><path fill="#d3d3d3" d="M283.328 223.432c4.388 8.281 6.48 10.51 7.055 16.626.245 2.572-4.547 7.18-9.83 3.159-3.815-2.903-6.259-9.218-8.827-17.699-2.377-7.844-4.826-15.829-4.826-15.829l8.08-2.84c0-.001 3.957 8.307 8.348 16.583z"/><path fill="#0e538c" d="m285.498 304.455-23.484-23.416-18.261 6.988s18.052 23.99 21.031 25.573c2.973 1.578 8.222 4.578 9.331 3.299 4.677-5.383 11.383-12.444 11.383-12.444z"/><path fill="#0e538c" d="M245.824 242.05h1.612v17.26h-1.612z" transform="rotate(-149.986 246.624 250.685)"/><path fill="#0b4870" d="m347.772 317.057 15.005 72.545h3.305l-12.724-72.703zM331.402 317.057l15.005 72.545h3.305l-12.723-72.703zM304.927 317.057l-15.006 72.545h-3.305l12.725-72.703z"/><path fill="#2a94f4" d="M290.725 317.642h64.656s4.505-.101 7.52-13.441c3.393-15.01 10.243-65.136 10.243-65.136s-1.816-4.662-30.238-4.065l-50.897 66.036s-1.738 10.41-1.284 16.606z"/><path fill="#fcd2b1" d="M254.333 256.575s-2.299.568-3.396.607c-1.098.04-6.188-2.823-7.815-2.558-1.624.268-12.218 5.81-12.698 6.214-.483.406.225 1.304.225 1.304l24.355.423-.671-5.99zM296.44 196.981a101.891 101.891 0 0 0 1.337 3.101c.172.401.348.828.527 1.268 1.128 2.775 2.382 6.144 2.564 7.818.345 3.129 9.106-13.288 9.106-13.288s-4.112-9.295-7.003-20.287c-2.889-10.992-6.531 21.388-6.531 21.388z"/><path fill="#a77860" d="M295.772 197.745s.337.63.838 1.61c.209.409.451.883.704 1.394 5.559-4.74 6.072-9.028 5.43-9.459-2.706 3.992-6.972 6.455-6.972 6.455z"/><path fill="#fcd2b1" d="M279.753 170.29s-.591 8.323-.05 10.037c.541 1.712 1.421 2.868 1.831 4.913.426 2.122.195 6.962.81 8.064.741 1.333 3.48-.438 4.7 1.762 1.217 2.199 4.91 5.848 6.025 5.562 2.862-.73 12.023-8.749 11.934-11.215-.09-2.463-.515-16.23-.128-19.009.387-2.781-24.061-8.854-24.592-4.483l-.53 4.369z"/><path fill="#0b4870" d="M295.145 178.349s-.593-1.089 1.317-2.033c1.908-.947 6.706 10.624 11.324 11.945 0 0-.314-.842-.128-1.82.295-1.557.697-4.13.819-7.021.392-4.127.523-6.207.159-9.61-.71-6.643-7.872-7.939-7.872-7.939s-6.456-3.778-17.267.66c-10.806 4.438-8.733 11.94-5.874 14.665 2.971 2.832 12.09 5.135 15.698 4.829"/><path fill="#eea886" d="M294.097 177.943s.427-4.678 4.909-2.934c3.262 1.27 2.413 9.203-.242 9.884-2.652.686-4.782-2.93-4.667-6.95z"/><path fill="#f7f7f7" d="M330.745 306.094c-13.584-.353-26.213 5.983-36.132 7.008-9.2.97-10.507 1.504-11.209 1.614h-7.43c-.351-.251-1.911-8.861-2.865-9.565a73.856 73.856 0 0 1-1.446-1.067c-3.934-2.922-6.456-7.542-7.412-8.847-1.686-2.305-5.64-6.311-5.905-9.331-.098-1.04-1.518-3.118-1.546-3.736l8.793-2.136c.69-.212 1.421-.437 2.193-.661 6.657-2.064 15.816-4.789 24.246-6.924 3.104-.786 6.096-1.505 8.836-2.081 2.401-.49 1.499-2.585 2.341-6.04 1.207-4.93 3.332-12.207 1.393-17.713a20.393 20.393 0 0 0-.393-1.067c-1.025-2.544-2.246-4.13-3.555-5.227-.967-.8-1.978-1.363-2.975-1.855-1.672-.814-3.346-1.446-4.751-2.823a8.127 8.127 0 0 1-1.249-1.588c-.393-.632-.7-1.348-.941-2.146-.309-1.028-.477-2.165-.563-3.36a32.346 32.346 0 0 1 0-2.246 26.43 26.43 0 0 1 .858-5.62v-.04a35.508 35.508 0 0 1 2.093-5.185v-.028c.66-1.053 3.864-5.352 7.22-9.791a1930.775 1930.775 0 0 1 8.554-11.224s0-.013.016-.013c.239.181.772.407 1.53.758l.211.084c.016.012.03.012.03.012 2.064.942 5.42 2.628 8.442 5.857.772.831 1.53 1.772 2.22 2.825.098.154.211.311.309.479.956 1.502 1.784 3.23 2.444 5.21.295.942.575 1.926.786 2.993.028.125.056.251.084.393.253 1.321.465 3.062.674 5.155.689 6.757 1.405 17.322 3.779 30.273.309 1.685.66 3.23 1.04 4.676 2.555 9.582 6.656 14.356 10.086 21.31.181.395.365.786.518 1.165.028.058.044.1.058.142.337.788.618 1.586.856 2.402.016 0 .016.014.016.028 3.55 11.97-.41 28.197-11.254 27.93z"/><path fill="#f2f2f2" d="M305.261 210.729s-4.391 6.219-7.105 10.93a2349.342 2349.342 0 0 0-6.766 11.8c-1.357 2.411-5.882 4.921-8.019 5.837-1.965.844-35.01 17.145-35.425 17.108-.417-.037 3.527 6.529 3.527 6.529s45.457-13.037 47.502-14.902c2.04-1.867 8.106-10.368 10.59-13.87 2.361-3.333 5.988-8.805 7.91-11.164 2.149-2.634 6.66-11.653.925-16.152-7.324-5.748-11.378 1.245-13.139 3.884z"/><path fill="#0b4870" d="M134.048 264.33h6.032v127.206h-6.032z" transform="rotate(-180 137.064 327.933)"/><path fill="#0b4870" d="M271.098 264.33h6.032v127.206h-6.032z" transform="rotate(-180 274.114 327.933)"/><path fill="#0b4870" d="M285.638 177.786c15.135-17.571 30.265 10.496 22.148 10.476-8.12-.022-17.275-6.575-17.275-6.575l-6.027-4.533"/><path fill="#d3d3d3" d="M289.575 156.655c13.425-2.037 18.548-4.746 24.113 4.472 3.895 6.443-1.17 24.491-3.634 25.531-2.466 1.042-4.544-.576-6.149-2.288-1.206-1.281-8.534-9.941-11.986-10.278-3.45-.329-10.525-.777-14.263-1.204-1.165-.128-2.647-.908-2.516-4.47.127-3.572 4.846-10.3 14.435-11.763z"/><path fill="#0e538c" d="M126.856 262.201h166.836v4.263H126.856z" transform="rotate(-180 210.274 264.333)"/></svg>