<svg width="30" height="26" viewBox="0 0 30 26" fill="none" xmlns="http://www.w3.org/2000/svg">
<path d="M10.3409 2.08765H3.93607C3.54695 2.08765 3.23151 2.40309 3.23151 2.79221C3.23151 3.18133 3.54695 3.49678 3.93607 3.49678H10.3409C10.73 3.49678 11.0454 3.18133 11.0454 2.79221C11.0453 2.40309 10.7299 2.08765 10.3409 2.08765Z" fill="#2699F9"/>
<path d="M28.171 5.18247C28.171 4.54644 27.6553 4.03086 27.0193 4.03086H18.7514C15.7541 4.03086 15.3451 2.8216 14.2684 1.72753C13.3844 0.82347 12.394 0 10.0503 0H2.38219C1.74617 0 1.23059 0.51571 1.23059 1.15173V7.03736H28.1713V5.18247H28.171ZM10.3408 3.4967H3.93599C3.54686 3.4967 3.23142 3.18126 3.23142 2.79214C3.23142 2.40301 3.54686 2.08757 3.93599 2.08757H10.3408C10.7299 2.08757 11.0453 2.40301 11.0453 2.79214C11.0452 3.18126 10.7298 3.4967 10.3408 3.4967Z" fill="#EAEAEA"/>
<path d="M28.1843 7.03711H28.1709H1.23027H1.21695C0.544923 7.03711 0 7.5819 0 8.25406V24.783C0 25.4551 0.544795 26 1.21695 26H28.1844C28.8564 26 29.4013 25.4552 29.4013 24.783V8.25406C29.4012 7.58203 28.8563 7.03711 28.1843 7.03711ZM12.3191 15.822H9.73314V18.408H6.52177V15.822H3.93579V12.6106H6.52177V10.0246H9.73314V12.6106H12.3191V15.822ZM24.7952 23.4355H18.5872C18.1981 23.4355 17.8826 23.1202 17.8826 22.731C17.8826 22.3418 18.1981 22.0264 18.5872 22.0264H24.7952C25.1843 22.0264 25.4998 22.3418 25.4998 22.731C25.4998 23.1202 25.1843 23.4355 24.7952 23.4355ZM26.3964 20.8561H18.5872C18.1981 20.8561 17.8826 20.5406 17.8826 20.1515C17.8826 19.7624 18.1981 19.4469 18.5872 19.4469H26.3964C26.7855 19.4469 27.101 19.7624 27.101 20.1515C27.101 20.5406 26.7855 20.8561 26.3964 20.8561Z" fill="white"/>
</svg>
