<svg xmlns="http://www.w3.org/2000/svg" width="38" height="38" viewBox="0 0 38 38">
  <g id="Group_18344" data-name="Group 18344" transform="translate(-305 -116)">
    <rect id="Rectangle_6108" data-name="Rectangle 6108" width="38" height="38" rx="19" transform="translate(305 116)" fill="#0f4e6f"/>
    <g id="telephone" transform="translate(314.25 125.583)">
      <path id="Path_37168" data-name="Path 37168" d="M4.932,13.237a21.126,21.126,0,0,0,7.027,5.5,10.937,10.937,0,0,0,3.932,1.164c.095,0,.186.008.281.008A3.256,3.256,0,0,0,18.7,18.828a.09.09,0,0,0,.017-.021,10.632,10.632,0,0,1,.8-.825c.194-.186.392-.38.582-.578a1.992,1.992,0,0,0-.008-2.967l-2.48-2.48a2.007,2.007,0,0,0-1.452-.668,2.075,2.075,0,0,0-1.469.664L13.2,13.431c-.136-.078-.276-.149-.409-.215a5.1,5.1,0,0,1-.454-.248,15.634,15.634,0,0,1-3.734-3.4A9,9,0,0,1,7.346,7.555c.388-.351.751-.718,1.1-1.077.124-.128.252-.256.38-.384a2.115,2.115,0,0,0,.685-1.485,2.1,2.1,0,0,0-.685-1.485L7.6,1.894c-.144-.144-.281-.285-.421-.429C6.9,1.184,6.619.9,6.339.635A2.057,2.057,0,0,0,4.886,0,2.118,2.118,0,0,0,3.417.64L1.874,2.183a3.171,3.171,0,0,0-.945,2.03,7.637,7.637,0,0,0,.574,3.3A19.2,19.2,0,0,0,4.932,13.237Zm-3-8.937a2.183,2.183,0,0,1,.656-1.4L4.127,1.362a1.111,1.111,0,0,1,.759-.351,1.054,1.054,0,0,1,.743.359c.276.256.536.524.817.809.14.144.285.289.429.437L8.1,3.846a1.121,1.121,0,0,1,.388.772,1.12,1.12,0,0,1-.388.772c-.128.128-.256.26-.384.388-.384.388-.743.755-1.139,1.106L6.562,6.9a.807.807,0,0,0-.206.916c0,.012.008.021.012.033a9.711,9.711,0,0,0,1.448,2.356,16.5,16.5,0,0,0,3.978,3.623,5.906,5.906,0,0,0,.545.3,5.1,5.1,0,0,1,.454.248l.045.025a.863.863,0,0,0,.4.1.875.875,0,0,0,.615-.281L15.4,12.68a1.092,1.092,0,0,1,.755-.367,1.036,1.036,0,0,1,.73.367l2.488,2.484a1,1,0,0,1-.012,1.556c-.173.186-.355.363-.549.549a11.883,11.883,0,0,0-.862.9,2.265,2.265,0,0,1-1.77.751c-.07,0-.144,0-.215-.008A9.936,9.936,0,0,1,12.4,17.842,20.07,20.07,0,0,1,5.716,12.6a18.382,18.382,0,0,1-3.26-5.426A6.655,6.655,0,0,1,1.936,4.3Z" transform="translate(-0.912 0)" fill="#fff" stroke="#fff" stroke-width="0.5"/>
    </g>
  </g>
</svg>