<svg xmlns="http://www.w3.org/2000/svg" width="12" height="12" viewBox="0 0 12 12">
  <g id="Group_18391" data-name="Group 18391" transform="translate(-97.617 -647.617)">
    <circle id="Ellipse_650" data-name="Ellipse 650" cx="6" cy="6" r="6" transform="translate(97.617 647.617)" fill="#858ea9"/>
    <g id="telephone" transform="translate(100.55 650.551)">
      <path id="Path_37168" data-name="Path 37168" d="M2.132,4.019A6.414,6.414,0,0,0,4.266,5.69a3.32,3.32,0,0,0,1.194.353l.085,0a.989.989,0,0,0,.767-.329l.005-.006a3.228,3.228,0,0,1,.242-.251c.059-.056.119-.115.177-.175a.6.6,0,0,0,0-.9L5.979,3.63a.609.609,0,0,0-.441-.2.63.63,0,0,0-.446.2l-.448.448c-.041-.024-.084-.045-.124-.065a1.549,1.549,0,0,1-.138-.075A4.746,4.746,0,0,1,3.248,2.905a2.733,2.733,0,0,1-.383-.611c.118-.106.228-.218.334-.327l.115-.117A.642.642,0,0,0,3.523,1.4.637.637,0,0,0,3.315.948L2.941.575,2.814.445C2.731.36,2.644.272,2.559.193A.625.625,0,0,0,2.118,0a.643.643,0,0,0-.446.194L1.2.663a.963.963,0,0,0-.287.616,2.319,2.319,0,0,0,.174,1A5.83,5.83,0,0,0,2.132,4.019Z" transform="translate(-0.912 0)" fill="#fff"/>
    </g>
  </g>
</svg>