<svg width="365" height="364" viewBox="0 0 365 364" fill="none" xmlns="http://www.w3.org/2000/svg">
<path fill-rule="evenodd" clip-rule="evenodd" d="M238.384 196.523L189.129 224.96L215.67 270.932L264.926 242.494C277.62 235.165 281.97 218.933 274.641 206.238C267.311 193.543 251.078 189.193 238.384 196.523ZM223.254 284.067L272.509 255.63C292.458 244.112 299.292 218.603 287.775 198.654C276.257 178.706 250.749 171.871 230.801 183.388L181.545 211.826C180.498 210.012 178.179 209.391 176.366 210.438L120.543 242.667C98.7808 255.231 91.3248 283.059 103.889 304.821C116.454 326.584 144.281 334.04 166.043 321.476L221.866 289.246C223.679 288.199 224.301 285.88 223.254 284.067ZM151.991 240.549L123.598 256.773C112.175 263.301 107.102 276.603 110.25 288.723C111.303 292.776 116.052 294.042 119.688 291.964C121.507 290.925 122.09 288.612 121.472 286.611C119.147 279.086 122.217 270.663 129.242 266.65L157.634 250.425C160.361 248.867 161.309 245.393 159.751 242.665C158.192 239.938 154.718 238.99 151.991 240.549Z" fill="#1D6CAE"/>
<path fill-rule="evenodd" clip-rule="evenodd" d="M176.874 218.901L153.742 232.256C158.711 231.857 163.698 234.288 166.335 238.903C169.971 245.266 167.76 253.373 161.396 257.009L133.004 273.233C129.188 275.414 127.397 280.102 128.718 284.372C130.079 288.777 129.17 295.28 123.451 298.548C119.859 300.6 115.572 301.099 111.704 299.871C110.871 299.605 110.057 299.259 109.281 298.832C109.646 299.572 110.037 300.304 110.456 301.029C120.926 319.165 144.116 325.379 162.252 314.908L214.791 284.575L176.874 218.901ZM189.129 224.96L238.384 196.523C251.078 189.193 267.311 193.543 274.641 206.238C281.97 218.933 277.62 235.165 264.926 242.494L215.67 270.932L189.129 224.96ZM223.254 284.067L272.509 255.63C292.458 244.112 299.292 218.603 287.775 198.654C276.257 178.706 250.749 171.871 230.801 183.388L181.545 211.826C181.545 211.827 181.545 211.825 181.545 211.826C180.498 210.013 178.179 209.391 176.366 210.438L120.543 242.667C98.7808 255.231 91.3248 283.059 103.889 304.821C116.454 326.584 144.281 334.04 166.043 321.476L221.866 289.246C223.679 288.199 224.301 285.88 223.254 284.067ZM123.598 256.773L151.991 240.549C154.718 238.99 158.192 239.938 159.751 242.665C161.309 245.393 160.361 248.867 157.634 250.425L129.242 266.65C122.217 270.663 119.147 279.086 121.472 286.611C122.09 288.612 121.507 290.925 119.688 291.964C116.052 294.042 111.303 292.776 110.25 288.723C107.102 276.603 112.175 263.301 123.598 256.773Z" fill="#1D6CAE"/>
<path d="M299.319 134.332C300.898 135.911 303.503 135.793 304.808 133.981C321.882 110.272 319.754 77.0139 298.426 55.6854C277.097 34.3568 243.839 32.2293 220.13 49.3027C218.318 50.6074 218.2 53.2131 219.779 54.7918L299.319 134.332Z" fill="#1D6CAE"/>
<path d="M211.736 62.8354C210.157 61.2566 207.552 61.3742 206.246 63.1861C189.173 86.8943 191.301 120.153 212.63 141.481C233.958 162.81 267.216 164.937 290.925 147.864C292.737 146.559 292.854 143.954 291.275 142.375L211.736 62.8354Z" fill="#1D6CAE"/>
<path d="M100.947 71.7482C107.339 61.008 123.248 62.1738 128.005 73.7308L165.21 164.111C169.502 174.537 161.321 185.834 150.077 185.011L62.8912 178.622C51.6467 177.798 45.2003 165.429 50.9659 155.741L100.947 71.7482Z" fill="#1D6CAE"/>
</svg>
