<svg width="34" height="34" viewBox="0 0 34 34" fill="none" xmlns="http://www.w3.org/2000/svg">
<g clip-path="url(#clip0_71_553)">
<path d="M2.28833 27.8072H3.60478C4.10761 27.8072 4.51561 27.3994 4.51561 26.8963C4.51561 26.3935 4.10789 25.9855 3.60478 25.9855H2.28833V21.9177H3.60478C4.10761 21.9177 4.51561 21.5099 4.51561 21.0068C4.51561 20.504 4.10789 20.096 3.60478 20.096H2.28833V16.0285H3.60478C4.10761 16.0285 4.51561 15.6208 4.51561 15.1177C4.51561 14.6148 4.10789 14.2068 3.60478 14.2068H2.28833V10.1391H3.60478C4.10761 10.1391 4.51561 9.73133 4.51561 9.22822C4.51561 8.72511 4.10789 8.31739 3.60478 8.31739H2.28833V4.25H3.60478C4.10789 4.25 4.51561 3.84228 4.51561 3.33917C4.51561 2.83606 4.10789 2.42833 3.60478 2.42833H2.28833V0H0V31.7117V34H2.28833H34V31.7117H2.28833V27.8072Z" fill="white"/>
<path d="M7.96881 30.2813H13.2813C13.8681 30.2813 14.3438 29.8055 14.3438 29.2188V18.5938C14.3438 18.007 13.8681 17.5312 13.2813 17.5312H7.96881C7.38203 17.5312 6.90631 18.007 6.90631 18.5938V29.2188C6.90626 29.8055 7.38198 30.2813 7.96881 30.2813ZM8.23442 18.8594H13.0156V21.5156H8.23442V18.8594Z" fill="white"/>
<path d="M27.0938 30.2812H32.4063C32.9931 30.2812 33.4688 29.8055 33.4688 29.2187V4.25C33.4688 3.66322 32.9931 3.1875 32.4063 3.1875H27.0938C26.507 3.1875 26.0313 3.66322 26.0313 4.25V29.2188C26.0313 29.8055 26.507 30.2812 27.0938 30.2812ZM27.3594 4.51561H32.1406V7.4375H27.3594V4.51561Z" fill="white"/>
<path d="M17.5312 30.2812H22.8437C23.4305 30.2812 23.9062 29.8055 23.9062 29.2187V11.4219C23.9062 10.8351 23.4305 10.3594 22.8437 10.3594H17.5312C16.9444 10.3594 16.4687 10.8351 16.4687 11.4219V29.2188C16.4687 29.8055 16.9445 30.2812 17.5312 30.2812ZM17.7969 11.6875H22.5781V14.6094H17.7969V11.6875Z" fill="white"/>
</g>
<defs>
<clipPath id="clip0_71_553">
<rect width="34" height="34" fill="white"/>
</clipPath>
</defs>
</svg>
