<svg xmlns="http://www.w3.org/2000/svg" width="16.667" height="20" viewBox="0 0 16.667 20">
  <g id="Layer_5" data-name="Layer 5" transform="translate(-11 -4)">
    <path id="Path_37147" data-name="Path 37147" d="M21.714,23.206H11.794V4.794H22.508V7.968a.4.4,0,0,0,.4.4h3.175V10.9a.4.4,0,1,0,.794,0V7.968a.4.4,0,0,0-.115-.282L23.187,4.115A.4.4,0,0,0,22.9,4H11.4a.4.4,0,0,0-.4.4V23.6a.4.4,0,0,0,.4.4H21.714a.4.4,0,0,0,0-.794ZM23.3,5.353,25.52,7.571H23.3Z" transform="translate(0)" fill="#0f4e6f"/>
    <path id="Path_37148" data-name="Path 37148" d="M29.556,15.571V13.984a.4.4,0,0,0-.4-.4h-1.19V12.4a.4.4,0,0,0-.4-.4H25.984a.4.4,0,0,0-.4.4v1.19H24.4a.4.4,0,0,0-.4.4v1.587a.4.4,0,0,0,.4.4h1.19v1.19a.4.4,0,0,0,.4.4h1.587a.4.4,0,0,0,.4-.4v-1.19h1.19A.4.4,0,0,0,29.556,15.571Zm-.794-.4h-1.19a.4.4,0,0,0-.4.4v1.19h-.794v-1.19a.4.4,0,0,0-.4-.4h-1.19v-.794h1.19a.4.4,0,0,0,.4-.4v-1.19h.794v1.19a.4.4,0,0,0,.4.4h1.19Z" transform="translate(-7.841 -4.825)" fill="#0f4e6f"/>
    <path id="Path_37149" data-name="Path 37149" d="M44.159,30H39.4a.388.388,0,0,0-.4.379v1.515a.388.388,0,0,0,.4.379h.4v7.2a1.986,1.986,0,0,0,3.968,0v-7.2h.4a.388.388,0,0,0,.4-.379V30.379A.388.388,0,0,0,44.159,30Zm-2.778,1.515v-.758h.794v.758Zm-1.587-.758h.794v.758h-.794Zm.794,3.788h.794v3.788h-.794Zm2.381,4.925a1.192,1.192,0,0,1-2.381,0v-.379h1.19a.388.388,0,0,0,.4-.379V34.167a.388.388,0,0,0-.4-.379h-1.19V32.273h2.381Zm.794-7.955h-.794v-.758h.794Z" transform="translate(-16.889 -17.396)" fill="#0f4e6f"/>
    <path id="Path_37150" data-name="Path 37150" d="M17.4,30.794h5.556a.4.4,0,1,0,0-.794H17.4a.4.4,0,1,0,0,.794Z" transform="translate(-3.619 -15.524)" fill="#0f4e6f"/>
    <path id="Path_37154" data-name="Path 37154" d="M31.968,42H28.4a.4.4,0,1,0,0,.794h3.571a.4.4,0,1,0,0-.794Z" transform="translate(-10.651 -21.809)" fill="#0f4e6f"/>
    <path id="Path_37155" data-name="Path 37155" d="M20.175,42H17.4a.4.4,0,1,0,0,.794h2.778a.4.4,0,1,0,0-.794Z" transform="translate(-3.619 -21.809)" fill="#0f4e6f"/>
    <path id="Path_37156" data-name="Path 37156" d="M22.952,38.4a.4.4,0,0,0-.4-.4H17.4a.4.4,0,1,0,0,.794h5.159A.4.4,0,0,0,22.952,38.4Z" transform="translate(-3.619 -19.714)" fill="#0f4e6f"/>
    <path id="Path_37157" data-name="Path 37157" d="M35.587,38H34.4a.4.4,0,1,0,0,.794h1.19a.4.4,0,1,0,0-.794Z" transform="translate(-14.27 -19.714)" fill="#0f4e6f"/>
    <path id="Path_37158" data-name="Path 37158" d="M30.365,34.4a.4.4,0,0,0-.4-.4H26.4a.4.4,0,1,0,0,.794h3.571A.4.4,0,0,0,30.365,34.4Z" transform="translate(-9.445 -17.619)" fill="#0f4e6f"/>
    <path id="Path_37159" data-name="Path 37159" d="M17.4,34.794h1.984a.4.4,0,1,0,0-.794H17.4a.4.4,0,1,0,0,.794Z" transform="translate(-3.619 -17.619)" fill="#0f4e6f"/>
  </g>
</svg>