<svg width="52" height="48" viewBox="0 0 52 48" fill="none" xmlns="http://www.w3.org/2000/svg">
<path d="M7.5 40.5C3.63401 40.5 0.5 37.366 0.5 33.5L0.499999 26C0.499999 11.9167 11.9167 0.499998 26 0.499998V0.499998C40.0833 0.499997 51.5 11.9167 51.5 26L51.5 33.5C51.5 37.366 48.366 40.5 44.5 40.5L7.5 40.5Z" fill="#B6E3FF"/>
<g clip-path="url(#clip0_4_335)">
<path d="M20.5483 30.606C20.1224 31.6849 19.6651 32.7743 19.2708 33.8902C19.1025 34.3662 19.0605 34.8897 18.9921 35.3974C18.9553 35.6566 18.8817 35.7941 18.5978 35.8681C16.9418 36.3123 15.9377 37.5974 15.8798 39.3374C15.8536 40.0672 15.8693 40.797 15.8798 41.5215C15.8851 42.0663 16.0533 42.2355 16.5843 42.2461C17.047 42.2566 17.5043 42.2408 17.967 42.2461C18.3192 42.2514 18.5663 42.0821 18.5715 41.7384C18.5768 41.3629 18.3192 41.1937 17.9459 41.1989C17.62 41.2042 17.294 41.1989 16.9523 41.1989C16.9523 40.3792 16.8735 39.6124 16.9681 38.872C17.1258 37.6556 18.2982 36.7354 19.4863 36.783C20.7428 36.8306 21.81 37.7667 21.9362 39.0201C22.0045 39.7182 21.9467 40.4321 21.9467 41.1989C21.5682 41.1989 21.2264 41.1937 20.8847 41.1989C20.5378 41.2042 20.2959 41.3735 20.3012 41.7331C20.3064 42.0927 20.5535 42.2514 20.9005 42.2514C21.3947 42.2566 21.8889 42.2566 22.383 42.2514C22.7878 42.2514 22.9876 42.0345 22.9824 41.6326C22.9771 40.7547 23.0034 39.8768 22.9613 38.9989C22.8877 37.5499 21.8468 36.2965 20.3905 35.8787C20.0909 35.7941 20.0068 35.7042 20.0436 35.3816C20.2276 33.8743 20.7586 32.5046 21.5997 31.1719C22.1359 31.8012 22.6459 32.3935 23.1558 32.9858C23.608 33.5147 24.0496 34.0436 24.507 34.5724C25.3902 35.5931 26.6046 35.5931 27.4825 34.5777C28.4867 33.4142 29.4803 32.2507 30.5002 31.0661C31.294 31.8647 31.9144 32.7108 32.1194 33.8373C31.436 34.1335 30.9208 34.5618 30.742 35.3075C30.5002 36.3282 31.0732 37.3912 32.0616 37.7244C33.0552 38.0576 34.1487 37.5657 34.5588 36.5926C34.9636 35.6407 34.5956 34.5089 33.6545 34.0488C33.2602 33.8585 33.1236 33.6099 33.0132 33.2238C32.887 32.769 32.6925 32.3195 32.4664 31.9017C32.2403 31.4839 31.9407 31.1084 31.6147 30.6324C31.8303 30.68 31.988 30.7171 32.1457 30.7594C36.199 31.8382 38.9643 35.0907 39.4427 39.3109C39.6005 40.723 39.795 42.135 39.9632 43.5471C40.1525 45.123 39.1904 46.4822 37.6448 46.7995C31.9617 47.963 26.2313 48.3173 20.4589 47.7091C18.4033 47.4923 16.353 47.1538 14.3132 46.7942C12.8359 46.5351 11.8476 45.2288 12.0053 43.7374C12.2103 41.7965 12.4101 39.8451 12.7991 37.9359C13.5562 34.1705 16.6474 31.394 20.3537 30.6113C20.4536 30.5901 20.5535 30.606 20.5483 30.606ZM29.0807 43.1504C29.0913 43.3461 29.107 43.4783 29.107 43.6105C29.1123 44.9802 28.9651 44.7951 30.3898 44.811C30.721 44.8163 30.8787 44.6841 30.8629 44.3403C30.8524 43.9648 30.8577 43.5894 30.8577 43.1874C31.0312 43.1716 31.1626 43.1557 31.2888 43.1504C32.5821 43.1293 32.5768 43.1293 32.5032 41.8389C32.4874 41.511 32.356 41.3523 32.0248 41.3576C31.6515 41.3682 31.2783 41.3576 30.8577 41.3576C30.8577 41.1672 30.8577 41.0403 30.8577 40.9081C30.8472 39.6388 31.0207 39.7605 29.6906 39.7393C29.27 39.734 29.0755 39.8715 29.1018 40.3105C29.1228 40.6648 29.107 41.0191 29.107 41.4105C28.6654 41.4105 28.3027 41.4263 27.9452 41.4052C27.451 41.3735 27.4247 41.7172 27.5036 42.024C27.6035 42.41 27.0988 43.0711 27.9452 43.1398C28.3027 43.1769 28.6654 43.1504 29.0807 43.1504Z" fill="#4BABE7"/>
<path d="M32.8765 22.6309C32.8344 24.6405 32.1036 26.793 30.3793 28.5117C27.7401 31.1401 23.8498 30.9868 21.3631 28.1944C18.4296 24.8997 18.4349 19.4102 21.3736 16.1736C24.1074 13.1644 28.3815 13.2966 30.9313 16.4697C32.214 18.0669 32.8817 20.0448 32.8765 22.6309Z" fill="#4BABE7"/>
<path d="M31.7304 35.7518C31.7304 35.1806 32.172 34.7522 32.7398 34.7628C33.2655 34.7734 33.7071 35.2282 33.7071 35.757C33.7071 36.2965 33.2234 36.7672 32.682 36.7513C32.151 36.7354 31.7251 36.2965 31.7304 35.7518Z" fill="#4BABE7"/>
</g>
<defs>
<clipPath id="clip0_4_335">
<rect width="28" height="34" fill="white" transform="translate(12 14)"/>
</clipPath>
</defs>
</svg>
