<svg width="51" height="48" viewBox="0 0 51 48" fill="none" xmlns="http://www.w3.org/2000/svg">
<path d="M7 40C3.13401 40 -1.36992e-07 36.866 -3.0598e-07 33L-6.33815e-07 25.5C-1.24941e-06 11.4167 11.4167 1.94475e-06 25.5 1.32915e-06V1.32915e-06C39.5833 7.13551e-07 51 11.4167 51 25.5L51 33C51 36.866 47.866 40 44 40L7 40Z" fill="#B6E3FF"/>
<path d="M34.8004 47.9995C27.7341 47.9995 20.6698 47.9995 13.6035 47.9995C13.4043 47.5732 13.0342 47.145 13.0322 46.7167C13 37.526 13.0121 28.3354 13 19.1447C12.998 18.2138 13.4043 17.7956 14.3175 17.8117C15.1342 17.8237 15.9508 17.8137 16.8198 17.8137C16.8198 16.9692 16.8178 16.2715 16.8198 15.5758C16.8258 14.2508 17.0712 14.0015 18.3847 14.0015C24.7772 13.9995 31.1697 13.9995 37.5622 14.0015C38.8495 14.0015 39.119 14.2709 39.1231 15.5919C39.1311 18.1897 39.1231 20.7874 39.1291 23.3852C39.1291 23.719 39.1633 24.0527 39.1995 24.6981C40.169 23.6868 40.8932 22.9067 41.6455 22.1527C42.5144 21.28 43.5684 21.0106 44.7612 21.3042C45.8977 21.5836 46.4569 22.4844 47 23.3993C47 23.9984 47 24.5996 47 25.1988C46.473 25.8643 45.9963 26.5821 45.4089 27.1893C43.5564 29.0974 41.6354 30.9392 39.8009 32.8654C39.4389 33.2474 39.1693 33.8808 39.1573 34.4035C39.0929 37.1279 39.1331 39.8564 39.1251 42.5828C39.1211 43.8797 38.8193 44.1732 37.5501 44.1813C36.8038 44.1853 36.0556 44.1813 35.4903 44.1813C35.2349 45.5827 35.0176 46.7911 34.8004 47.9995ZM36.9808 35.7889C36.4076 36.2191 35.9852 36.6997 35.4561 36.8987C34.1547 37.3913 32.811 37.7854 31.4694 38.1594C30.3188 38.4811 29.7234 37.8437 30.0553 36.6735C30.345 35.6521 30.6185 34.6146 31.0309 33.6395C31.3567 32.8694 31.7792 32.0893 32.3384 31.478C33.6418 30.0545 35.082 28.7556 36.3995 27.3441C36.7415 26.9782 37.007 26.3871 37.017 25.8925C37.0734 22.9288 37.0472 19.9631 37.0432 16.9974C37.0432 16.6797 37.009 16.362 36.9909 16.0504C30.9122 16.0504 24.9341 16.0504 18.9218 16.0504C18.9218 24.7504 18.9218 33.3922 18.9218 42.0902C24.9683 42.0902 30.9444 42.0902 36.9829 42.0902C36.9808 39.9931 36.9808 37.9483 36.9808 35.7889ZM15.0718 19.8927C15.0718 28.6109 15.0718 37.2787 15.0718 45.9265C21.1545 45.9265 27.1628 45.9265 33.1671 45.9265C33.1671 45.3294 33.1671 44.8086 33.1671 44.1813C32.7628 44.1813 32.4067 44.1813 32.0487 44.1813C27.553 44.1813 23.0574 44.1813 18.5597 44.1813C17.0672 44.1813 16.8198 43.936 16.8198 42.4541C16.8178 35.3264 16.8198 28.1967 16.8198 21.0689C16.8198 20.6849 16.8198 20.3009 16.8198 19.8947C16.15 19.8927 15.631 19.8927 15.0718 19.8927ZM35.7538 33.8627C35.9047 33.7501 36.0757 33.6535 36.2104 33.5188C38.9662 30.7683 41.7239 28.0177 44.4676 25.2551C45.238 24.479 45.1374 23.4777 44.2322 23.3027C43.8219 23.2243 43.2043 23.5098 42.8765 23.8315C40.1389 26.5057 37.4455 29.2261 34.7441 31.9365C34.5892 32.0913 34.4705 32.2843 34.3036 32.4994C34.7763 32.9458 35.2128 33.354 35.7538 33.8627ZM32.4932 35.7305C33.1631 35.4953 33.5714 35.3505 33.9737 35.2098C33.6518 34.8077 33.3944 34.49 33.0343 34.0396C32.8352 34.6649 32.7024 35.0791 32.4932 35.7305Z" fill="#4BABE7"/>
<path d="M27.897 19.8503C29.5585 19.8503 31.2199 19.8564 32.8794 19.8483C33.6538 19.8443 34.3619 20.0253 34.3357 20.9361C34.3116 21.7806 33.6176 21.9394 32.8895 21.9374C29.6007 21.9314 26.3119 21.9354 23.0232 21.9334C22.301 21.9334 21.6272 21.7826 21.6252 20.8959C21.6232 20.0112 22.285 19.8483 23.0131 19.8483C24.6404 19.8503 26.2677 19.8503 27.897 19.8503Z" fill="#4BABE7"/>
<path d="M27.9433 27.3802C26.2778 27.3802 24.6103 27.3742 22.9447 27.3822C22.2327 27.3862 21.6473 27.1872 21.6232 26.3708C21.5991 25.5264 22.1945 25.3474 22.9045 25.3474C26.2697 25.3514 29.6349 25.3555 33.0001 25.3434C33.7162 25.3414 34.3378 25.5324 34.3357 26.3326C34.3337 27.1751 33.6981 27.3902 32.9378 27.3822C31.2763 27.3681 29.6088 27.3802 27.9433 27.3802Z" fill="#4BABE7"/>
<path d="M25.793 32.7989C24.8275 32.7989 23.86 32.7868 22.8945 32.8029C22.1683 32.8149 21.6051 32.6099 21.6212 31.7734C21.6353 31.0034 22.1623 30.7943 22.8502 30.7983C24.8154 30.8083 26.7806 30.8083 28.7479 30.7983C29.4418 30.7943 29.9608 31.0255 29.9769 31.7815C29.993 32.5375 29.4961 32.8089 28.7921 32.8009C27.7924 32.7908 26.7927 32.7989 25.793 32.7989Z" fill="#4BABE7"/>
<path d="M25.0065 38.2477C24.2401 38.2477 23.4537 38.3543 22.7175 38.2055C22.3091 38.1231 21.76 37.6606 21.6795 37.2826C21.5488 36.6553 22.0577 36.2411 22.7175 36.2311C24.2824 36.2069 25.8473 36.215 27.4122 36.225C28.076 36.229 28.5266 36.595 28.5286 37.2505C28.5306 37.918 28.07 38.2477 27.4042 38.2518C26.6056 38.2558 25.8071 38.2538 25.0065 38.2538C25.0065 38.2497 25.0065 38.2477 25.0065 38.2477Z" fill="#4BABE7"/>
</svg>
