<svg xmlns="http://www.w3.org/2000/svg" width="14" height="14" viewBox="0 0 14 14">
  <g id="Layer_22" data-name="Layer 22" transform="translate(-2.001 -2)">
    <path id="Path_37209" data-name="Path 37209" d="M11.5,7.23,9.706,9l1.8,1.77a.507.507,0,1,1-.7.73L9,9.705l-1.77,1.8a.5.5,0,0,1-.705-.7L8.3,9,6.526,7.23a.5.5,0,0,1,.705-.705L9,8.3l1.77-1.77a.507.507,0,1,1,.73.705Zm2.45,6.72a7,7,0,1,1,0-9.9,7,7,0,0,1,0,9.9Zm-.7-9.2a6,6,0,1,0,1.765,4.25,6,6,0,0,0-1.765-4.25Z" transform="translate(0 0)" fill="#3b3e51"/>
  </g>
</svg>