<svg xmlns="http://www.w3.org/2000/svg" width="22.567" height="22.567" viewBox="0 0 22.567 22.567">
  <g id="Group_18372" data-name="Group 18372" transform="translate(-31 -268)">
    <path id="Medicine_Orders" data-name="Medicine Orders" d="M5.358-1.612l.625-7.215a.989.989,0,0,0-1.072-.964.989.989,0,0,0-1.072.964l.625,7.215ZM3.858.335a1.054,1.054,0,0,0,2.107,0,1.054,1.054,0,0,0-2.107,0Z" transform="translate(37.163 283.792)" fill="#fff"/>
    <g id="info" transform="translate(30.851 267.85)">
      <g id="Group_18371" data-name="Group 18371" transform="translate(0)">
        <g id="Group_18370" data-name="Group 18370">
          <path id="Subtraction_9" data-name="Subtraction 9" d="M4705.583-3597.2a11.3,11.3,0,0,1-11.284-11.283,11.3,11.3,0,0,1,11.284-11.283,11.3,11.3,0,0,1,11.283,11.283A11.3,11.3,0,0,1,4705.583-3597.2Zm0-21.827a10.556,10.556,0,0,0-10.543,10.543,10.556,10.556,0,0,0,10.543,10.543,10.556,10.556,0,0,0,10.544-10.543A10.556,10.556,0,0,0,4705.583-3619.027Z" transform="translate(-4694.15 3619.917)" fill="#fff"/>
        </g>
      </g>
    </g>
  </g>
</svg>