<svg xmlns="http://www.w3.org/2000/svg" width="22.366" height="24.41" viewBox="0 0 22.366 24.41">
  <g id="reset-password" transform="translate(-21.25 -0.25)">
    <path id="Subtraction_6" data-name="Subtraction 6" d="M4724.8-3472.247a.454.454,0,0,1-.081-.007,11.18,11.18,0,0,1-6.619-3.782,11.22,11.22,0,0,1-2.667-7.259,11.215,11.215,0,0,1,2.667-7.259,11.206,11.206,0,0,1,4.915-3.348l.507-.173-.885-.534a.482.482,0,0,1-.163-.659.477.477,0,0,1,.411-.232.479.479,0,0,1,.247.07l1.918,1.159a.47.47,0,0,1,.21.288.471.471,0,0,1-.043.356l-1.1,1.952a.483.483,0,0,1-.419.243.476.476,0,0,1-.233-.061.482.482,0,0,1-.182-.655l.583-1.037-.625.219a10.256,10.256,0,0,0-4.415,3.033,10.259,10.259,0,0,0-2.437,6.637,10.252,10.252,0,0,0,2.437,6.636,10.227,10.227,0,0,0,6.052,3.458.477.477,0,0,1,.31.2.478.478,0,0,1,.081.359A.48.48,0,0,1,4724.8-3472.247Z" transform="translate(-4694.184 3495.75)" fill="#fff"/>
    <path id="Subtraction_5" data-name="Subtraction 5" d="M4717.826-3472.248a.469.469,0,0,1-.246-.069l-1.919-1.16a.463.463,0,0,1-.21-.288.471.471,0,0,1,.044-.355l1.1-1.952a.483.483,0,0,1,.418-.244.483.483,0,0,1,.234.062.475.475,0,0,1,.226.289.478.478,0,0,1-.043.365l-.583,1.038.625-.219a10.267,10.267,0,0,0,4.416-3.034,10.257,10.257,0,0,0,2.436-6.636,10.259,10.259,0,0,0-2.436-6.637,10.233,10.233,0,0,0-6.052-3.458.478.478,0,0,1-.311-.2.476.476,0,0,1-.081-.358.477.477,0,0,1,.471-.4.565.565,0,0,1,.081.007,11.184,11.184,0,0,1,6.62,3.782,11.215,11.215,0,0,1,2.665,7.258,11.218,11.218,0,0,1-2.665,7.26,11.211,11.211,0,0,1-4.916,3.347l-.507.173.885.535a.481.481,0,0,1,.163.659A.475.475,0,0,1,4717.826-3472.248Z" transform="translate(-4681.662 3496.907)" fill="#fff"/>
    <path id="Subtraction_7" data-name="Subtraction 7" d="M4723.164-3484.27h-6.243a1.49,1.49,0,0,1-1.487-1.49v-4a1.5,1.5,0,0,1,.842-1.343l.141-.069v-.7a3.634,3.634,0,0,1,3.626-3.632,3.6,3.6,0,0,1,2.562,1.065,3.606,3.606,0,0,1,1.063,2.567v.7l.141.069a1.5,1.5,0,0,1,.842,1.343v4A1.49,1.49,0,0,1,4723.164-3484.27Zm-6.243-6.213a.725.725,0,0,0-.724.725v4a.725.725,0,0,0,.724.725h6.243a.725.725,0,0,0,.724-.725v-4a.725.725,0,0,0-.724-.725Zm3.122-4.251a2.868,2.868,0,0,0-2.863,2.866v.619h5.724v-.619A2.867,2.867,0,0,0,4720.043-3494.734Z" transform="translate(-4687.609 3501.999)" fill="#fff"/>
    <path id="Subtraction_8" data-name="Subtraction 8" d="M4715.816-3493.859a.383.383,0,0,1-.382-.382v-.876a.383.383,0,0,1,.382-.382.383.383,0,0,1,.382.382v.876A.383.383,0,0,1,4715.816-3493.859Z" transform="translate(-4683.382 3508.919)" fill="#fff"/>
  </g>
</svg>