<svg width="51" height="49" viewBox="0 0 51 49" fill="none" xmlns="http://www.w3.org/2000/svg">
<path d="M7 40C3.13401 40 -1.36992e-07 36.866 -3.0598e-07 33L-6.33815e-07 25.5C-1.24941e-06 11.4167 11.4167 -1.86995e-06 25.5 -2.48555e-06V-2.48555e-06C39.5833 -3.10115e-06 51 11.4167 51 25.5L51 33C51 36.866 47.866 40 44 40L7 40Z" fill="#B6E3FF"/>
<g clip-path="url(#clip0_4_334)">
<path d="M37.5 42.5042C37.5 34.6825 37.5018 26.8607 37.5 19.039C37.5 17.7044 36.4512 16.6732 35.1031 16.6696C34.1088 16.6659 33.1126 16.6696 32.1183 16.6696C32.0185 16.6696 31.9187 16.6696 31.8189 16.6696C31.7899 16.0808 31.6864 15.9869 31.1022 15.9887C30.879 15.9887 30.6558 15.9887 30.4326 15.9887C29.6706 15.9887 28.9103 15.9887 28.1246 15.9887C28.0539 15.3096 27.8198 14.7155 27.3317 14.2459C26.8436 13.7782 26.2612 13.5253 25.5807 13.5037C25.0037 13.4856 24.4775 13.6409 24.0058 13.9678C23.3054 14.4536 22.9643 15.1489 22.8717 15.9887C21.8429 15.9887 20.8395 15.9887 19.8343 15.9887C19.319 15.9887 19.1884 16.1187 19.1902 16.6696C19.0759 16.6696 18.9743 16.6696 18.8745 16.6696C17.9073 16.6696 16.9402 16.6696 15.9731 16.6714C14.5143 16.6732 13.5 17.6791 13.5 19.1293C13.5 28.1087 13.5 37.088 13.5 46.0656C13.5 47.4761 14.5252 48.4964 15.9477 48.4964C22.3183 48.4982 28.6889 48.4982 35.0595 48.4964C36.4766 48.4964 37.4964 47.4706 37.5 46.0584C37.5018 44.8736 37.5 43.6889 37.5 42.5042ZM25.51 14.766C25.9582 14.7697 26.3319 15.1417 26.3301 15.5787C26.3265 16.0284 25.9346 16.4041 25.4791 16.3932C25.0364 16.3824 24.6644 15.9977 24.6753 15.5607C24.6844 15.1164 25.0564 14.7624 25.51 14.766ZM35.7817 45.9121C35.7817 46.5875 35.5803 46.7898 34.9035 46.7898C28.6363 46.7898 22.3673 46.7898 16.1001 46.7898C15.4215 46.7898 15.2201 46.5893 15.2201 45.9121C15.2201 37.0068 15.2201 28.1032 15.2201 19.1979C15.2201 18.5965 15.4397 18.378 16.0421 18.3762C17.1398 18.3762 18.2376 18.3816 19.3335 18.3708C19.5386 18.369 19.6039 18.443 19.6402 18.6254C19.7617 19.2503 19.896 19.8752 20.0266 20.4982C20.1029 20.8576 20.2444 20.9822 20.6182 20.9895C21.1008 20.9967 21.5853 20.9931 22.0679 20.9931C24.7933 20.9931 27.5168 20.9931 30.2421 20.9931C30.7738 20.9931 30.8899 20.9046 31.0006 20.3917C31.1421 19.7325 31.2746 19.0715 31.4179 18.3726C32.2253 18.3726 33.0056 18.3726 33.7858 18.3726C34.1958 18.3726 34.6041 18.3726 35.0142 18.3762C35.5422 18.3798 35.7799 18.6146 35.7817 19.1401C35.7835 21.3994 35.7817 23.6569 35.7817 25.9162C35.7817 32.5839 35.7817 39.248 35.7817 45.9121Z" fill="#4BABE7"/>
<path d="M25.4991 31.2167C27.7781 31.2167 29.6288 29.3746 29.6325 27.1045C29.6361 24.8253 27.8053 22.9941 25.5154 22.985C23.2274 22.9742 21.3748 24.8019 21.3675 27.0738C21.3603 29.362 23.2092 31.2167 25.4991 31.2167ZM22.6576 26.2557C23.3217 26.2557 23.9768 26.2557 24.6517 26.2557C24.6517 25.5748 24.6517 24.9301 24.6517 24.2637C25.216 24.2637 25.7567 24.2637 26.3428 24.2637C26.3428 24.9247 26.3428 25.5694 26.3428 26.2503C27.016 26.2503 27.671 26.2503 28.3424 26.2503C28.3424 26.8264 28.3424 27.3664 28.3424 27.9407C27.6801 27.9407 27.0251 27.9407 26.3501 27.9407C26.3501 28.6179 26.3501 29.2626 26.3501 29.9254C25.7858 29.9254 25.2414 29.9254 24.6663 29.9254C24.6663 29.2807 24.6663 28.6287 24.6663 27.9461C23.9804 27.9461 23.3272 27.9461 22.6576 27.9461C22.6576 27.3736 22.6576 26.8318 22.6576 26.2557Z" fill="#4BABE7"/>
<path d="M18.8327 35.6107C21.0536 35.6107 23.2745 35.6107 25.4955 35.6107C27.7345 35.6107 29.9754 35.6089 32.2144 35.6143C32.4775 35.6143 32.6916 35.5421 32.8459 35.3326C33.0745 35.0219 33.0999 34.6842 32.9366 34.3375C32.786 34.0142 32.5138 33.8986 32.1655 33.9004C27.7236 33.9022 23.2818 33.9022 18.84 33.9022C18.292 33.9022 17.9672 34.2255 17.9636 34.7583C17.9636 35.291 18.2884 35.6107 18.8327 35.6107Z" fill="#4BABE7"/>
<path d="M32.1673 38.1084C29.9554 38.1156 27.7436 38.112 25.5318 38.112C23.2927 38.112 21.0518 38.1138 18.8128 38.1102C18.5551 38.1102 18.3319 38.1716 18.1704 38.3756C17.9309 38.679 17.8965 39.0204 18.0489 39.3689C18.194 39.6994 18.4662 39.8295 18.8327 39.8295C21.324 39.8222 23.8134 39.8258 26.3047 39.8258C28.2662 39.8258 30.2258 39.824 32.1872 39.8277C32.4449 39.8277 32.6681 39.7662 32.8296 39.5622C33.0691 39.2588 33.1035 38.9174 32.9493 38.5707C32.8042 38.2384 32.5338 38.1084 32.1673 38.1084Z" fill="#4BABE7"/>
<path d="M32.1691 42.3271C29.9463 42.3271 27.7236 42.3271 25.5009 42.3271C23.2782 42.3271 21.0554 42.3307 18.8327 42.3235C18.4934 42.3217 18.2394 42.4301 18.0725 42.7317C17.8057 43.2157 18.0289 44.0482 18.8472 44.0446C23.2836 44.0284 27.72 44.0374 32.1564 44.0356C32.708 44.0356 33.0328 43.7177 33.0364 43.1832C33.0382 42.6504 32.7134 42.3271 32.1691 42.3271Z" fill="#4BABE7"/>
</g>
<defs>
<clipPath id="clip0_4_334">
<rect width="24" height="35" fill="white" transform="translate(13.5 13.5)"/>
</clipPath>
</defs>
</svg>
