<?xml version="1.0" encoding="iso-8859-1"?>
<!-- Uploaded to: SVG Repo, www.svgrepo.com, Generator: SVG Repo Mixer Tools -->
<svg height="800px" width="800px" version="1.1" id="Layer_1" xmlns="http://www.w3.org/2000/svg" xmlns:xlink="http://www.w3.org/1999/xlink" 
	 viewBox="0 0 512 512" xml:space="preserve">
<polygon style="fill:#AAB2BC;" points="54.164,202.723 450.375,350.598 457.844,330.598 61.625,182.738 "/>
<polygon style="fill:#CCD1D9;" points="457.844,202.723 61.625,350.598 54.164,330.598 450.375,182.738 "/>
<path style="fill:#434A54;" d="M362.656,95.996H192c-11.781,0-21.336,9.555-21.336,21.336v59.383
	c0,11.789,9.555,21.336,21.336,21.336h170.656c11.781,0,21.344-9.547,21.344-21.336v-59.383
	C384,105.551,374.438,95.996,362.656,95.996z M362.656,176.715H192v-59.383h170.656V176.715z"/>
<path style="fill:#5E9CEA;" d="M490.656,138.66h-341.32c0-11.781-9.555-21.328-21.336-21.328H21.336
	C9.555,117.332,0,126.879,0,138.66v42.672c0,11.781,9.555,21.328,21.336,21.328h469.32c11.781,0,21.344-9.547,21.344-21.328v-21.336
	C512,148.215,502.438,138.66,490.656,138.66z"/>
<path style="fill:#4A89DC;" d="M490.656,138.66h-341.32c0-11.781-9.555-21.328-21.336-21.328H21.336
	C9.555,117.332,0,126.879,0,138.66v21.336c0-11.781,9.555-21.336,21.336-21.336H128c11.781,0,21.336,9.555,21.336,21.336h341.32
	c11.781,0,21.344,9.555,21.344,21.336v-21.336C512,148.215,502.438,138.66,490.656,138.66z"/>
<path style="fill:#646C77;" d="M64,405.332c-11.766,0-21.336-9.578-21.336-21.328c0-11.781,9.57-21.344,21.336-21.344
	s21.336,9.562,21.336,21.344C85.336,395.754,75.766,405.332,64,405.332z"/>
<path style="fill:#424953;" d="M64,352.004c-17.672,0-32,14.312-32,32c0,17.656,14.328,32,32,32s32-14.344,32-32
	C96,366.316,81.672,352.004,64,352.004z M64,394.66c-5.883,0-10.664-4.781-10.664-10.656c0-5.891,4.781-10.672,10.664-10.672
	s10.664,4.781,10.664,10.672C74.664,389.879,69.883,394.66,64,394.66z"/>
<path style="fill:#646C77;" d="M448,405.332c-11.766,0-21.344-9.578-21.344-21.328c0-11.781,9.578-21.344,21.344-21.344
	s21.344,9.562,21.344,21.344C469.344,395.754,459.766,405.332,448,405.332z"/>
<path style="fill:#424953;" d="M448,352.004c-17.672,0-32,14.312-32,32c0,17.656,14.328,32,32,32s32-14.344,32-32
	C480,366.316,465.672,352.004,448,352.004z M448,394.66c-5.875,0-10.656-4.781-10.656-10.656c0-5.891,4.781-10.672,10.656-10.672
	s10.656,4.781,10.656,10.672C458.656,389.879,453.875,394.66,448,394.66z"/>
<path style="fill:#E6E9ED;" d="M480,330.66H32c-5.891,0-10.664,4.781-10.664,10.672S26.109,352.004,32,352.004h448
	c5.891,0,10.656-4.781,10.656-10.672S485.891,330.66,480,330.66z"/>
</svg>