<svg width="500" height="500" viewBox="0 0 500 500" fill="none" xmlns="http://www.w3.org/2000/svg">
<path d="M500 382.4H0V382.65H500V382.4Z" fill="#EBEBEB"/>
<path d="M449.9 398.49H416.78V398.74H449.9V398.49Z" fill="#EBEBEB"/>
<path d="M331.22 401.21H322.53V401.46H331.22V401.21Z" fill="#EBEBEB"/>
<path d="M415.78 389.21H368.11V389.46H415.78V389.21Z" fill="#EBEBEB"/>
<path d="M76.14 390.89H52.46V391.14H76.14V390.89Z" fill="#EBEBEB"/>
<path d="M110.89 390.89H85.04V391.14H110.89V390.89Z" fill="#EBEBEB"/>
<path d="M196.11 395.11H131.47V395.36H196.11V395.11Z" fill="#EBEBEB"/>
<path d="M237 337.8H43.91C42.3973 337.797 40.9475 337.195 39.8788 336.124C38.8102 335.054 38.21 333.603 38.21 332.09V60.66C38.2231 59.156 38.8292 57.718 39.8964 56.6582C40.9637 55.5985 42.4059 55.0026 43.91 55H237C238.514 55 239.967 55.6016 241.038 56.6724C242.108 57.7433 242.71 59.1956 242.71 60.71V332.09C242.71 333.604 242.108 335.057 241.038 336.128C239.967 337.198 238.514 337.8 237 337.8ZM43.91 55.2C42.4636 55.2026 41.0774 55.7791 40.0556 56.8027C39.0338 57.8264 38.46 59.2136 38.46 60.66V332.09C38.46 333.536 39.0338 334.924 40.0556 335.947C41.0774 336.971 42.4636 337.547 43.91 337.55H237C238.447 337.547 239.834 336.971 240.858 335.948C241.881 334.924 242.457 333.537 242.46 332.09V60.66C242.457 59.2127 241.881 57.8255 240.858 56.8021C239.834 55.7787 238.447 55.2026 237 55.2H43.91Z" fill="#EBEBEB"/>
<path d="M453.31 337.8H260.21C258.696 337.797 257.246 337.195 256.175 336.125C255.105 335.054 254.503 333.604 254.5 332.09V60.66C254.516 59.1551 255.124 57.7171 256.193 56.6576C257.262 55.5981 258.705 55.0025 260.21 55H453.31C454.812 55.0052 456.252 55.6022 457.317 56.6617C458.382 57.7212 458.987 59.1578 459 60.66V332.09C459 333.601 458.401 335.05 457.335 336.121C456.268 337.191 454.821 337.795 453.31 337.8ZM260.21 55.2C258.763 55.2026 257.375 55.7787 256.352 56.8021C255.329 57.8255 254.753 59.2127 254.75 60.66V332.09C254.753 333.537 255.329 334.924 256.352 335.948C257.375 336.971 258.763 337.547 260.21 337.55H453.31C454.757 337.547 456.145 336.971 457.168 335.948C458.191 334.924 458.767 333.537 458.77 332.09V60.66C458.767 59.2127 458.191 57.8255 457.168 56.8021C456.145 55.7787 454.757 55.2026 453.31 55.2H260.21Z" fill="#EBEBEB"/>
<path d="M441.41 81H283.44V382.4H441.41V81Z" fill="#EBEBEB"/>
<path d="M429.66 90.83H295.19V382.4H429.66V90.83Z" fill="#F5F5F5"/>
<path d="M381.34 115.01H343.53V125.46H381.34V115.01Z" fill="white"/>
<path d="M398.37 218.82H418.88C419.729 218.82 420.543 219.157 421.143 219.757C421.743 220.357 422.08 221.171 422.08 222.02C422.08 222.869 421.743 223.683 421.143 224.283C420.543 224.883 419.729 225.22 418.88 225.22H398.37C397.521 225.22 396.707 224.883 396.107 224.283C395.507 223.683 395.17 222.869 395.17 222.02C395.17 221.171 395.507 220.357 396.107 219.757C396.707 219.157 397.521 218.82 398.37 218.82Z" fill="white"/>
<path d="M175.44 113.07H70.3799V197.74H175.44V113.07Z" fill="#EBEBEB"/>
<path d="M169.79 192.1V118.71H76.01V192.1H169.79Z" fill="#FAFAFA"/>
<path d="M158.86 156.37V152.86H86.9499V156.37H158.86Z" fill="#E0E0E0"/>
<path d="M158.86 164.36V160.85H86.9499V164.36H158.86Z" fill="#E0E0E0"/>
<path d="M158.86 172.34V168.83H86.9499V172.34H158.86Z" fill="#E0E0E0"/>
<path d="M140.83 180.33V176.82H104.98V180.33H140.83Z" fill="#E0E0E0"/>
<path d="M86.9999 118.71C86.9999 120.151 86.7149 121.578 86.1612 122.909C85.6076 124.24 84.7962 125.448 83.7738 126.464C82.7515 127.479 81.5383 128.283 80.2041 128.828C78.8699 129.373 77.4411 129.649 75.9999 129.64C74.0113 129.645 72.0599 129.102 70.3599 128.07V113.07H85.3599C86.4109 114.765 86.978 116.716 86.9999 118.71Z" fill="#EBEBEB"/>
<path d="M175.44 113.07V128.07C173.349 129.328 170.898 129.849 168.477 129.553C166.055 129.256 163.802 128.158 162.077 126.433C160.352 124.707 159.254 122.455 158.957 120.033C158.66 117.612 159.182 115.161 160.44 113.07H175.44Z" fill="#EBEBEB"/>
<path d="M86.9999 192.11C87.0034 194.094 86.464 196.041 85.4399 197.74H70.4399V182.74C72.099 181.747 73.9918 181.211 75.9254 181.187C77.859 181.163 79.7644 181.652 81.4474 182.605C83.1304 183.557 84.531 184.938 85.5064 186.608C86.4817 188.278 86.9971 190.176 86.9999 192.11Z" fill="#EBEBEB"/>
<path d="M175.44 182.73V197.73H160.44C159.408 196.034 158.865 194.085 158.87 192.1C158.872 190.164 159.388 188.262 160.364 186.59C161.341 184.918 162.743 183.535 164.428 182.581C166.114 181.628 168.022 181.138 169.958 181.163C171.894 181.187 173.789 181.724 175.45 182.72L175.44 182.73Z" fill="#EBEBEB"/>
<path d="M132.099 138.083C132.923 133.008 129.476 128.226 124.401 127.402C119.325 126.578 114.543 130.025 113.719 135.1C112.895 140.175 116.342 144.957 121.417 145.781C126.493 146.605 131.275 143.159 132.099 138.083Z" fill="#E0E0E0"/>
<path d="M260.34 262.15H52.46V269.63H260.34V262.15Z" fill="#EBEBEB"/>
<path d="M258.54 269.63H191V382.4H258.54V269.63Z" fill="#F5F5F5"/>
<path d="M122.57 269.63H55.0298V382.4H122.57V269.63Z" fill="#F5F5F5"/>
<path d="M57.3398 269.63H55.0298V382.4H57.3398V269.63Z" fill="#EBEBEB"/>
<path d="M193.31 269.63H191V382.4H193.31V269.63Z" fill="#EBEBEB"/>
<path d="M90.5001 244.12H78.0801L79.0801 262.15H89.5001L90.5001 244.12Z" fill="#F0F0F0"/>
<path d="M198.33 254.33H133.44V262.15H198.33V254.33Z" fill="#F0F0F0"/>
<path d="M198.34 255.25H168.42V261.24H198.34V255.25Z" fill="#FAFAFA"/>
<path d="M250 427.56C357.082 427.56 443.89 422.492 443.89 416.24C443.89 409.988 357.082 404.92 250 404.92C142.917 404.92 56.1099 409.988 56.1099 416.24C56.1099 422.492 142.917 427.56 250 427.56Z" fill="#F5F5F5"/>
<path d="M340.71 346.22C358.206 346.22 372.39 332.036 372.39 314.54C372.39 297.044 358.206 282.86 340.71 282.86C323.213 282.86 309.03 297.044 309.03 314.54C309.03 332.036 323.213 346.22 340.71 346.22Z" fill="white"/>
<path d="M340.71 346.61C334.367 346.612 328.165 344.733 322.89 341.21C317.615 337.687 313.503 332.679 311.074 326.82C308.645 320.96 308.009 314.511 309.245 308.29C310.481 302.068 313.535 296.353 318.019 291.867C322.504 287.381 328.218 284.325 334.44 283.087C340.661 281.849 347.11 282.483 352.97 284.91C358.831 287.337 363.84 291.448 367.364 296.722C370.889 301.996 372.77 308.197 372.77 314.54C372.762 323.041 369.382 331.192 363.372 337.205C357.361 343.217 349.211 346.599 340.71 346.61ZM340.71 283.26C334.521 283.26 328.471 285.095 323.325 288.534C318.179 291.973 314.169 296.86 311.801 302.578C309.433 308.296 308.814 314.588 310.022 320.658C311.23 326.728 314.211 332.303 318.588 336.679C322.965 341.054 328.541 344.034 334.612 345.24C340.682 346.446 346.974 345.825 352.691 343.455C358.408 341.086 363.294 337.073 366.731 331.927C370.168 326.78 372.002 320.729 372 314.54C371.992 306.245 368.692 298.292 362.826 292.427C356.959 286.562 349.005 283.265 340.71 283.26Z" fill="#58B2FF"/>
<path d="M345.81 296.58H335.61V332.5H345.81V296.58Z" fill="#58B2FF"/>
<path d="M358.67 319.65V309.45H322.75V319.65H358.67Z" fill="#58B2FF"/>
<path d="M126.11 75.07L125.43 74.34C130.059 69.964 135.933 67.1337 142.24 66.24L142.38 67.24C136.276 68.1008 130.591 70.8369 126.11 75.07Z" fill="#58B2FF"/>
<path d="M118.71 86L117.78 85.64C118.789 83.0925 120.134 80.6913 121.78 78.5L122.58 79.1C120.993 81.2206 119.692 83.5405 118.71 86Z" fill="#58B2FF"/>
<path d="M146.61 124.31C161.765 124.31 174.05 112.025 174.05 96.87C174.05 81.7153 161.765 69.43 146.61 69.43C131.455 69.43 119.17 81.7153 119.17 96.87C119.17 112.025 131.455 124.31 146.61 124.31Z" fill="#58B2FF"/>
<path d="M163 84.51C161.943 83.4129 160.678 82.5375 159.279 81.935C157.88 81.3325 156.374 81.0149 154.851 81.001C153.328 80.987 151.817 81.2769 150.407 81.8536C148.997 82.4304 147.716 83.2825 146.64 84.36C145.564 83.2828 144.284 82.4309 142.875 81.8543C141.466 81.2776 139.956 80.9878 138.433 81.0018C136.911 81.0158 135.406 81.3332 134.008 81.9356C132.61 82.538 131.346 83.4132 130.29 84.51C128.22 86.7485 127.105 89.7057 127.182 92.7532C127.258 95.8008 128.52 98.6983 130.7 100.83L143.7 113.83C144.09 114.22 144.553 114.529 145.062 114.741C145.572 114.952 146.118 115.06 146.67 115.06C147.221 115.06 147.767 114.952 148.277 114.741C148.787 114.529 149.25 114.22 149.64 113.83L162.64 100.83C164.812 98.6917 166.065 95.7905 166.132 92.7431C166.199 89.6956 165.076 86.7421 163 84.51Z" fill="white"/>
<path d="M146.61 108.86C146.408 108.853 146.213 108.785 146.051 108.666C145.888 108.546 145.766 108.38 145.7 108.19L139.91 91.26L137.49 98.34C137.421 98.5367 137.292 98.7071 137.122 98.8272C136.952 98.9473 136.748 99.0112 136.54 99.01H126.85C126.584 99.01 126.33 98.9046 126.143 98.7171C125.955 98.5296 125.85 98.2752 125.85 98.01C125.85 97.7448 125.955 97.4904 126.143 97.3029C126.33 97.1153 126.584 97.01 126.85 97.01H135.85L138.99 87.84C139.058 87.6435 139.185 87.4731 139.355 87.3525C139.524 87.2319 139.727 87.1671 139.935 87.1671C140.143 87.1671 140.345 87.2319 140.515 87.3525C140.684 87.4731 140.812 87.6435 140.88 87.84L146.77 105.07L152.49 91.6C152.562 91.4283 152.681 91.2802 152.833 91.1724C152.985 91.0647 153.164 91.0015 153.35 90.99C153.537 90.9792 153.723 91.0213 153.888 91.1115C154.052 91.2017 154.188 91.3363 154.28 91.5L157.3 97H166.41C166.675 97 166.929 97.1053 167.117 97.2929C167.304 97.4804 167.41 97.7348 167.41 98C167.41 98.2652 167.304 98.5196 167.117 98.7071C166.929 98.8946 166.675 99 166.41 99H156.72C156.541 99.0015 156.365 98.9549 156.21 98.8652C156.055 98.7755 155.927 98.6459 155.84 98.49L153.47 94.25L147.53 108.25C147.453 108.431 147.325 108.585 147.161 108.693C146.998 108.802 146.806 108.86 146.61 108.86Z" fill="#58B2FF"/>
<path d="M298.86 381.2H194.49C192.789 381.219 191.103 380.884 189.539 380.216C187.975 379.548 186.567 378.562 185.405 377.32C184.242 376.079 183.351 374.609 182.787 373.005C182.223 371.4 181.999 369.696 182.13 368L199 118C199.295 114.43 200.906 111.096 203.521 108.648C206.136 106.199 209.568 104.81 213.15 104.75H317.54C319.245 104.731 320.936 105.067 322.503 105.738C324.071 106.409 325.482 107.399 326.645 108.646C327.808 109.893 328.699 111.369 329.259 112.98C329.819 114.59 330.038 116.3 329.9 118L313 368C312.696 371.561 311.081 374.882 308.469 377.32C305.857 379.759 302.433 381.141 298.86 381.2Z" fill="#263238"/>
<path d="M322 206.56H319.37C318.894 206.566 318.422 206.472 317.984 206.285C317.546 206.098 317.152 205.821 316.827 205.473C316.503 205.124 316.254 204.712 316.098 204.262C315.942 203.812 315.881 203.335 315.92 202.86L319.15 155.07C319.225 154.071 319.673 153.136 320.404 152.451C321.136 151.765 322.098 151.38 323.1 151.37H325.73C326.206 151.364 326.679 151.458 327.116 151.645C327.554 151.832 327.948 152.109 328.273 152.457C328.598 152.806 328.846 153.218 329.002 153.668C329.159 154.118 329.219 154.595 329.18 155.07L325.95 202.86C325.875 203.859 325.427 204.794 324.696 205.479C323.964 206.165 323.002 206.55 322 206.56Z" fill="#263238"/>
<path d="M197.48 174.68H194.86C194.472 174.685 194.088 174.61 193.731 174.459C193.374 174.307 193.052 174.084 192.786 173.802C192.52 173.52 192.316 173.185 192.185 172.82C192.055 172.455 192.002 172.067 192.03 171.68L193.2 154.42C193.274 153.61 193.645 152.855 194.241 152.302C194.837 151.748 195.617 151.434 196.43 151.42H199.06C199.447 151.418 199.829 151.495 200.184 151.648C200.539 151.8 200.859 152.024 201.124 152.305C201.389 152.587 201.592 152.92 201.723 153.284C201.853 153.648 201.906 154.035 201.88 154.42L200.71 171.68C200.638 172.491 200.269 173.247 199.672 173.801C199.075 174.355 198.294 174.668 197.48 174.68Z" fill="#58B2FF"/>
<path d="M195.4 205.5H192.77C192.383 205.504 192 205.427 191.644 205.276C191.288 205.124 190.968 204.9 190.703 204.618C190.438 204.336 190.234 204.002 190.105 203.638C189.975 203.273 189.922 202.886 189.95 202.5L191.12 185.24C191.194 184.43 191.564 183.675 192.161 183.122C192.757 182.568 193.537 182.254 194.35 182.24H197C197.386 182.238 197.769 182.315 198.124 182.468C198.479 182.62 198.799 182.844 199.064 183.125C199.329 183.407 199.532 183.74 199.662 184.104C199.793 184.468 199.846 184.855 199.82 185.24L198.65 202.5C198.578 203.315 198.205 204.073 197.604 204.628C197.004 205.182 196.218 205.493 195.4 205.5Z" fill="#58B2FF"/>
<path d="M296.65 381.2H192.28C190.579 381.219 188.893 380.884 187.329 380.216C185.765 379.548 184.357 378.562 183.195 377.32C182.032 376.079 181.141 374.609 180.577 373.005C180.013 371.4 179.789 369.696 179.92 368L196.8 118C197.105 114.428 198.728 111.098 201.352 108.656C203.977 106.215 207.416 104.837 211 104.79H315.33C317.031 104.771 318.718 105.106 320.283 105.775C321.848 106.443 323.257 107.43 324.419 108.673C325.582 109.915 326.473 111.386 327.036 112.992C327.599 114.598 327.822 116.303 327.69 118L310.8 368C310.496 371.562 308.88 374.885 306.266 377.323C303.651 379.762 300.225 381.144 296.65 381.2Z" fill="#58B2FF"/>
<path opacity="0.3" d="M181.02 365.2L197.5 121.24H326.56L310.08 365.2H181.02Z" fill="white"/>
<path opacity="0.1" d="M231.97 365.2L278.03 121.24H306.94L260.88 365.2H231.97Z" fill="white"/>
<path opacity="0.1" d="M210.13 365.2L256.19 121.24H270.84L224.78 365.2H210.13Z" fill="white"/>
<path d="M250.14 110.92H275.31C275.52 110.916 275.729 110.957 275.922 111.039C276.116 111.121 276.29 111.243 276.433 111.397C276.576 111.55 276.686 111.733 276.754 111.931C276.822 112.13 276.848 112.341 276.83 112.55C276.795 112.991 276.598 113.403 276.277 113.706C275.955 114.009 275.532 114.181 275.09 114.19H249.92C249.71 114.192 249.501 114.15 249.307 114.067C249.114 113.984 248.94 113.861 248.797 113.707C248.654 113.552 248.545 113.369 248.476 113.17C248.408 112.971 248.382 112.76 248.4 112.55C248.435 112.11 248.633 111.7 248.955 111.398C249.276 111.097 249.699 110.926 250.14 110.92Z" fill="white"/>
<path d="M244.9 405.25L236.08 406.09L232.9 385.74L241.72 384.89L244.9 405.25Z" fill="#FFB573"/>
<path d="M235.07 401.78L244.31 398.91C244.469 398.855 244.644 398.863 244.797 398.934C244.95 399.005 245.069 399.133 245.13 399.29L248.13 406.62C248.204 406.816 248.238 407.026 248.227 407.236C248.216 407.446 248.162 407.651 248.068 407.839C247.974 408.027 247.843 408.194 247.681 408.328C247.519 408.462 247.332 408.562 247.13 408.62C243.79 409.62 240.61 409.85 236.58 411.62C231.87 413.62 229.9 416.3 224.83 416.3C221.2 416.3 220.38 412.97 221.92 412.51C228.92 410.39 228 408.65 233.08 403.18C233.608 402.546 234.295 402.063 235.07 401.78Z" fill="#263238"/>
<path opacity="0.2" d="M232.9 385.74L234.54 396.24L243.37 395.39L241.73 384.89L232.9 385.74Z" fill="black"/>
<path d="M239.28 128.6C227.71 127.24 216.2 128.15 204.65 130.39C202.726 130.764 200.97 131.74 199.638 133.179C198.305 134.617 197.466 136.442 197.24 138.39C195.99 149.45 194.56 174.24 200.14 211.22L247.42 207.22C247.51 200.51 242.74 169.94 246.68 138.22C246.842 137.1 246.777 135.96 246.49 134.865C246.203 133.771 245.7 132.745 245.01 131.848C244.321 130.952 243.458 130.202 242.474 129.644C241.49 129.086 240.404 128.731 239.28 128.6Z" fill="white"/>
<path d="M211.75 138.08L213.44 141.46C213.519 141.631 213.644 141.775 213.802 141.878C213.959 141.981 214.142 142.037 214.33 142.04L216.16 142.14C216.487 142.154 216.808 142.055 217.07 141.86L220.22 139.51L216.33 136.68L211.75 138.08Z" fill="#263238"/>
<path d="M216.22 141.17C215.553 140.861 214.798 140.801 214.09 141C212.6 146.25 210.97 161.32 210.8 168C215.32 181.17 216.8 182.5 216.8 182.5L219.09 166.65C219.09 166.65 216.52 150.44 216.22 141.17Z" fill="#263238"/>
<path d="M229.27 105.8C228.19 112.32 227.27 124.23 231.95 128.44C228.52 132.04 224.03 136.21 216.33 136.68C208.63 137.15 209.82 131.82 211.77 128.97C218.96 127.05 218.61 121.69 217.2 116.68L229.27 105.8Z" fill="#FFB573"/>
<path d="M233.91 127.87C233.365 127.635 232.799 127.451 232.22 127.32C232.078 127.283 231.928 127.293 231.793 127.349C231.657 127.405 231.544 127.503 231.47 127.63C230.73 128.89 228.47 134.52 216.33 136.68C218.33 137.86 220.98 141.52 222.12 143.28C225.76 141.39 235.23 135.74 234.33 128.43C234.312 128.309 234.264 128.195 234.19 128.097C234.117 127.999 234.021 127.921 233.91 127.87Z" fill="#F5F5F5"/>
<path d="M211.84 129.27C211.866 129.156 211.863 129.038 211.831 128.926C211.799 128.813 211.74 128.711 211.658 128.627C211.577 128.544 211.476 128.482 211.364 128.448C211.253 128.413 211.135 128.407 211.02 128.43C210.6 128.512 210.186 128.622 209.78 128.76C209.687 128.797 209.599 128.847 209.52 128.91C208.59 129.77 203.52 137.09 208.27 143.01C209.27 141.4 212.72 137.75 216.33 136.68C212.91 135.14 211.23 132.27 211.84 129.27Z" fill="#F5F5F5"/>
<path opacity="0.2" d="M224.35 110.24L217.21 116.68C217.554 117.843 217.795 119.034 217.93 120.24C220.69 119.77 224.4 116.64 224.6 113.74C224.735 112.568 224.65 111.381 224.35 110.24Z" fill="black"/>
<path d="M214.81 86.09C208.65 88.5 208.25 93.56 208.81 99.09C209.37 104.62 215.39 100.96 216.73 97.5C218.07 94.04 223.34 82.75 214.81 86.09Z" fill="#263238"/>
<path d="M234.46 97.12C232.75 105.83 232.18 111 227.2 115.01C219.69 121.01 209.52 115.83 208.62 106.85C207.81 98.76 210.74 85.85 219.71 83.33C221.666 82.7541 223.739 82.6985 225.723 83.1688C227.707 83.6391 229.535 84.619 231.024 86.0116C232.514 87.4043 233.614 89.1615 234.217 91.1097C234.819 93.0579 234.903 95.1295 234.46 97.12Z" fill="#FFB573"/>
<path d="M234.1 104.33C226.77 104.72 228.32 100.56 229.65 98.17C230.98 95.78 228.27 91.83 230.04 89.78C226.88 91.04 223.55 90 219.32 87.06C216.04 84.77 211.93 93.92 207.93 89.33C204.15 85 207.66 78.47 216.74 77.42C225.82 76.37 227.47 82.79 233.43 82.22C239.39 81.65 237.32 86.56 236.15 87.56C241.15 87.89 243.88 92.67 234.1 104.33Z" fill="#263238"/>
<path d="M235 88.17C236.147 87.541 237.105 86.617 237.775 85.4935C238.444 84.37 238.802 83.088 238.81 81.78C240.79 85.25 240.58 89.19 235 88.17Z" fill="#263238"/>
<path d="M216 106.42C216.797 106.558 217.613 106.533 218.4 106.348C219.187 106.162 219.929 105.819 220.58 105.34C220.6 105.321 220.615 105.299 220.626 105.274C220.637 105.249 220.642 105.222 220.642 105.195C220.642 105.168 220.637 105.141 220.626 105.116C220.615 105.091 220.6 105.069 220.58 105.05C220.541 105.013 220.489 104.992 220.435 104.992C220.381 104.992 220.329 105.013 220.29 105.05C219.561 105.567 218.721 105.907 217.838 106.045C216.955 106.182 216.052 106.112 215.2 105.84C215.146 105.827 215.088 105.833 215.038 105.859C214.989 105.885 214.95 105.928 214.93 105.98C214.914 106.033 214.92 106.09 214.946 106.139C214.973 106.187 215.017 106.224 215.07 106.24C215.374 106.328 215.685 106.388 216 106.42Z" fill="#263238"/>
<path d="M236.23 107C234.861 108.765 232.853 109.921 230.64 110.22C227.73 110.6 226.76 107.89 227.98 105.36C229.09 103.08 231.98 100.14 234.66 100.93C237.34 101.72 237.91 104.8 236.23 107Z" fill="#FFB573"/>
<path d="M233.34 296.37C233.69 270.26 237.03 208.07 237.03 208.07L200.17 211.18C200.17 211.18 207.5 275.27 211.92 301.91C216.52 329.6 230.63 394.47 230.63 394.47L245.63 393.19C245.63 393.19 240.15 316.56 233.34 296.37Z" fill="#263238"/>
<path d="M229.73 394.88L247.52 393.37L246.82 387.63L228.28 388.87L229.73 394.88Z" fill="#58B2FF"/>
<path d="M221.32 97.64C221.23 98.35 220.77 98.89 220.32 98.84C219.87 98.79 219.56 98.17 219.66 97.45C219.76 96.73 220.21 96.2 220.66 96.25C221.11 96.3 221.42 96.93 221.32 97.64Z" fill="#263238"/>
<path d="M213.16 97C213.07 97.72 212.61 98.25 212.16 98.2C211.71 98.15 211.4 97.53 211.5 96.82C211.6 96.11 212.05 95.57 212.5 95.62C212.95 95.67 213.26 96.25 213.16 97Z" fill="#263238"/>
<path d="M215.46 97.84C214.256 99.6905 212.81 101.372 211.16 102.84C212.22 103.95 214.41 103.65 214.41 103.65L215.46 97.84Z" fill="#ED893E"/>
<path opacity="0.4" d="M208 97.1801C207.85 98.3201 209 99.2701 210.59 99.4701C212.18 99.6701 213.65 98.8001 213.79 97.6601" fill="#58B2FF"/>
<path opacity="0.4" d="M217.45 98.24C217.23 99.37 218.34 100.39 219.9 100.69C221.46 100.99 222.99 100.19 223.2 99.07" fill="#58B2FF"/>
<path d="M220.52 101C220.34 101.01 220.16 101.01 219.98 101C219.211 100.908 218.489 100.584 217.91 100.07C217.657 99.854 217.46 99.5805 217.335 99.2726C217.209 98.9646 217.16 98.6311 217.19 98.3C216.682 98.079 216.142 97.9438 215.59 97.9C215.035 97.7615 214.455 97.7615 213.9 97.9C213.76 99.12 212.24 99.96 210.54 99.75C209.771 99.666 209.048 99.3444 208.47 98.83C208.219 98.6129 208.022 98.3393 207.897 98.0316C207.772 97.7239 207.721 97.3909 207.75 97.06L208.23 97.12C208.21 97.3757 208.251 97.6325 208.35 97.8691C208.449 98.1057 208.603 98.3151 208.8 98.48C209.304 98.9234 209.933 99.1994 210.6 99.27C212.04 99.46 213.32 98.79 213.45 97.79C213.52 97.23 214.68 97.27 215.64 97.39C216.6 97.51 217.74 97.78 217.64 98.33C217.619 98.5858 217.66 98.8429 217.759 99.0796C217.858 99.3163 218.013 99.5256 218.21 99.69C218.72 100.127 219.347 100.406 220.013 100.491C220.68 100.577 221.356 100.465 221.96 100.17C222.193 100.062 222.396 99.8986 222.553 99.695C222.71 99.4913 222.815 99.253 222.86 99V98.76L235.2 100.35L235.14 100.83L223.26 99.3C223.174 99.5784 223.032 99.8362 222.842 100.058C222.653 100.28 222.421 100.461 222.16 100.59C221.655 100.857 221.092 100.998 220.52 101Z" fill="#263238"/>
<path d="M224.46 94.5C224.531 94.5002 224.601 94.4794 224.66 94.44C224.757 94.3835 224.828 94.2911 224.858 94.1827C224.888 94.0743 224.875 93.9584 224.82 93.86C224.51 93.2784 224.061 92.7824 223.514 92.416C222.966 92.0497 222.336 91.8243 221.68 91.76C221.568 91.7545 221.457 91.7933 221.373 91.8681C221.289 91.9429 221.238 92.0477 221.23 92.16C221.225 92.2698 221.262 92.3774 221.335 92.4597C221.408 92.5419 221.51 92.5923 221.62 92.6C222.139 92.661 222.635 92.8476 223.066 93.1439C223.496 93.4402 223.848 93.837 224.09 94.3C224.128 94.3637 224.182 94.4159 224.247 94.4511C224.313 94.4863 224.386 94.5032 224.46 94.5Z" fill="#263238"/>
<path d="M210.52 93.37C210.589 93.3768 210.659 93.3667 210.723 93.3406C210.788 93.3145 210.845 93.2731 210.89 93.22C211.213 92.7966 211.631 92.4548 212.111 92.2221C212.59 91.9894 213.117 91.8722 213.65 91.88C213.705 91.8856 213.761 91.8801 213.814 91.8639C213.867 91.8478 213.916 91.8213 213.959 91.7859C214.002 91.7506 214.037 91.7071 214.063 91.6581C214.089 91.609 214.105 91.5553 214.11 91.5C214.117 91.4461 214.113 91.3914 214.099 91.339C214.084 91.2865 214.06 91.2375 214.026 91.1947C213.993 91.1519 213.951 91.1162 213.904 91.0896C213.856 91.0631 213.804 91.0462 213.75 91.04C213.078 91.0225 212.412 91.1626 211.804 91.4491C211.196 91.7357 210.664 92.1607 210.25 92.69C210.179 92.7751 210.144 92.8848 210.153 92.9954C210.163 93.1059 210.215 93.2082 210.3 93.28C210.365 93.327 210.441 93.3578 210.52 93.37Z" fill="#263238"/>
<path d="M264.05 292.16C256.4 252.84 254.68 222.09 247.42 207.16L211.71 211.16C211.71 211.16 232.98 269.75 243.37 294.76C254.16 320.76 275.46 365.18 275.46 365.18H293.3C293.3 365.18 276.65 310.07 264.05 292.16Z" fill="#263238"/>
<path d="M150.86 143.31L147 140.87C146.374 140.466 145.626 140.293 144.886 140.378C144.146 140.464 143.458 140.804 142.94 141.34L140.32 144.1C140.038 144.398 139.82 144.75 139.679 145.136C139.539 145.522 139.479 145.932 139.503 146.341C139.528 146.751 139.636 147.151 139.821 147.517C140.006 147.883 140.265 148.208 140.58 148.47L142.45 150.07C144.077 151.448 145.974 152.47 148.02 153.07L153.67 154.74L157.38 150.74C158.51 146.57 150.86 143.31 150.86 143.31Z" fill="#FFB573"/>
<path d="M208 141.44C206.6 144.86 205.23 148.04 203.74 151.29C202.25 154.54 200.74 157.75 199.07 160.94C197.4 164.13 195.62 167.3 193.6 170.48C192.6 172.06 191.49 173.64 190.23 175.23C188.875 176.983 187.333 178.583 185.63 180C184.506 180.919 183.265 181.686 181.94 182.28C181.52 182.44 181.13 182.6 180.67 182.74L179.97 182.93C179.618 183.017 179.26 183.08 178.9 183.12C177.681 183.257 176.447 183.169 175.26 182.86C173.776 182.445 172.366 181.8 171.08 180.95C170.117 180.349 169.198 179.681 168.33 178.95C165.444 176.43 162.784 173.663 160.38 170.68C158.05 167.88 155.85 165.07 153.74 162.2C151.63 159.33 149.6 156.51 147.52 153.5L158.58 146.36C162.07 151.994 165.932 157.389 170.14 162.51C172.074 164.882 174.205 167.086 176.51 169.1C176.956 169.465 177.428 169.799 177.92 170.1C178.29 170.35 178.66 170.45 178.4 170.36C178.048 170.263 177.68 170.243 177.32 170.3C177.175 170.313 177.031 170.34 176.89 170.38H176.81C176.76 170.38 176.76 170.38 176.75 170.38C176.977 170.231 177.195 170.068 177.4 169.89C178.313 169.062 179.14 168.144 179.87 167.15C180.72 166.01 181.57 164.73 182.38 163.4C184.036 160.635 185.544 157.784 186.9 154.86C188.3 151.86 189.65 148.86 190.9 145.74C192.15 142.62 193.34 139.45 194.35 136.42L208 141.44Z" fill="#58B2FF"/>
<g opacity="0.6">
<path d="M208 141.44C206.6 144.86 205.23 148.04 203.74 151.29C202.25 154.54 200.74 157.75 199.07 160.94C197.4 164.13 195.62 167.3 193.6 170.48C192.6 172.06 191.49 173.64 190.23 175.23C188.875 176.983 187.333 178.583 185.63 180C184.506 180.919 183.265 181.686 181.94 182.28C181.52 182.44 181.13 182.6 180.67 182.74L179.97 182.93C179.618 183.017 179.26 183.08 178.9 183.12C177.681 183.257 176.447 183.169 175.26 182.86C173.776 182.445 172.366 181.8 171.08 180.95C170.117 180.349 169.198 179.681 168.33 178.95C165.444 176.43 162.784 173.663 160.38 170.68C158.05 167.88 155.85 165.07 153.74 162.2C151.63 159.33 149.6 156.51 147.52 153.5L158.58 146.36C162.07 151.994 165.932 157.389 170.14 162.51C172.074 164.882 174.205 167.086 176.51 169.1C176.956 169.465 177.428 169.799 177.92 170.1C178.29 170.35 178.66 170.45 178.4 170.36C178.048 170.263 177.68 170.243 177.32 170.3C177.175 170.313 177.031 170.34 176.89 170.38H176.81C176.76 170.38 176.76 170.38 176.75 170.38C176.977 170.231 177.195 170.068 177.4 169.89C178.313 169.062 179.14 168.144 179.87 167.15C180.72 166.01 181.57 164.73 182.38 163.4C184.036 160.635 185.544 157.784 186.9 154.86C188.3 151.86 189.65 148.86 190.9 145.74C192.15 142.62 193.34 139.45 194.35 136.42L208 141.44Z" fill="white"/>
</g>
<path d="M234.18 126.09C230.43 133.09 217.08 159.76 215.46 176.22C209.55 161.22 210.84 128.04 210.84 128.04C206.628 128.451 202.496 129.461 198.57 131.04C197.305 131.56 196.208 132.42 195.401 133.525C194.595 134.63 194.11 135.936 194 137.3C192.849 154.468 193.392 171.708 195.62 188.77C199.77 221.07 203.62 271.3 203.62 271.3C203.62 271.3 236.67 269.92 262.17 264.54C259.06 239.85 248.42 198.47 248.32 187.39C248.2 173.13 248.53 145.25 248.98 133.61C249.056 131.967 248.541 130.351 247.528 129.054C246.516 127.757 245.073 126.865 243.46 126.54C240.401 125.973 237.28 125.822 234.18 126.09Z" fill="#58B2FF"/>
<path opacity="0.7" d="M234.18 126.09C230.43 133.09 217.08 159.76 215.46 176.22C209.55 161.22 210.84 128.04 210.84 128.04C206.628 128.451 202.496 129.461 198.57 131.04C197.305 131.56 196.208 132.42 195.401 133.525C194.595 134.63 194.11 135.936 194 137.3C192.849 154.468 193.392 171.708 195.62 188.77C199.77 221.07 203.62 271.3 203.62 271.3C203.62 271.3 236.67 269.92 262.17 264.54C259.06 239.85 248.42 198.47 248.32 187.39C248.2 173.13 248.53 145.24 248.98 133.6C249.075 132.007 248.604 130.431 247.651 129.15C246.698 127.87 245.324 126.967 243.77 126.6C240.613 125.981 237.385 125.81 234.18 126.09Z" fill="white"/>
<path d="M226.39 265.94C220.65 234.27 216.1 187.8 215.73 182.21H216.24C216.61 187.8 221.17 234.21 226.9 265.88L226.39 265.94Z" fill="white"/>
<path d="M223.53 209.6H193.05C192.434 209.572 191.845 209.346 191.369 208.955C190.893 208.563 190.556 208.028 190.41 207.43L180.22 160.06C180.145 159.801 180.133 159.529 180.184 159.265C180.236 159 180.349 158.752 180.515 158.54C180.681 158.328 180.895 158.159 181.139 158.046C181.383 157.933 181.651 157.879 181.92 157.89H212.39C213.007 157.916 213.599 158.141 214.077 158.533C214.555 158.924 214.893 159.46 215.04 160.06L225.23 207.43C225.305 207.689 225.317 207.961 225.265 208.225C225.214 208.49 225.101 208.738 224.935 208.95C224.769 209.162 224.555 209.331 224.311 209.444C224.066 209.557 223.799 209.611 223.53 209.6Z" fill="white"/>
<path d="M222.58 210H191.58C190.953 209.971 190.353 209.74 189.868 209.342C189.383 208.943 189.04 208.399 188.89 207.79L178.52 159.62C178.446 159.356 178.435 159.078 178.489 158.809C178.542 158.54 178.658 158.288 178.828 158.072C178.998 157.857 179.216 157.685 179.465 157.57C179.714 157.454 179.986 157.4 180.26 157.41H211.26C211.887 157.439 212.487 157.67 212.972 158.068C213.457 158.467 213.8 159.011 213.95 159.62L224.31 207.79C224.386 208.053 224.399 208.331 224.347 208.6C224.295 208.869 224.18 209.122 224.011 209.338C223.842 209.554 223.624 209.726 223.375 209.841C223.126 209.956 222.854 210.011 222.58 210Z" fill="#58B2FF"/>
<path d="M226.13 182.82L218.42 182.53C217.493 182.498 216.57 182.662 215.71 183.01L211.71 184.61C211.335 184.759 210.993 184.981 210.706 185.265C210.419 185.549 210.192 185.888 210.039 186.261C209.886 186.635 209.81 187.035 209.815 187.439C209.821 187.842 209.907 188.241 210.07 188.61L211.67 192.07C211.993 192.741 212.537 193.28 213.211 193.597C213.885 193.914 214.647 193.989 215.37 193.81L219.78 192.71C219.78 192.71 228.06 192.05 228.36 187.71L226.13 182.82Z" fill="#FFB573"/>
<path d="M247.42 130.38C249.33 133.38 251.08 136.12 252.8 139.06C254.52 142 256.21 144.91 257.8 147.95C259.39 150.99 260.9 154.13 262.27 157.49C262.981 159.25 263.589 161.049 264.09 162.88C264.735 165.111 265.031 167.428 264.97 169.75V170.14C264.973 170.207 264.973 170.273 264.97 170.34C264.97 170.7 264.87 171.06 264.8 171.42C264.73 171.78 264.64 172.06 264.54 172.42C264.44 172.78 264.33 172.97 264.22 173.25C263.838 174.115 263.347 174.928 262.76 175.67C261.943 176.691 261.014 177.617 259.99 178.43C258.417 179.669 256.745 180.776 254.99 181.74C251.903 183.428 248.725 184.944 245.47 186.28C242.32 187.62 239.18 188.84 236.02 189.99C232.86 191.14 229.75 192.25 226.46 193.35L222.65 180.75C225.65 179.93 228.71 178.92 231.7 177.9C234.69 176.88 237.7 175.74 240.54 174.55C243.327 173.399 246.045 172.086 248.68 170.62C249.792 170.004 250.852 169.298 251.85 168.51C252.112 168.311 252.347 168.079 252.55 167.82C252.464 167.917 252.396 168.029 252.35 168.15C252.35 168.24 252.3 168.3 252.25 168.41C252.211 168.527 252.18 168.648 252.16 168.77C252.118 168.924 252.091 169.081 252.08 169.24C252.08 169.3 252.08 169.31 252.08 169.29V169.22C252.01 168.271 251.825 167.334 251.53 166.43C251.13 165.121 250.656 163.835 250.11 162.58C248.887 159.812 247.505 157.118 245.97 154.51C244.41 151.83 242.75 149.15 240.97 146.51C239.19 143.87 237.37 141.24 235.54 138.84L247.42 130.38Z" fill="#58B2FF"/>
<g opacity="0.7">
<path d="M247.42 130.38C249.33 133.38 251.08 136.12 252.8 139.06C254.52 142 256.21 144.91 257.8 147.95C259.39 150.99 260.9 154.13 262.27 157.49C262.981 159.25 263.589 161.049 264.09 162.88C264.735 165.111 265.031 167.428 264.97 169.75V170.14C264.973 170.207 264.973 170.273 264.97 170.34C264.97 170.7 264.87 171.06 264.8 171.42C264.73 171.78 264.64 172.06 264.54 172.42C264.44 172.78 264.33 172.97 264.22 173.25C263.838 174.115 263.347 174.928 262.76 175.67C261.943 176.691 261.014 177.617 259.99 178.43C258.417 179.669 256.745 180.776 254.99 181.74C251.903 183.428 248.725 184.944 245.47 186.28C242.32 187.62 239.18 188.84 236.02 189.99C232.86 191.14 229.75 192.25 226.46 193.35L222.65 180.75C225.65 179.93 228.71 178.92 231.7 177.9C234.69 176.88 237.7 175.74 240.54 174.55C243.327 173.399 246.045 172.086 248.68 170.62C249.792 170.004 250.852 169.298 251.85 168.51C252.112 168.311 252.347 168.079 252.55 167.82C252.464 167.917 252.396 168.029 252.35 168.15C252.35 168.24 252.3 168.3 252.25 168.41C252.211 168.527 252.18 168.648 252.16 168.77C252.118 168.924 252.091 169.081 252.08 169.24C252.08 169.3 252.08 169.31 252.08 169.29V169.22C252.01 168.271 251.825 167.334 251.53 166.43C251.13 165.121 250.656 163.835 250.11 162.58C248.887 159.812 247.505 157.118 245.97 154.51C244.41 151.83 242.75 149.15 240.97 146.51C239.19 143.87 237.37 141.24 235.54 138.84L247.42 130.38Z" fill="white"/>
</g>
<path d="M237.3 165.08C237.233 165.079 237.168 165.061 237.11 165.028C237.052 164.995 237.004 164.947 236.97 164.89C236.941 164.846 236.921 164.797 236.911 164.746C236.901 164.694 236.902 164.641 236.913 164.589C236.924 164.538 236.945 164.489 236.976 164.447C237.006 164.404 237.045 164.368 237.09 164.34L238.65 163.34C240.106 162.422 241.249 161.083 241.928 159.501C242.606 157.919 242.788 156.168 242.45 154.48L239.31 138.58C239.08 137.391 238.456 136.315 237.539 135.524C236.621 134.734 235.464 134.277 234.254 134.226C233.044 134.175 231.853 134.534 230.872 135.244C229.891 135.954 229.179 136.975 228.85 138.14L224.4 153.73C223.914 155.378 223.941 157.135 224.477 158.767C225.012 160.4 226.032 161.831 227.4 162.87L228.88 163.99C228.963 164.055 229.018 164.151 229.031 164.256C229.044 164.361 229.015 164.466 228.95 164.55C228.919 164.591 228.88 164.625 228.835 164.651C228.79 164.677 228.741 164.693 228.69 164.7C228.638 164.706 228.587 164.703 228.537 164.689C228.487 164.675 228.441 164.652 228.4 164.62L227 163.51C225.496 162.378 224.372 160.815 223.778 159.029C223.183 157.243 223.145 155.318 223.67 153.51L228.13 137.92C228.513 136.589 229.332 135.425 230.456 134.615C231.579 133.805 232.943 133.396 234.327 133.454C235.711 133.511 237.035 134.032 238.087 134.933C239.14 135.833 239.859 137.062 240.13 138.42L243.27 154.33C243.641 156.174 243.442 158.087 242.701 159.816C241.96 161.544 240.711 163.007 239.12 164.01L237.55 165.01C237.515 165.038 237.475 165.059 237.432 165.071C237.389 165.083 237.344 165.086 237.3 165.08Z" fill="#263238"/>
<path d="M239.7 138.91L228.47 138.44C228.417 138.437 228.366 138.425 228.318 138.402C228.271 138.38 228.228 138.348 228.193 138.309C228.157 138.27 228.13 138.224 228.113 138.175C228.095 138.125 228.087 138.073 228.09 138.02C228.1 137.916 228.148 137.819 228.226 137.749C228.304 137.678 228.405 137.64 228.51 137.64L239.73 138.11C239.782 138.113 239.834 138.125 239.882 138.148C239.929 138.17 239.972 138.202 240.007 138.241C240.042 138.28 240.07 138.326 240.087 138.375C240.105 138.425 240.113 138.477 240.11 138.53C240.109 138.582 240.097 138.633 240.075 138.681C240.054 138.728 240.023 138.771 239.985 138.807C239.947 138.842 239.902 138.869 239.853 138.887C239.804 138.905 239.752 138.913 239.7 138.91Z" fill="#263238"/>
<path d="M234.24 134.25C234.137 134.248 234.038 134.206 233.964 134.134C233.889 134.061 233.845 133.964 233.84 133.86C233.84 131.86 233.22 128.39 231.35 127.63C231.299 127.613 231.251 127.585 231.21 127.548C231.17 127.512 231.137 127.467 231.114 127.418C231.091 127.368 231.079 127.315 231.078 127.26C231.076 127.205 231.086 127.151 231.107 127.101C231.127 127.05 231.158 127.004 231.197 126.966C231.236 126.928 231.282 126.898 231.333 126.878C231.384 126.858 231.438 126.849 231.493 126.851C231.548 126.853 231.601 126.866 231.65 126.89C234.42 128.03 234.65 133.25 234.65 133.89C234.65 133.995 234.61 134.097 234.537 134.173C234.465 134.249 234.366 134.295 234.26 134.3L234.24 134.25Z" fill="#263238"/>
<path d="M199.89 147.84H199.81C199.707 147.818 199.616 147.757 199.558 147.669C199.5 147.581 199.479 147.473 199.5 147.37C200.82 140.8 206.28 130.43 211.09 127.37C211.134 127.343 211.183 127.324 211.234 127.316C211.285 127.308 211.337 127.31 211.387 127.322C211.437 127.334 211.485 127.356 211.526 127.387C211.568 127.417 211.603 127.456 211.63 127.5C211.659 127.543 211.679 127.591 211.689 127.642C211.699 127.693 211.698 127.745 211.687 127.796C211.675 127.846 211.654 127.894 211.623 127.936C211.593 127.978 211.554 128.013 211.51 128.04C206.86 130.98 201.56 141.04 200.28 147.51C200.264 147.602 200.216 147.685 200.145 147.745C200.073 147.806 199.983 147.839 199.89 147.84Z" fill="#263238"/>
<path d="M203.17 148.87C202.55 150.46 201.17 151.42 200.17 151.01C199.17 150.6 198.78 149.01 199.4 147.38C200.02 145.75 201.4 144.83 202.4 145.25C203.4 145.67 203.8 147.28 203.17 148.87Z" fill="white"/>
<path d="M229.57 164.36C229.57 165.1 229.11 165.69 228.62 165.67C228.13 165.65 227.75 165.03 227.78 164.28C227.81 163.53 228.24 162.94 228.73 162.97C229.22 163 229.6 163.61 229.57 164.36Z" fill="white"/>
<path d="M238.19 164.72C238.19 165.46 237.74 166.05 237.24 166.03C236.74 166.01 236.38 165.39 236.41 164.64C236.44 163.89 236.86 163.31 237.41 163.33C237.96 163.35 238.22 164 238.19 164.72Z" fill="white"/>
<path d="M407.77 150.85L406.77 150.79C406.936 148.661 406.658 146.521 405.954 144.505C405.249 142.489 404.133 140.641 402.676 139.08C401.22 137.518 399.455 136.276 397.493 135.432C395.531 134.589 393.415 134.162 391.28 134.18V133.18C393.552 133.161 395.804 133.614 397.892 134.511C399.98 135.408 401.859 136.729 403.409 138.39C404.96 140.052 406.148 142.017 406.898 144.162C407.649 146.307 407.946 148.584 407.77 150.85Z" fill="#58B2FF"/>
<path d="M408.297 155.043L407.718 163.323L408.718 163.393L409.297 155.113L408.297 155.043Z" fill="#58B2FF"/>
<path d="M391.28 136.68H322.28C318.512 136.742 314.901 138.203 312.151 140.78C309.401 143.356 307.707 146.864 307.4 150.62L306.77 159.91C306.627 161.698 306.857 163.495 307.447 165.189C308.038 166.882 308.974 168.434 310.197 169.746C311.42 171.057 312.903 172.099 314.551 172.806C316.199 173.513 317.977 173.868 319.77 173.85H388.77L402.15 182.1L404.27 150.62C404.414 148.833 404.185 147.035 403.596 145.342C403.007 143.649 402.072 142.097 400.849 140.785C399.627 139.473 398.145 138.431 396.497 137.724C394.849 137.017 393.073 136.662 391.28 136.68Z" fill="#58B2FF"/>
<path d="M387.78 149.99H323.87V152.31H387.78V149.99Z" fill="white"/>
<path d="M387.22 158.22H339.77V160.54H387.22V158.22Z" fill="white"/>
<path d="M287.48 186.38H358C359.833 186.36 361.651 186.723 363.336 187.445C365.022 188.167 366.538 189.232 367.789 190.573C369.039 191.914 369.996 193.501 370.599 195.232C371.202 196.964 371.437 198.802 371.29 200.63L370.65 210.13C370.333 213.968 368.601 217.552 365.79 220.185C362.98 222.819 359.291 224.314 355.44 224.38H284.91L270.09 232.83L272.27 200.63C272.585 196.791 274.316 193.206 277.127 190.572C279.938 187.938 283.628 186.444 287.48 186.38Z" fill="white"/>
<path opacity="0.15" d="M287.48 186.38H358C359.833 186.36 361.651 186.723 363.336 187.445C365.022 188.167 366.538 189.232 367.789 190.573C369.039 191.914 369.996 193.501 370.599 195.232C371.202 196.964 371.437 198.802 371.29 200.63L370.65 210.13C370.333 213.968 368.601 217.552 365.79 220.185C362.98 222.819 359.291 224.314 355.44 224.38H284.91L270.09 232.83L272.27 200.63C272.585 196.791 274.316 193.206 277.127 190.572C279.938 187.938 283.628 186.444 287.48 186.38Z" fill="#58B2FF"/>
<path opacity="0.5" d="M354.42 199.99H289.06V202.37H354.42V199.99Z" fill="#58B2FF"/>
<path opacity="0.5" d="M314.32 208.4H288.49V210.78H314.32V208.4Z" fill="#58B2FF"/>
<path opacity="0.5" d="M337.15 208.4H320.65V210.78H337.15V208.4Z" fill="#58B2FF"/>
<rect x="52" y="9" width="389" height="57" rx="11" fill="#58B2FF"/>
<path d="M162.192 46.256C161.441 46.256 160.69 46.1963 159.939 46.0768C159.188 45.9744 158.48 45.8123 157.814 45.5904C157.149 45.3515 156.551 45.0613 156.022 44.72C155.715 44.5152 155.502 44.2677 155.382 43.9776C155.263 43.6875 155.22 43.4059 155.254 43.1328C155.306 42.8427 155.417 42.5952 155.587 42.3904C155.775 42.1685 156.005 42.032 156.278 41.9808C156.551 41.9296 156.85 42.0064 157.174 42.2112C157.925 42.6549 158.719 42.9792 159.555 43.184C160.391 43.3888 161.27 43.4912 162.192 43.4912C163.54 43.4912 164.522 43.2693 165.136 42.8256C165.75 42.3648 166.058 41.776 166.058 41.0592C166.058 40.4619 165.836 39.9925 165.392 39.6512C164.965 39.3099 164.223 39.0283 163.165 38.8064L160.349 38.2176C158.727 37.8763 157.516 37.3045 156.714 36.5024C155.929 35.6832 155.536 34.608 155.536 33.2768C155.536 32.4405 155.707 31.6811 156.048 30.9984C156.389 30.3157 156.867 29.7269 157.482 29.232C158.113 28.7371 158.855 28.3616 159.709 28.1056C160.579 27.8325 161.535 27.696 162.576 27.696C163.6 27.696 164.573 27.824 165.494 28.08C166.416 28.336 167.244 28.7115 167.978 29.2064C168.251 29.3941 168.43 29.6245 168.515 29.8976C168.618 30.1707 168.643 30.4437 168.592 30.7168C168.541 30.9728 168.421 31.1947 168.234 31.3824C168.046 31.5701 167.807 31.6811 167.517 31.7152C167.244 31.7493 166.928 31.664 166.57 31.4592C165.938 31.1008 165.298 30.8448 164.65 30.6912C164.001 30.5376 163.301 30.4608 162.55 30.4608C161.765 30.4608 161.091 30.5717 160.528 30.7936C159.965 31.0155 159.53 31.3312 159.222 31.7408C158.932 32.1333 158.787 32.6027 158.787 33.1488C158.787 33.7632 158.992 34.2581 159.402 34.6336C159.811 34.992 160.511 35.2736 161.501 35.4784L164.291 36.0672C165.981 36.4256 167.235 36.9888 168.054 37.7568C168.891 38.5248 169.309 39.5488 169.309 40.8288C169.309 41.648 169.138 42.3904 168.797 43.056C168.473 43.7216 167.995 44.2933 167.363 44.7712C166.749 45.2491 166.006 45.616 165.136 45.872C164.266 46.128 163.284 46.256 162.192 46.256ZM173.862 46C173.299 46 172.864 45.8549 172.556 45.5648C172.266 45.2576 172.121 44.8224 172.121 44.2592V29.6928C172.121 29.1296 172.266 28.7029 172.556 28.4128C172.864 28.1056 173.299 27.952 173.862 27.952H183.001C183.428 27.952 183.752 28.0629 183.974 28.2848C184.213 28.5067 184.332 28.8224 184.332 29.232C184.332 29.6587 184.213 29.9915 183.974 30.2304C183.752 30.4523 183.428 30.5632 183.001 30.5632H175.27V35.5296H182.438C182.882 35.5296 183.215 35.6405 183.436 35.8624C183.658 36.0843 183.769 36.4085 183.769 36.8352C183.769 37.2619 183.658 37.5861 183.436 37.808C183.215 38.0299 182.882 38.1408 182.438 38.1408H175.27V43.3888H183.001C183.428 43.3888 183.752 43.4997 183.974 43.7216C184.213 43.9435 184.332 44.2677 184.332 44.6944C184.332 45.1211 184.213 45.4453 183.974 45.6672C183.752 45.8891 183.428 46 183.001 46H173.862ZM196.05 46.256C194.053 46.256 192.363 45.8805 190.981 45.1296C189.615 44.3787 188.574 43.312 187.858 41.9296C187.141 40.5472 186.782 38.9088 186.782 37.0144C186.782 35.5808 186.987 34.2923 187.397 33.1488C187.823 32.0053 188.429 31.0325 189.214 30.2304C190.017 29.4112 190.989 28.7883 192.133 28.3616C193.276 27.9179 194.573 27.696 196.024 27.696C196.98 27.696 197.935 27.8155 198.891 28.0544C199.864 28.2763 200.777 28.6603 201.63 29.2064C201.921 29.3941 202.108 29.6245 202.194 29.8976C202.296 30.1707 202.313 30.4523 202.245 30.7424C202.177 31.0155 202.049 31.2544 201.861 31.4592C201.673 31.664 201.434 31.792 201.144 31.8432C200.871 31.8944 200.564 31.8261 200.222 31.6384C199.574 31.2629 198.917 30.9899 198.251 30.8192C197.586 30.6485 196.843 30.5632 196.024 30.5632C194.761 30.5632 193.694 30.8192 192.824 31.3312C191.954 31.8261 191.297 32.5515 190.853 33.5072C190.426 34.4629 190.213 35.632 190.213 37.0144C190.213 39.1136 190.716 40.7093 191.723 41.8016C192.73 42.8939 194.223 43.44 196.203 43.44C196.886 43.44 197.577 43.3717 198.277 43.2352C198.977 43.0987 199.659 42.9109 200.325 42.672L199.685 44.1312V38.6784H196.869C196.442 38.6784 196.109 38.5675 195.87 38.3456C195.649 38.1237 195.538 37.8251 195.538 37.4496C195.538 37.0571 195.649 36.7584 195.87 36.5536C196.109 36.3488 196.442 36.2464 196.869 36.2464H201.093C201.519 36.2464 201.844 36.3659 202.066 36.6048C202.305 36.8267 202.424 37.1509 202.424 37.5776V43.7984C202.424 44.1739 202.347 44.4896 202.194 44.7456C202.057 45.0016 201.827 45.1893 201.502 45.3088C200.751 45.5819 199.89 45.8123 198.917 46C197.944 46.1707 196.988 46.256 196.05 46.256ZM207.962 46C207.399 46 206.964 45.8549 206.656 45.5648C206.366 45.2576 206.221 44.8224 206.221 44.2592V29.6928C206.221 29.1296 206.366 28.7029 206.656 28.4128C206.964 28.1056 207.399 27.952 207.962 27.952H217.101C217.528 27.952 217.852 28.0629 218.074 28.2848C218.313 28.5067 218.432 28.8224 218.432 29.232C218.432 29.6587 218.313 29.9915 218.074 30.2304C217.852 30.4523 217.528 30.5632 217.101 30.5632H209.37V35.5296H216.538C216.982 35.5296 217.315 35.6405 217.536 35.8624C217.758 36.0843 217.869 36.4085 217.869 36.8352C217.869 37.2619 217.758 37.5861 217.536 37.808C217.315 38.0299 216.982 38.1408 216.538 38.1408H209.37V43.3888H217.101C217.528 43.3888 217.852 43.4997 218.074 43.7216C218.313 43.9435 218.432 44.2677 218.432 44.6944C218.432 45.1211 218.313 45.4453 218.074 45.6672C217.852 45.8891 217.528 46 217.101 46H207.962ZM223.135 46.2048C222.606 46.2048 222.196 46.0597 221.906 45.7696C221.633 45.4624 221.496 45.0443 221.496 44.5152V29.616C221.496 29.0699 221.641 28.6603 221.931 28.3872C222.222 28.0971 222.631 27.952 223.16 27.952H229.33C231.31 27.952 232.837 28.4299 233.912 29.3856C234.987 30.3243 235.525 31.6469 235.525 33.3536C235.525 34.4629 235.278 35.4187 234.783 36.2208C234.305 37.0229 233.605 37.6373 232.683 38.064C231.762 38.4907 230.644 38.704 229.33 38.704L229.56 38.32H230.405C231.105 38.32 231.711 38.4907 232.223 38.832C232.752 39.1733 233.212 39.7109 233.605 40.4448L235.525 44.0032C235.73 44.3616 235.824 44.7115 235.807 45.0528C235.79 45.3941 235.662 45.6757 235.423 45.8976C235.184 46.1024 234.834 46.2048 234.373 46.2048C233.912 46.2048 233.537 46.1109 233.247 45.9232C232.956 45.7184 232.7 45.4112 232.479 45.0016L229.893 40.24C229.586 39.6597 229.219 39.2757 228.792 39.088C228.383 38.8832 227.854 38.7808 227.205 38.7808H224.773V44.5152C224.773 45.0443 224.636 45.4624 224.363 45.7696C224.09 46.0597 223.681 46.2048 223.135 46.2048ZM224.773 36.3488H228.767C229.944 36.3488 230.832 36.1099 231.429 35.632C232.043 35.1371 232.351 34.4032 232.351 33.4304C232.351 32.4747 232.043 31.7579 231.429 31.28C230.832 30.7851 229.944 30.5376 228.767 30.5376H224.773V36.3488ZM238.9 46.2048C238.491 46.2048 238.158 46.1109 237.902 45.9232C237.663 45.7355 237.518 45.488 237.467 45.1808C237.416 44.8565 237.475 44.4981 237.646 44.1056L244.404 29.1296C244.626 28.6347 244.891 28.2848 245.198 28.08C245.522 27.8581 245.889 27.7472 246.299 27.7472C246.691 27.7472 247.041 27.8581 247.348 28.08C247.673 28.2848 247.946 28.6347 248.168 29.1296L254.952 44.1056C255.139 44.4981 255.208 44.8565 255.156 45.1808C255.105 45.5051 254.96 45.7611 254.721 45.9488C254.482 46.1195 254.167 46.2048 253.774 46.2048C253.296 46.2048 252.921 46.0939 252.648 45.872C252.392 45.6331 252.161 45.2747 251.956 44.7968L250.292 40.9312L251.675 41.8272H240.872L242.254 40.9312L240.616 44.7968C240.394 45.2917 240.163 45.6501 239.924 45.872C239.685 46.0939 239.344 46.2048 238.9 46.2048ZM246.248 31.5104L242.664 40.0352L241.998 39.216H250.548L249.908 40.0352L246.299 31.5104H246.248ZM266.36 46.2048C265.831 46.2048 265.421 46.0597 265.131 45.7696C264.858 45.4624 264.721 45.0443 264.721 44.5152V29.4368C264.721 28.8907 264.858 28.4725 265.131 28.1824C265.421 27.8923 265.831 27.7472 266.36 27.7472C266.889 27.7472 267.29 27.8923 267.563 28.1824C267.853 28.4725 267.998 28.8907 267.998 29.4368V35.4784H277.291V29.4368C277.291 28.8907 277.427 28.4725 277.7 28.1824C277.991 27.8923 278.4 27.7472 278.929 27.7472C279.458 27.7472 279.859 27.8923 280.132 28.1824C280.423 28.4725 280.568 28.8907 280.568 29.4368V44.5152C280.568 45.0443 280.423 45.4624 280.132 45.7696C279.859 46.0597 279.458 46.2048 278.929 46.2048C278.4 46.2048 277.991 46.0597 277.7 45.7696C277.427 45.4624 277.291 45.0443 277.291 44.5152V38.2176H267.998V44.5152C267.998 45.0443 267.861 45.4624 267.588 45.7696C267.315 46.0597 266.906 46.2048 266.36 46.2048ZM284.7 46.2048C284.291 46.2048 283.958 46.1109 283.702 45.9232C283.463 45.7355 283.318 45.488 283.267 45.1808C283.216 44.8565 283.275 44.4981 283.446 44.1056L290.204 29.1296C290.426 28.6347 290.691 28.2848 290.998 28.08C291.322 27.8581 291.689 27.7472 292.099 27.7472C292.491 27.7472 292.841 27.8581 293.148 28.08C293.473 28.2848 293.746 28.6347 293.968 29.1296L300.752 44.1056C300.939 44.4981 301.008 44.8565 300.956 45.1808C300.905 45.5051 300.76 45.7611 300.521 45.9488C300.282 46.1195 299.967 46.2048 299.574 46.2048C299.096 46.2048 298.721 46.0939 298.448 45.872C298.192 45.6331 297.961 45.2747 297.756 44.7968L296.092 40.9312L297.475 41.8272H286.672L288.054 40.9312L286.416 44.7968C286.194 45.2917 285.963 45.6501 285.724 45.872C285.485 46.0939 285.144 46.2048 284.7 46.2048ZM292.048 31.5104L288.464 40.0352L287.798 39.216H296.348L295.708 40.0352L292.099 31.5104H292.048ZM305.312 46C304.749 46 304.314 45.8549 304.006 45.5648C303.716 45.2576 303.571 44.8224 303.571 44.2592V29.6928C303.571 29.1296 303.716 28.7029 304.006 28.4128C304.314 28.1056 304.749 27.952 305.312 27.952H310.278C313.299 27.952 315.629 28.7285 317.267 30.2816C318.923 31.8347 319.75 34.0619 319.75 36.9632C319.75 38.4139 319.537 39.7024 319.11 40.8288C318.701 41.9381 318.086 42.8768 317.267 43.6448C316.465 44.4128 315.475 45.0016 314.298 45.4112C313.137 45.8037 311.797 46 310.278 46H305.312ZM306.848 43.2864H310.074C311.132 43.2864 312.045 43.1584 312.813 42.9024C313.598 42.6293 314.246 42.2368 314.758 41.7248C315.287 41.1957 315.68 40.5387 315.936 39.7536C316.192 38.9515 316.32 38.0213 316.32 36.9632C316.32 34.8469 315.799 33.2683 314.758 32.2272C313.717 31.1861 312.156 30.6656 310.074 30.6656H306.848V43.2864ZM324.71 46.2048C324.181 46.2048 323.771 46.0597 323.481 45.7696C323.208 45.4624 323.071 45.0443 323.071 44.5152V29.4368C323.071 28.8907 323.208 28.4725 323.481 28.1824C323.771 27.8923 324.181 27.7472 324.71 27.7472C325.239 27.7472 325.64 27.8923 325.913 28.1824C326.203 28.4725 326.348 28.8907 326.348 29.4368V44.5152C326.348 45.0443 326.211 45.4624 325.938 45.7696C325.665 46.0597 325.256 46.2048 324.71 46.2048ZM331.935 46.2048C331.406 46.2048 330.996 46.0597 330.706 45.7696C330.433 45.4624 330.296 45.0443 330.296 44.5152V29.616C330.296 29.0699 330.441 28.6603 330.731 28.3872C331.022 28.0971 331.431 27.952 331.96 27.952H338.13C340.11 27.952 341.637 28.4299 342.712 29.3856C343.787 30.3243 344.325 31.6469 344.325 33.3536C344.325 34.4629 344.078 35.4187 343.583 36.2208C343.105 37.0229 342.405 37.6373 341.483 38.064C340.562 38.4907 339.444 38.704 338.13 38.704L338.36 38.32H339.205C339.905 38.32 340.511 38.4907 341.023 38.832C341.552 39.1733 342.012 39.7109 342.405 40.4448L344.325 44.0032C344.53 44.3616 344.624 44.7115 344.607 45.0528C344.59 45.3941 344.462 45.6757 344.223 45.8976C343.984 46.1024 343.634 46.2048 343.173 46.2048C342.712 46.2048 342.337 46.1109 342.047 45.9232C341.756 45.7184 341.5 45.4112 341.279 45.0016L338.693 40.24C338.386 39.6597 338.019 39.2757 337.592 39.088C337.183 38.8832 336.654 38.7808 336.005 38.7808H333.573V44.5152C333.573 45.0443 333.436 45.4624 333.163 45.7696C332.89 46.0597 332.481 46.2048 331.935 46.2048ZM333.573 36.3488H337.567C338.744 36.3488 339.632 36.1099 340.229 35.632C340.843 35.1371 341.151 34.4032 341.151 33.4304C341.151 32.4747 340.843 31.7579 340.229 31.28C339.632 30.7851 338.744 30.5376 337.567 30.5376H333.573V36.3488Z" fill="white"/>
</svg>
