<svg xmlns="http://www.w3.org/2000/svg" width="11.592" height="13.613" viewBox="0 0 11.592 13.613">
  <g id="surface1" transform="translate(0.158 0.187)">
    <path id="Path_37177" data-name="Path 37177" d="M11.579,3.693V3.682c-.006-.131-.01-.269-.012-.423a1.443,1.443,0,0,0-1.359-1.413A5.6,5.6,0,0,1,6.4.239L6.389.231A.871.871,0,0,0,5.2.231L5.2.239A5.6,5.6,0,0,1,1.385,1.846,1.443,1.443,0,0,0,.027,3.259c0,.153-.006.291-.012.423v.025a14.754,14.754,0,0,0,.6,5.385,6.855,6.855,0,0,0,1.645,2.562,8.6,8.6,0,0,0,3.218,1.9,1,1,0,0,0,.132.036.974.974,0,0,0,.383,0,1,1,0,0,0,.132-.036,8.609,8.609,0,0,0,3.215-1.9A6.865,6.865,0,0,0,10.98,9.09,14.776,14.776,0,0,0,11.579,3.693ZM10.231,8.814A6.605,6.605,0,0,1,5.857,12.8l-.025.007a.179.179,0,0,1-.07,0L5.736,12.8A6.6,6.6,0,0,1,1.36,8.816,13.92,13.92,0,0,1,.812,3.722V3.713c.006-.138.01-.283.013-.442a.641.641,0,0,1,.6-.628A7.009,7.009,0,0,0,3.809,2.12,6.224,6.224,0,0,0,5.747.818a.074.074,0,0,1,.1,0,6.226,6.226,0,0,0,1.939,1.3,7.009,7.009,0,0,0,2.379.523.641.641,0,0,1,.6.628c0,.16.007.3.013.442A13.926,13.926,0,0,1,10.231,8.814Zm0,0" transform="translate(-0.158 -0.186)" fill="#fff"/>
    <path id="Path_37178" data-name="Path 37178" d="M93.7,128.41a3.3,3.3,0,1,0,3.3,3.3A3.3,3.3,0,0,0,93.7,128.41Zm0,5.823a2.523,2.523,0,1,1,2.523-2.523A2.526,2.526,0,0,1,93.7,134.233Zm0,0" transform="translate(-88.06 -125.09)" fill="#fff"/>
    <path id="Path_37179" data-name="Path 37179" d="M156.285,212.1l-1.533,1.533-.416-.416a.389.389,0,0,0-.549.549l.691.691a.388.388,0,0,0,.549,0l1.808-1.808a.389.389,0,0,0-.549-.549Zm0,0" transform="translate(-149.698 -206.509)" fill="#fff"/>
  </g>
</svg>