<svg width="52" height="48" viewBox="0 0 52 48" fill="none" xmlns="http://www.w3.org/2000/svg">
<path d="M7.5 40.5C3.63401 40.5 0.5 37.366 0.5 33.5L0.499999 26C0.499999 11.9167 11.9167 0.500002 26 0.500001V0.500001C40.0833 0.500001 51.5 11.9167 51.5 26L51.5 33.5C51.5 37.366 48.366 40.5 44.5 40.5L7.5 40.5Z" fill="#B6E3FF"/>
<g clip-path="url(#clip0_4_332)">
<path d="M16 31.4049C16 29.5603 16 27.7156 16 25.871C16.0014 24.0826 16 22.2943 16.0055 20.506C16.0082 19.5669 15.9959 18.6251 16.0355 17.6874C16.0738 16.7644 16.5209 16.0493 17.3152 15.5422C17.7335 15.2752 18.1888 15.1115 18.6796 15.0579C19.046 15.0176 19.4179 15.0082 19.787 15.0056C20.9723 14.9989 22.1576 15.0002 23.3416 15.0015C24.7183 15.0029 26.0937 15.0109 27.4704 15.0109C28.802 15.0109 30.1349 15.0002 31.4665 15.0029C31.956 15.0042 32.4454 15.0257 32.9335 15.0512C33.2302 15.0673 33.5296 15.0874 33.8208 15.1411C34.4893 15.2672 34.9924 15.6468 35.3697 16.1902C35.8072 16.8194 35.9768 17.5304 35.9795 18.283C35.9822 19.5857 35.9727 20.887 35.9727 22.1897C35.9713 24.4717 35.974 26.7537 35.9699 29.0371C35.9672 30.6845 35.9549 32.3333 35.9494 33.9808C35.9494 34.1163 35.9713 34.2518 35.9699 34.3859C35.9686 34.787 35.9535 35.1895 35.9563 35.5906C35.9604 36.0669 35.9836 36.5432 35.9863 37.0181C35.9891 37.4071 35.974 37.7962 35.9672 38.1839C35.9604 38.5636 35.948 38.9446 35.9494 39.3242C35.9508 39.8394 35.9672 40.3559 35.9713 40.8711C35.9822 41.9323 35.9904 42.9934 35.9986 44.0546C36.0041 44.7147 35.9932 45.3761 35.7826 46.0093C35.4203 47.096 34.6534 47.7533 33.4995 47.9076C32.8856 47.9895 32.2568 47.9854 31.6333 47.9908C30.3865 48.0029 29.1383 47.9988 27.8901 47.9935C26.3794 47.9881 24.8701 47.9667 23.3594 47.9667C22.0059 47.9667 20.651 47.9881 19.2976 47.9935C18.8765 47.9948 18.4527 48.0015 18.0425 47.8701C17.4669 47.6863 17.024 47.3361 16.6644 46.8666C16.3473 46.452 16.1654 45.9865 16.0697 45.4847C16.0451 45.3519 16.0287 45.2164 16.0287 45.0823C16.0273 43.1907 16.0287 41.2977 16.0273 39.4034C16.026 38.0524 16.0232 36.7015 16.0191 35.3518C16.015 34.1283 16.0082 32.9035 16.0027 31.68C16.0027 31.5887 16.0027 31.4962 16.0027 31.4049C16.0014 31.4049 16.0014 31.4049 16 31.4049ZM16.998 43.1155C17.0746 43.1155 17.1183 43.1155 17.1621 43.1155C17.4341 43.1102 17.7048 43.1008 17.9769 43.1021C20.3298 43.1061 22.6813 43.1169 25.0341 43.1169C27.9612 43.1169 30.8882 43.1075 33.8153 43.1008C34.1366 43.0994 34.4565 43.09 34.7778 43.0887C34.9049 43.0887 34.9801 43.0444 34.9869 42.9103C34.9965 42.7318 35.0239 42.5534 35.0225 42.375C35.0157 41.562 34.9938 40.749 34.9897 39.9373C34.9856 39.2639 34.9992 38.5917 35.0047 37.9183C35.0157 36.4841 35.0348 35.05 35.0348 33.6172C35.0362 31.9563 35.017 30.2955 35.0143 28.6333C35.0129 27.6459 35.0266 26.6571 35.0307 25.6697C35.0375 24.1658 35.0567 22.6619 35.0444 21.158C35.0348 20.0271 34.9938 18.8948 34.9514 17.7638C34.9282 17.1346 34.6301 16.6503 34.0723 16.327C33.7524 16.1419 33.3997 16.0359 33.0347 16.0252C32.4837 16.0077 31.9327 16.0305 31.3818 16.0426C31.2013 16.0466 31.1398 16.1124 31.1289 16.2948C31.1152 16.5296 31.1275 16.7657 31.1015 16.9991C31.0619 17.3547 30.7707 17.6619 30.4097 17.7209C30.0912 17.7732 29.7672 17.8202 29.4445 17.8215C28.3084 17.8296 27.1723 17.8175 26.0376 17.8148C25.1517 17.8135 24.2644 17.8188 23.3785 17.8121C22.8658 17.8081 22.3545 17.7893 21.8418 17.7705C21.7147 17.7652 21.5711 17.7652 21.4631 17.7115C21.1541 17.5572 20.9176 17.3278 20.867 16.9723C20.8411 16.7872 20.8438 16.598 20.8397 16.4115C20.8342 16.1553 20.7454 16.052 20.4842 16.0359C20.2846 16.0238 20.0837 16.0225 19.8841 16.0211C19.381 16.0158 18.8778 16.0064 18.3843 16.1244C17.564 16.319 17.1252 16.8784 17.0021 17.6726C16.9256 18.165 16.9502 18.6748 16.9433 19.1778C16.9297 20.4081 16.9146 21.641 16.9146 22.8725C16.916 24.9573 16.9269 27.0435 16.9392 29.1283C16.942 29.5039 16.9802 29.8782 16.9843 30.2525C16.9884 30.6456 16.9625 31.0387 16.9625 31.4318C16.9625 33.691 16.9693 35.9502 16.9666 38.2094C16.9652 39.5255 16.9474 40.8416 16.9461 42.1563C16.9461 42.4729 16.9802 42.7895 16.998 43.1155ZM26.4204 44.4558C26.4204 44.4383 26.4204 44.4209 26.4204 44.4048C26.0731 44.4048 25.7259 44.4008 25.3786 44.4061C24.8236 44.4142 24.2685 44.4289 23.7175 44.5255C23.2459 44.6074 23.0148 45.1118 23.1474 45.5089C23.239 45.7839 23.4892 46.0978 23.8406 46.1126C24.2357 46.13 24.6294 46.173 25.0245 46.181C26.0608 46.1998 27.0985 46.2065 28.1334 46.1126C28.6789 46.063 28.9318 45.4794 28.8471 45.1239C28.75 44.72 28.3987 44.4625 27.9284 44.4571C27.4266 44.4517 26.9235 44.4558 26.4204 44.4558Z" fill="#4BABE7"/>
<path d="M33.1604 30.1088C33.2001 30.526 33.036 30.8963 32.8706 31.2625C32.5725 31.9226 32.1993 32.5411 31.7823 33.134C31.2341 33.9148 30.6339 34.6567 29.9873 35.361C29.614 35.7662 29.2367 36.1673 28.8471 36.5577C28.318 37.0863 27.7041 37.517 27.0848 37.9342C26.5065 38.3232 25.9186 38.7002 25.3171 39.0544C24.773 39.3737 24.2179 39.6715 23.6205 39.8969C23.1884 40.0606 22.755 40.1491 22.2957 40.1263C21.9129 40.1062 21.5533 40.0015 21.2088 39.8432C20.7617 39.6393 20.3106 39.4367 19.9415 39.1067C19.6311 38.8304 19.4137 38.4936 19.3522 38.0791C19.3139 37.8228 19.3632 37.5746 19.5245 37.3721C20.1889 36.5336 20.9819 35.8454 21.9717 35.3919C22.6785 35.0686 23.3115 35.3356 23.697 35.8869C23.8406 36.0922 23.9718 36.3042 24.1003 36.5188C24.2548 36.7764 24.4831 36.8287 24.7634 36.7858C25.3499 36.6959 25.8516 36.4195 26.3315 36.0989C26.9959 35.6548 27.5824 35.1249 28.1334 34.5481C28.4957 34.167 28.8635 33.7968 29.1287 33.342C29.3515 32.9596 29.5799 32.58 29.6769 32.144C29.7357 31.877 29.6892 31.7603 29.4541 31.6167C29.2244 31.4772 28.9838 31.3524 28.7582 31.2049C28.4889 31.0278 28.2537 30.8131 28.1662 30.4898C28.0719 30.1437 28.143 29.8123 28.307 29.5051C28.6434 28.8732 29.0931 28.3205 29.6181 27.8308C29.8423 27.6215 30.0843 27.4203 30.3455 27.2606C31.0044 26.8582 31.3476 26.9373 31.8931 27.4095C32.6136 28.0347 33.0032 28.8464 33.1577 29.7694C33.1768 29.8794 33.1604 29.9948 33.1604 30.1088Z" fill="#4BABE7"/>
<path d="M18.2982 28.6559C18.2544 26.6234 20.1493 24.8592 22.2506 24.8834C24.0293 24.9035 26.0813 26.2826 26.0704 28.676C26.0608 30.8923 24.274 32.4418 22.2615 32.4404C20.0659 32.4391 18.2763 30.8426 18.2982 28.6559ZM22.1781 31.4759C23.6683 31.4812 25.0532 30.3436 25.0861 28.6518C25.1189 26.9802 23.548 25.8493 22.1344 25.8587C20.5799 25.8694 19.2866 27.1573 19.2893 28.7042C19.2893 30.082 20.584 31.5054 22.1781 31.4759Z" fill="#4BABE7"/>
<path d="M22.2191 26.512C22.3709 26.512 22.5213 26.5093 22.673 26.512C22.8562 26.5161 22.8808 26.555 22.8795 26.7321C22.8767 27.0621 22.8781 27.3934 22.8986 27.7235C22.9109 27.918 23.0244 28.0065 23.2281 28.0039C23.3826 28.0025 23.5371 27.973 23.6929 27.9676C23.8515 27.9623 24.0115 27.9596 24.1687 27.977C24.3027 27.9918 24.3902 28.0951 24.3915 28.2199C24.3943 28.5593 24.3806 28.9 24.3628 29.2394C24.3574 29.3307 24.2876 29.3803 24.1837 29.3736C23.9445 29.3602 23.7039 29.3468 23.4646 29.3428C23.3361 29.3401 23.2076 29.3602 23.0791 29.3656C22.956 29.3709 22.8781 29.4393 22.8754 29.548C22.8685 29.7814 22.8836 30.0162 22.8849 30.251C22.8863 30.3852 22.8836 30.5207 22.8726 30.6535C22.8658 30.7407 22.8043 30.8024 22.7154 30.8051C22.3873 30.8104 22.0592 30.8212 21.7324 30.8037C21.5424 30.7943 21.4645 30.6897 21.4617 30.4817C21.4604 30.2684 21.4836 30.0565 21.4959 29.8432C21.4959 29.8351 21.5014 29.8271 21.5028 29.8177C21.5615 29.5037 21.4604 29.3776 21.1336 29.3682C20.8889 29.3615 20.6442 29.3682 20.3995 29.3656C20.3202 29.3642 20.2409 29.3521 20.1616 29.3401C20.0468 29.3226 19.9647 29.2515 19.9634 29.1429C19.962 28.8169 19.9647 28.4909 19.9921 28.1662C20.0057 28.0012 20.1301 27.9207 20.3065 27.9287C20.4965 27.9381 20.6852 27.973 20.8752 27.9878C20.9983 27.9972 21.1241 28.0025 21.2471 27.9918C21.4194 27.977 21.4809 27.91 21.4809 27.7369C21.4795 27.5061 21.4645 27.2754 21.4563 27.0433C21.4535 26.9735 21.4494 26.9024 21.459 26.834C21.4877 26.6059 21.5739 26.4731 21.8459 26.4946C21.9703 26.504 22.0947 26.4959 22.2191 26.4959C22.2191 26.504 22.2191 26.508 22.2191 26.512Z" fill="#4BABE7"/>
</g>
<defs>
<clipPath id="clip0_4_332">
<rect width="20" height="33" fill="white" transform="translate(16 15)"/>
</clipPath>
</defs>
</svg>
