<svg xmlns="http://www.w3.org/2000/svg" width="42" height="42" viewBox="0 0 42 42">
  <path id="Subtraction_14" data-name="Subtraction 14" d="M18751.5-5759.5a21.026,21.026,0,0,1-21-21,21.025,21.025,0,0,1,21-21,21.024,21.024,0,0,1,21,21A21.025,21.025,0,0,1,18751.5-5759.5Zm0-40.1a19.121,19.121,0,0,0-19.1,19.1,19.117,19.117,0,0,0,19.1,19.093,19.115,19.115,0,0,0,19.094-19.093A19.119,19.119,0,0,0,18751.5-5799.6Zm-2.941,25.933a.957.957,0,0,1-.676-.284l-5.879-5.878a.951.951,0,0,1,0-1.348.994.994,0,0,1,.678-.276.964.964,0,0,1,.67.276l5.207,5.209,11.082-11.087a.988.988,0,0,1,.676-.275.968.968,0,0,1,.672.275.933.933,0,0,1,.283.68.93.93,0,0,1-.283.668l-11.758,11.756A.928.928,0,0,1,18748.559-5773.666Z" transform="translate(-18730.5 5801.498)" fill="#0ebe5a"/>
</svg>
