<svg width="21" height="21" viewBox="0 0 21 21" fill="none" xmlns="http://www.w3.org/2000/svg">
<g clip-path="url(#clip0_63_2)">
<path d="M10.0249 0.100099C8.14244 0.0991831 6.29856 0.633925 4.70865 1.64186C3.11874 2.6498 1.84844 4.08932 1.04614 5.79228C0.243845 7.49524 -0.0573367 9.39133 0.17778 11.2591C0.412896 13.1268 1.1746 14.8891 2.37393 16.3401C2.37393 16.3401 2.37393 16.3511 2.38193 16.3561C3.39021 17.5748 4.67527 18.5349 6.12993 19.1561L6.17893 19.1781C6.29493 19.2271 6.41293 19.2721 6.52993 19.3171L6.66993 19.3691C6.77126 19.4058 6.8736 19.4391 6.97693 19.4691L7.17693 19.5311C7.2676 19.5584 7.35893 19.5844 7.45093 19.6091C7.53193 19.6311 7.61293 19.6511 7.69393 19.6711C7.77493 19.6911 7.85893 19.7111 7.94193 19.7281C8.02493 19.7451 8.12793 19.7651 8.22193 19.7831C8.29693 19.7971 8.37293 19.8111 8.44893 19.8241C8.54893 19.8411 8.65793 19.8541 8.76293 19.8681C8.83093 19.8771 8.89793 19.8871 8.96293 19.8941C9.08193 19.9071 9.20193 19.9161 9.32293 19.9241C9.37893 19.9241 9.43393 19.9341 9.49093 19.9371C9.66693 19.9471 9.84426 19.9521 10.0229 19.9521C10.2019 19.9521 10.3799 19.9471 10.5559 19.9371C10.6119 19.9371 10.6679 19.9281 10.7239 19.9241C10.8439 19.9151 10.9649 19.9071 11.0839 19.8941C11.1519 19.8871 11.2199 19.8771 11.2839 19.8681C11.3889 19.8541 11.4939 19.8411 11.5979 19.8241C11.6739 19.8121 11.7489 19.7971 11.8249 19.7831C11.9189 19.7661 12.0119 19.7481 12.1049 19.7281C12.1979 19.7081 12.2699 19.6911 12.3529 19.6711C12.4359 19.6511 12.5159 19.6311 12.5959 19.6091C12.6759 19.5871 12.7789 19.5581 12.8699 19.5311L13.0699 19.4691C13.1726 19.4358 13.2749 19.4024 13.3769 19.3691L13.5169 19.3171C13.6349 19.2731 13.7519 19.2271 13.8679 19.1781L13.9169 19.1561C15.3715 18.5348 16.6566 17.5748 17.6649 16.3561C17.6649 16.3561 17.6649 16.3451 17.6729 16.3401C18.8717 14.8892 19.633 13.1272 19.868 11.2599C20.103 9.39256 19.802 7.49691 19.0001 5.79421C18.1983 4.09152 16.9286 2.65203 15.3394 1.64379C13.7502 0.635553 11.907 0.100156 10.0249 0.100099V0.100099ZM14.0469 18.3691L14.0319 18.3761C13.9139 18.4331 13.7939 18.4861 13.6729 18.5391L13.5909 18.5741C13.4849 18.6181 13.3779 18.6604 13.2699 18.7011L13.1349 18.7501C13.0349 18.7841 12.9429 18.8171 12.8469 18.8501L12.6659 18.9051C12.5799 18.9311 12.4939 18.9561 12.4059 18.9791C12.3179 19.0021 12.2579 19.0161 12.1839 19.0341C12.1099 19.0521 12.0289 19.0711 11.9499 19.0881C11.8709 19.1051 11.7779 19.1221 11.6919 19.1371C11.6219 19.1501 11.5529 19.1631 11.4819 19.1751C11.3819 19.1901 11.2869 19.2021 11.1899 19.2151C11.1279 19.2231 11.0669 19.2321 11.0039 19.2391C10.8929 19.2511 10.7799 19.2591 10.6679 19.2661C10.6179 19.2661 10.5679 19.2751 10.5179 19.2781C10.3539 19.2868 10.1896 19.2911 10.0249 19.2911C9.86026 19.2911 9.69626 19.2868 9.53293 19.2781C9.48293 19.2781 9.43293 19.2701 9.38293 19.2661C9.27093 19.2581 9.15793 19.2501 9.04693 19.2391C8.98393 19.2321 8.92293 19.2231 8.86093 19.2151C8.76093 19.2031 8.66093 19.1911 8.56893 19.1751C8.49893 19.1641 8.42893 19.1501 8.35893 19.1371C8.27193 19.1191 8.18593 19.1001 8.09993 19.0861C8.01393 19.0721 7.94393 19.0511 7.86593 19.0321C7.78793 19.0131 7.71793 18.9971 7.64393 18.9771C7.56993 18.9571 7.46993 18.9291 7.38393 18.9031L7.19993 18.8481C7.10326 18.8168 7.00726 18.7834 6.91193 18.7481L6.77993 18.7001C6.67193 18.6594 6.56493 18.6171 6.45893 18.5731L6.37693 18.5381C6.25593 18.4861 6.13593 18.4321 6.01693 18.3751L5.99993 18.3691C4.85186 17.8116 3.83071 17.0239 2.99993 16.0551C3.31974 14.8899 3.92378 13.8223 4.75787 12.948C5.59197 12.0738 6.63002 11.4203 7.77893 11.0461C7.82493 11.0741 7.87293 11.0991 7.91993 11.1261L8.00293 11.1731C8.10293 11.2251 8.20293 11.2731 8.30293 11.3181C8.38093 11.3521 8.46193 11.3821 8.54293 11.4111L8.59093 11.4291C9.51553 11.7621 10.5273 11.7621 11.4519 11.4291L11.4999 11.4111C11.5809 11.3811 11.6619 11.3521 11.7399 11.3181C11.8399 11.2741 11.9399 11.2251 12.0399 11.1731L12.1229 11.1261C12.1699 11.1001 12.2229 11.0741 12.2649 11.0461C13.4138 11.4203 14.4519 12.0738 15.286 12.948C16.1201 13.8223 16.7241 14.8899 17.0439 16.0551C16.2138 17.0234 15.1938 17.811 14.0469 18.3691V18.3691ZM6.38593 7.3781C6.38482 6.74677 6.54797 6.12602 6.85935 5.57683C7.17074 5.02764 7.61965 4.56891 8.16197 4.24571C8.70429 3.92251 9.32137 3.74596 9.95257 3.7334C10.5838 3.72085 11.2074 3.87273 11.7621 4.17411C12.3169 4.47549 12.7836 4.91601 13.1166 5.45239C13.4496 5.98876 13.6373 6.60254 13.6613 7.23341C13.6853 7.86428 13.5447 8.49053 13.2535 9.05065C12.9622 9.61076 12.5302 10.0855 11.9999 10.4281C11.8701 10.5126 11.7348 10.5885 11.5949 10.6551L11.5459 10.6791C11.0664 10.8945 10.5466 11.0059 10.0209 11.0059C9.49522 11.0059 8.97548 10.8945 8.49593 10.6791L8.44693 10.6551C8.30702 10.5885 8.17172 10.5127 8.04193 10.4281C7.53362 10.098 7.11587 9.64603 6.82666 9.11336C6.53746 8.5807 6.38595 7.98421 6.38593 7.3781ZM17.5449 15.4251C17.1707 14.3267 16.5611 13.3232 15.7588 12.4848C14.9565 11.6464 13.9808 10.9933 12.8999 10.5711C13.5476 9.98985 14.0037 9.22577 14.2079 8.37982C14.4121 7.53387 14.3548 6.64587 14.0436 5.83317C13.7324 5.02046 13.1819 4.32131 12.4649 3.82811C11.7479 3.3349 10.8982 3.07085 10.0279 3.07085C9.15768 3.07085 8.30792 3.3349 7.59092 3.82811C6.87393 4.32131 6.32347 5.02046 6.01227 5.83317C5.70107 6.64587 5.64378 7.53387 5.84798 8.37982C6.05218 9.22577 6.50825 9.98985 7.15593 10.5711C6.07459 10.9932 5.09848 11.6464 4.29582 12.485C3.49317 13.3236 2.88333 14.3273 2.50893 15.4261C1.65757 14.2407 1.09842 12.8709 0.877066 11.4283C0.655715 9.98578 0.77843 8.51133 1.23521 7.12521C1.69198 5.73909 2.46989 4.48055 3.50549 3.45221C4.5411 2.42387 5.80508 1.65484 7.19438 1.20783C8.58367 0.760814 10.0589 0.648477 11.4999 0.879973C12.9409 1.11147 14.3067 1.68025 15.4861 2.53993C16.6655 3.39961 17.625 4.52585 18.2864 5.82682C18.9477 7.12779 19.2923 8.56666 19.2919 10.0261C19.2923 11.9648 18.6809 13.8541 17.5449 15.4251V15.4251Z" fill="#0D4B6C" stroke="#858EA9" stroke-width="0.2"/>
</g>
<defs>
<clipPath id="clip0_63_2">
<rect width="20.05" height="20.05" fill="white"/>
</clipPath>
</defs>
</svg>