<svg xmlns="http://www.w3.org/2000/svg" width="7.004" height="12.979" viewBox="0 0 7.004 12.979">
  <g id="Group" transform="translate(-194 -185.021)">
    <g id="Vector" transform="translate(200.986 198) rotate(-179.922)">
      <path d="M1.2,6.488,6.84.852A.5.5,0,1,0,6.135.146L.146,6.135a.5.5,0,0,0,0,.706l5.989,5.989a.5.5,0,0,0,.706-.706Z" stroke="none"/>
      <path d="M 6.481380462646484 12.96914768218994 C 6.356575965881348 12.96914768218994 6.231618881225586 12.92261791229248 6.134751796722412 12.82906818389893 L 0.1461015939712524 6.840407848358154 C -0.04869841039180756 6.645547866821289 -0.04869841039180756 6.329617977142334 0.1461015939712524 6.134757995605469 L 6.134751796722412 0.1461080461740494 C 6.3296217918396 -0.04870195686817169 6.645511150360107 -0.04870195686817169 6.84041166305542 0.1461080461740494 C 7.035241603851318 0.3409680426120758 7.035241603851318 0.656898021697998 6.84041166305542 0.8517580628395081 L 1.204591631889343 6.487587928771973 L 6.84041166305542 12.12340831756592 C 7.027171611785889 12.3167781829834 7.027171611785889 12.62337779998779 6.84041166305542 12.8167781829834 C 6.742486000061035 12.91817092895508 6.612016677856445 12.96914863586426 6.481380462646484 12.96914768218994 Z" stroke="none" fill="#fff"/>
    </g>
  </g>
</svg>